<svg width="570" height="578" viewBox="0 0 570 578" fill="none" xmlns="http://www.w3.org/2000/svg">
<path d="M221.463 25.8918C257.916 7.49941 298.437 -1.35139 339.24 0.167236C402.253 2.49105 461.795 29.6182 504.898 75.6399C579.008 154.885 590.162 269.467 536.485 361.29C534.668 364.391 535.112 374.709 534.307 378.46C527.649 414.089 498.674 438.261 462.982 438.728C401.563 481.108 319.502 488.643 249.874 464.8C236.985 460.388 225.463 453.37 212.472 449.708C208.202 448.552 198.704 448.546 193.984 448.569C186.225 449.202 181.823 449.414 174.319 451.747C169.211 453.153 165.959 454.098 161.064 456.209C139.437 465.344 128.819 479.558 114.365 497.634C107.198 506.53 100.131 515.51 93.1631 524.562C89.6288 529.157 81.7287 539.931 77.9697 543.515L69.3467 554.039C63.2027 560.896 55.2481 569.465 46.874 573.605C35.1186 578.467 25.5011 578.566 14.3447 572.482C7.91589 568.292 5.41592 564.202 2.22949 557.44C-6.24476 534.724 11.0621 517.304 26.8359 503.796C36.1103 495.856 45.4855 488.304 55.0205 480.675L57.2578 478.947L63.5527 473.929C81.8029 460.037 96.8616 449.064 110.915 430.905C121.077 416.291 123.28 404.294 125.525 387.218C126.376 357.312 117.69 353.9 107.009 327.24C85.2753 271.801 84.7972 210.289 105.667 154.521C110.317 142.052 115.996 131.184 122.172 119.438C124.212 115.365 123.688 110.221 124.415 105.86C127.103 89.7421 134.363 75.3109 146.125 64.3049C159.995 51.3268 173.176 47.5834 191.246 44.1233C193.2 43.7484 200.144 37.9757 202.362 36.9797C208.574 33.2151 215.024 29.2108 221.463 25.8918ZM68.3262 506.314C56.9638 511.604 31.3264 523.795 25.7354 536.375C25.3952 537.143 24.6487 540.793 24.4453 541.837C25.6117 544.788 26.6376 548.032 29.0576 550.144C32.5408 551.694 36.4562 553.267 40.2334 551.672C50.8931 547.177 64.5974 520.416 68.6074 510.425C69.0214 509.392 69.3829 508.336 69.6885 507.269L69.25 506.519L68.3262 506.314Z" fill="#2E2E2D"/>
<path d="M107.009 327.24C117.69 353.9 126.377 357.312 125.526 387.218C123.28 404.294 121.077 416.29 110.915 430.904L111.841 431.049C110.216 434.533 105.322 438.15 105.075 441.073L104.671 440.74C104.449 441.145 104.523 440.912 104.498 441.451C105.54 440.851 105.782 440.945 106.975 440.884C109.054 442.234 110.305 442.056 112.6 441.256C115.936 436.65 121.883 433.133 124.013 428.42L122.676 428.265C122.074 427.292 122.086 425.814 122.012 425.737C120.643 424.286 119.815 423.475 118.802 421.68L119.278 421.597C120.867 423.036 122.425 424.514 123.949 426.026C125.095 424.281 122.71 421.336 124.983 418.919C134.575 425.214 137.271 399.443 142.095 395.303C142.586 392.402 143.551 386.734 144.578 384.201C150.17 370.392 143.254 362.424 135.912 351.305C130.675 343.371 126.271 334.758 122.371 326.134C99.46 274.196 97.6383 215.381 117.291 162.121C122.426 148.451 128.649 135.355 136.47 123.004C138.646 118.398 139.074 111.509 139.782 106.759C142.313 89.7715 160.592 67.5261 177.942 63.8615C195.183 60.2202 193.405 59.3295 207.811 49.5687C279.148 1.23534 377.665 1.06422 449.834 47.8272C517.102 90.5145 557.819 163.074 555.68 243.122L555.662 243.796C555.39 253.901 555.114 264.194 553.407 274.196C548.589 301.223 538.764 328.668 524.198 351.972C519.792 357.957 520.047 363.285 519.38 370.348C516.785 397.659 494.707 419.919 467.354 422.514C457.087 423.492 453.141 427.442 444.554 432.482C436.977 436.85 429.24 440.934 421.363 444.729C383.167 463.038 333.693 469.217 292.203 461.121C286.951 460.098 278.743 458.493 273.809 456.531L271.51 455.992C265.818 456.47 236.536 443.501 230.67 440.584C223.527 437.033 215.481 431.721 207.54 429.159C200.813 432.455 203.949 442.079 193.985 448.569C198.705 448.547 208.203 448.552 212.472 449.708C225.463 453.37 236.985 460.388 249.874 464.8C319.503 488.643 401.562 481.108 462.982 438.728C498.674 438.261 527.649 414.09 534.307 378.461C535.113 374.71 534.668 364.391 536.485 361.291C590.162 269.467 579.009 154.885 504.898 75.6399C461.795 29.6181 402.253 2.49117 339.24 0.167379C298.438 -1.35125 257.916 7.49936 221.463 25.8918C215.025 29.2108 208.575 33.2155 202.363 36.9801C200.145 37.9759 193.199 43.7498 191.246 44.1237C173.176 47.5838 159.996 51.3268 146.126 64.3049C134.363 75.3109 127.104 89.7415 124.416 105.859C123.688 110.221 124.213 115.364 122.173 119.437C115.997 131.184 110.318 142.052 105.667 154.52C84.7974 210.288 85.2753 271.801 107.009 327.24Z" fill="#6A6B66"/>
<path d="M74.0752 538.836C75.7801 535.864 79.3628 531.98 81.6079 529.201C116.842 485.665 143.556 429.204 207.539 429.159C200.813 432.455 203.949 442.079 193.985 448.569C186.225 449.202 181.824 449.413 174.32 451.747C169.211 453.153 165.96 454.098 161.065 456.209C139.437 465.344 128.82 479.558 114.366 497.634C107.199 506.53 100.131 515.51 93.163 524.561C89.6286 529.157 81.7285 539.931 77.9697 543.515L78.3214 541.07C77.1978 539.348 76.4803 539.614 74.0752 538.836Z" fill="#4F4F4F"/>
<path d="M161.065 456.209C164.344 450.286 168.215 448.808 174.32 451.747C169.211 453.153 165.96 454.098 161.065 456.209Z" fill="#5F5F5E"/>
<path d="M57.258 478.947C58.5717 481.692 59.1174 482.614 59.5575 485.598L56.2822 487.888C51.7247 491.588 44.3259 496.212 40.6732 499.457C25.526 512.92 5.93703 531.596 3.17456 552.6C2.87892 554.845 3.17512 555.262 2.22985 557.44C-6.24483 534.725 11.0624 517.305 26.8364 503.796C36.1108 495.856 45.4851 488.304 55.0201 480.675L57.258 478.947Z" fill="#434242"/>
<path d="M111.841 431.049C110.216 434.533 105.322 438.15 105.075 441.073L104.671 440.74C104.448 441.145 104.523 440.912 104.498 441.451C105.54 440.851 105.782 440.945 106.975 440.884C109.054 442.234 110.305 442.057 112.6 441.256C115.936 436.65 121.882 433.133 124.012 428.421L122.675 428.265C122.074 427.293 122.086 425.814 122.012 425.737C120.643 424.286 119.815 423.475 118.802 421.68L119.278 421.597C120.867 423.036 122.425 424.514 123.949 426.026C125.095 424.281 122.71 421.336 124.983 418.919C134.574 425.214 137.271 399.443 142.094 395.303C141.708 400.526 139.578 402.043 138.008 406.416C130.928 426.115 116.04 439.889 100.724 453.509C92.0454 461.227 80.3754 468.784 71.4934 476.424C67.6728 476.819 66.423 476.047 63.5527 473.929C81.803 460.038 96.8613 449.063 110.915 430.904L111.841 431.049Z" fill="#434242"/>
<path d="M63.7473 549.883C66.6587 552.417 65.61 552.506 69.3472 554.039C63.2032 560.896 55.2487 569.465 46.8746 573.604C46.7079 572.271 46.9246 565.653 46.9219 563.841C52.0283 561.652 59.8034 553.75 63.7473 549.883Z" fill="#4E4D4D"/>
<path d="M14.3452 572.482C16.7387 572.521 19.2405 572.949 21.8852 572.954C32.7233 572.954 38.1877 568.303 46.9219 563.841C46.9246 565.653 46.7079 572.271 46.8746 573.604C35.119 578.466 25.5018 578.566 14.3452 572.482Z" fill="#434242"/>
<path d="M74.0751 538.836C76.4802 539.614 77.1976 539.348 78.3213 541.07L77.9695 543.515L69.347 554.039C65.6098 552.506 66.6585 552.417 63.7471 549.883C67.4781 546.327 71.1581 543.093 74.0751 538.836Z" fill="#434242"/>
<path d="M63.5529 473.929C66.4232 476.047 67.673 476.819 71.4935 476.424C67.4368 479.325 63.2845 482.276 59.5579 485.598C59.1177 482.614 58.572 481.692 57.2583 478.947L63.5529 473.929Z" fill="#434242"/>
<path d="M323.842 62.9029L324.351 62.9407C330.523 63.3603 336.808 62.1706 343.392 62.8079C374.53 65.5273 404.448 76.1978 430.279 93.7957C434.996 96.9557 446.747 105.337 450.308 109.442C505.415 164.952 522.987 241.431 489.799 313.481C483.147 327.918 476.684 337.192 467.259 349.833C459.342 361.635 436.65 380.561 424.53 388.118C388.066 410.856 340.757 422.286 298.241 412.984C275.881 407.922 252.862 400.209 234.148 386.529C215.319 372.765 197.095 358.173 184.421 338.32C182.554 334.369 175.806 325.217 173.303 320.338C168.776 311.525 165.29 302.024 162.164 292.616C148.216 250.631 151.644 203.247 170.784 163.581C187.873 128.165 214.243 99.923 249.54 82.5763C256.668 79.0728 262.889 75.7538 270.554 73.1688C284.816 67.1093 308.179 63.4897 323.842 62.9029Z" fill="#5F5F5E"/>
<path d="M430.167 135.149C433.675 128.648 444.938 114.68 450.308 109.442C505.415 164.952 522.987 241.431 489.799 313.481C483.147 327.918 476.684 337.192 467.259 349.833C465.731 346.86 455.92 332.157 453.224 330.979C449.331 352.8 431.192 367.803 408.801 363.819C407.41 363.569 406.02 363.302 404.632 363.03L404.203 363.024C402.022 362.158 396.753 359.774 395.1 358.196C382.136 345.821 373.275 328.723 362.415 314.521C357.159 307.647 355.652 301.418 357.153 292.955L357.341 291.416C357.604 290.505 357.894 289.605 358.212 288.71C360.902 281.231 367.459 276.241 374.396 272.946L374.558 272.629C374.344 271.151 373.792 268.362 373.655 267.095C373.112 262.11 377.201 252.762 380.226 248.939L380.212 248.458C372.737 239.25 372.804 236.584 372.763 224.747L372.896 223.821L372.758 223.447C374.566 219.361 376.651 215.437 379.712 212.138C384.897 206.552 423.422 184.461 431.132 181.808C435.893 180.17 440.942 180.093 445.918 179.93C452.301 165.219 444.431 141.859 430.167 135.149Z" fill="#A2C034"/>
<path d="M430.167 135.149C433.675 128.648 444.938 114.68 450.308 109.442C505.415 164.952 522.987 241.431 489.799 313.481C483.147 327.918 476.684 337.192 467.259 349.833C465.731 346.86 455.92 332.157 453.224 330.979C453.354 328.996 453.518 327.345 453.755 325.373C453.032 320.26 452.313 317.671 450.892 312.753L450.924 312.176C456.864 310.986 458.584 310.175 463.808 307.052C466.026 305.163 467.693 303.268 469.721 301.285C481.03 290.216 482.986 270.923 475.773 257.159C473.356 252.535 469.788 249.515 466.02 246.03L465.842 245.543C471.188 239.987 475.59 232.284 477.418 224.782C479.663 215.578 478.085 205.858 473.039 197.837C466.376 187.048 457.82 182.721 445.918 179.93C452.301 165.219 444.431 141.859 430.167 135.149Z" fill="#666664"/>
<path d="M463.809 307.052C462.875 309.28 461.311 309.886 459.039 310.814C457.457 311.453 455.863 312.064 454.259 312.642C458.027 320.655 454.745 320.299 454.428 329.195L454.18 329.14C454.132 328.017 454.195 326.284 453.756 325.372C453.033 320.26 452.314 317.671 450.893 312.753L450.924 312.175C456.864 310.986 458.584 310.175 463.809 307.052Z" fill="#2E2E2D"/>
<path d="M372.758 223.447C374.567 219.361 376.651 215.437 379.713 212.138C384.897 206.552 423.422 184.461 431.132 181.809C435.893 180.17 440.942 180.093 445.918 179.93C457.82 182.721 466.376 187.048 473.039 197.837C478.085 205.858 479.663 215.578 477.418 224.782C475.59 232.285 471.188 239.987 465.843 245.543C449.048 235.295 412.168 240.618 392.386 242.019C388.849 242.269 383.291 246.736 380.212 248.458C372.737 239.25 372.804 236.584 372.763 224.747L372.896 223.821L372.758 223.447Z" fill="#A2C034"/>
<path d="M372.758 223.447C374.567 219.361 376.651 215.437 379.713 212.138C384.897 206.552 423.422 184.461 431.132 181.809C435.893 180.17 440.942 180.093 445.918 179.93C444.508 182.847 441.086 189.37 438.066 191.538C422.644 202.604 403.927 214.152 387.123 222.858C383.97 224.491 375.861 223.419 372.896 223.821L372.758 223.447Z" fill="#479442"/>
<path d="M380.212 248.458C383.291 246.736 388.849 242.269 392.386 242.019C412.168 240.618 449.048 235.294 465.843 245.543L466.02 246.03C469.788 249.515 473.356 252.535 475.773 257.159C482.986 270.923 481.03 290.216 469.721 301.285C467.693 303.268 466.026 305.163 463.809 307.052C458.584 310.175 456.864 310.986 450.924 312.176C445.167 296.789 401.768 279.258 385.798 272.14C384.477 271.551 376.561 272.435 374.558 272.629C374.344 271.151 373.793 268.361 373.655 267.095C373.112 262.11 377.201 252.762 380.226 248.939L380.212 248.458Z" fill="#238970"/>
<path d="M380.212 248.458C383.291 246.736 388.849 242.269 392.385 242.019C412.168 240.618 449.048 235.294 465.842 245.543L466.02 246.03C461.756 248.295 457.422 250.964 452.692 252.099C444.162 254.146 397.613 256.843 390.315 254.558C386.718 253.432 383.328 251.029 380.226 248.939L380.212 248.458Z" fill="#479442"/>
<path d="M374.558 272.629C376.561 272.434 384.477 271.551 385.798 272.14C401.768 279.258 445.167 296.789 450.924 312.176L450.893 312.753C447.893 312.542 438.856 313.031 435.76 311.525C418.476 303.129 396.564 294.439 381.045 283.542C378.634 281.847 375.636 275.474 374.396 272.946L374.558 272.629Z" fill="#479442"/>
<path d="M357.153 292.955L357.341 291.416C358.747 294.05 367.523 296.745 369.384 299.662C380.168 316.543 403.453 343.465 404.632 363.03L404.203 363.024C402.022 362.157 396.753 359.774 395.1 358.196C382.136 345.821 373.275 328.723 362.415 314.52C357.159 307.647 355.652 301.418 357.153 292.955Z" fill="#479442"/>
<path d="M219.629 334.241C222.923 326.234 225.039 321.872 231.956 316.465C245.568 305.824 258.172 293.511 272.571 283.942C275.644 281.903 284.314 282.159 286.607 280.675L286.606 281.297C293.846 282.637 299.128 286.209 304.255 291.349C304.534 293.161 304.841 294.967 305.175 296.767L306.218 297.589C316.226 293.872 318.73 295.528 327.88 298.812L331.157 301.312L331.653 301.101C333.837 296.273 342.053 293.778 346.779 292.777C351.217 291.844 352.673 292.049 357.153 292.955C355.653 301.418 357.159 307.647 362.415 314.521C373.275 328.723 382.137 345.821 395.1 358.196C396.753 359.774 402.022 362.158 404.204 363.024L404.633 363.03C406.02 363.302 407.41 363.569 408.801 363.819C431.193 367.803 449.331 352.8 453.225 330.979C455.92 332.157 465.732 346.86 467.26 349.833C459.343 361.635 436.65 380.561 424.53 388.118C388.066 410.856 340.757 422.286 298.241 412.984C275.881 407.922 252.863 400.21 234.149 386.529C215.319 372.765 197.096 358.174 184.422 338.32C190.717 337.908 198.416 341.376 204.319 343.854C209.002 350.155 210.706 341.998 215.382 351.289C217.327 352.067 216.52 352.067 218.344 351.406L218.969 349.961C217.72 344.671 218.545 340.598 217.937 335.43C217.887 335.002 210.516 333.702 209.109 333.069L209.101 332.302C213.325 333.335 215.296 333.724 219.629 334.241Z" fill="#238970"/>
<path d="M219.629 334.241C222.923 326.234 225.038 321.872 231.956 316.465C245.568 305.824 258.171 293.511 272.57 283.942C275.644 281.903 284.314 282.159 286.607 280.675L286.605 281.297C293.846 282.637 299.128 286.209 304.255 291.349C304.534 293.161 304.841 294.967 305.174 296.767L306.218 297.589C307.044 300.573 308.259 306.03 307.26 309.292C301.843 326.956 293.15 346.193 285.467 363.058C283.426 367.542 277.473 372.549 273.813 375.16L273.473 375.06C243.821 388.441 214.396 366.12 219.629 334.241Z" fill="#238970"/>
<path d="M219.629 334.241C222.923 326.234 225.038 321.872 231.956 316.465C245.568 305.824 258.171 293.511 272.57 283.942C275.644 281.903 284.314 282.159 286.607 280.675L286.606 281.297C282.899 297.99 276.64 298.273 264.053 308.38C254.116 316.365 242.175 326.762 230.49 332.763C228.531 333.769 222.085 334.063 219.629 334.241Z" fill="#479442"/>
<path d="M305.175 296.767L306.218 297.589C307.045 300.573 308.26 306.03 307.261 309.292C301.843 326.956 293.15 346.193 285.468 363.058C283.427 367.542 277.474 372.548 273.813 375.16L273.473 375.06C272.722 370.609 271.714 364.98 272.662 360.535C274.014 354.195 293.235 307.48 296.962 302.729C298.901 300.262 302.558 298.417 305.175 296.767Z" fill="#479442"/>
<path d="M453.225 330.979C455.92 332.157 465.732 346.86 467.26 349.833C459.343 361.635 436.65 380.561 424.53 388.118C388.066 410.856 340.757 422.286 298.241 412.984C275.881 407.922 252.863 400.209 234.149 386.529C215.319 372.765 197.096 358.173 184.422 338.32C190.717 337.908 198.416 341.376 204.319 343.854C209.002 350.155 210.706 341.998 215.382 351.289C217.327 352.067 216.52 352.067 218.344 351.405L218.969 349.961C217.72 344.671 218.545 340.598 217.937 335.43C217.887 335.002 210.516 333.702 209.109 333.069L209.101 332.302C213.325 333.335 215.296 333.724 219.629 334.241C214.396 366.119 243.822 388.44 273.473 375.06L273.813 375.16C281.539 396.186 300.593 407.466 322.827 399.937C329.501 397.681 336.625 391.88 340.249 385.807L340.572 385.695C347.531 391.108 350.118 393.564 358.961 395.52C368.797 397.703 378.666 396.32 387.138 390.769C398.301 383.451 401.485 375.255 404.204 363.024L404.633 363.03C406.02 363.302 407.41 363.569 408.801 363.819C431.193 367.803 449.331 352.8 453.225 330.979Z" fill="#50514F"/>
<path d="M306.218 297.589C316.225 293.872 318.729 295.528 327.88 298.812L331.156 301.312C329.321 304.674 327.256 308.114 326.757 311.976C325.793 319.449 331.332 365.831 333.564 373.76C334.932 378.616 339.275 382.717 340.249 385.807C336.624 391.88 329.501 397.681 322.827 399.937C300.593 407.467 281.539 396.187 273.813 375.16C277.473 372.549 283.426 367.542 285.467 363.058C293.15 346.193 301.843 326.956 307.26 309.292C308.26 306.03 307.044 300.573 306.218 297.589Z" fill="#A2C034"/>
<path d="M331.156 301.312L331.652 301.101C334.034 303.335 338.656 309.303 339.22 312.564C342.327 330.529 343.749 350.861 345.356 369.07C346.162 378.199 341.333 381.272 340.571 385.695L340.249 385.806C339.275 382.717 334.932 378.616 333.564 373.76C331.332 365.83 325.793 319.449 326.757 311.975C327.256 308.114 329.321 304.674 331.156 301.312Z" fill="#479442"/>
<path d="M279.692 106.604C289.41 100.728 303.341 101.218 314.23 103.31C316.217 103.691 321.358 105.242 322.326 107.112C321.695 109.151 321.525 108.612 322.085 110.288C323.76 110.556 322.944 110.664 324.57 109.703L325.726 107.756L333.338 112.998C360.483 136.999 362.014 176.77 329.965 196.925C318.683 201.659 311.394 204.315 298.848 202.27C264.933 196.741 247.574 169.895 253.57 136.39C261.168 121.979 259.723 117.311 277.108 107.208C277.967 109.306 278 109.784 280.107 110.588L280.97 109.987C280.991 108.03 280.919 108.564 279.692 106.604Z" fill="#A2C034"/>
<path d="M281.462 134.833C282.584 134.217 283.952 134.254 285.038 134.93C286.125 135.606 286.762 136.816 286.705 138.094C286.648 139.373 285.905 140.521 284.762 141.098C283.038 141.967 280.935 141.295 280.035 139.586C279.135 137.878 279.77 135.763 281.462 134.833Z" fill="#36370D"/>
<path d="M321.347 132.769C326.661 133.557 326.707 137.565 323.421 141.103C320.843 140.28 320.212 139.825 319.257 137.453C319.395 135.242 320.085 134.605 321.347 132.769Z" fill="#36370D"/>
<path d="M309.138 143.944L309.711 144.666C309.623 146.013 309.273 147.006 308.211 147.855C303.456 151.658 300.288 149.791 297.022 146.358L297.06 145.357C299.34 144.417 298.814 147.812 304.678 147.831C306.823 147.079 307.647 145.716 309.138 143.944Z" fill="black"/>
<path d="M333.339 112.998C335.211 108.962 340.739 105.679 344.816 104.36C369.517 96.3707 390.226 107.882 397.229 132.293C410.328 128.015 415.051 128.101 428.393 134.058C429.017 134.337 429.605 134.74 430.167 135.149C444.431 141.859 452.301 165.219 445.918 179.93C440.942 180.093 435.893 180.17 431.132 181.808C423.422 184.461 384.897 206.552 379.713 212.138C376.651 215.437 374.567 219.361 372.758 223.447C362.824 219.175 358.7 216.188 355.325 205.804C352.168 205.846 349.149 205.678 346.004 205.522C339.923 204.595 333.399 202.384 329.965 196.925C362.014 176.77 360.483 136.999 333.339 112.998Z" fill="#238970"/>
<path d="M190.622 209.857C192.568 208.867 200.785 204.085 202.122 204.012C217.691 203.169 236.326 207.476 251.084 212.333C268.126 217.943 280.43 223.398 281.404 242.68C280.675 248.862 277.227 255.42 277.064 257.759L277.492 258.31C274.344 260.31 267.983 265.239 264.807 266.078C255.555 268.517 244.929 270.362 235.355 271.457C221.302 273.068 206.504 278.169 193.343 271.184L191.857 272.234C189.952 268.584 186.677 266.839 184.339 263.927C176.942 254.462 174.233 242.031 177.258 230.395C179.759 220.779 183.789 216.378 190.622 209.857Z" fill="#3B763C"/>
<path d="M193.343 271.184C205.567 258.265 230.898 258.876 247.805 254.759C259.79 251.841 266.301 251.688 277.064 257.759L277.492 258.309C274.345 260.31 267.983 265.238 264.807 266.077C255.555 268.517 244.929 270.362 235.355 271.456C221.302 273.068 206.504 278.169 193.343 271.184Z" fill="#479442"/>
<path d="M277.492 258.309C279.42 260.271 280.829 261.693 282.516 263.86C286.364 270.278 286.564 273.134 286.607 280.675C284.314 282.158 275.644 281.903 272.571 283.942C258.171 293.511 245.568 305.824 231.956 316.465C225.038 321.872 222.923 326.234 219.629 334.241C215.296 333.724 213.325 333.335 209.101 332.302C191.558 322.878 184.29 314.17 183.759 293.822C184.875 284.081 186.967 280.447 191.857 272.234L193.343 271.184C206.504 278.169 221.302 273.068 235.355 271.456C244.929 270.362 255.555 268.517 264.807 266.077C267.983 265.238 274.344 260.31 277.492 258.309Z" fill="#A2C034"/>
<path d="M175.307 263.155C175.035 253.716 176.775 249.666 174.766 239.767C173.337 232.718 182.447 211.94 190.622 209.857C183.789 216.378 179.758 220.779 177.258 230.395C174.233 242.031 176.942 254.462 184.339 263.927C186.677 266.839 189.952 268.584 191.856 272.234C186.967 280.447 184.875 284.081 183.759 293.822C183.367 295.506 183.616 296.795 182.688 298.345C182.758 295.572 182.839 290.66 183.254 288.01C183.914 283.803 188.974 278.402 187.614 273.935C186.544 272.401 186.32 272.301 184.588 271.562C182.853 272.073 183.163 272.384 182.058 274.39L181.281 274.407C180.565 273.629 176.921 265.628 175.307 263.155Z" fill="#2E2E2D"/>
<path d="M277.109 107.208C274.608 102.22 268.612 93.9724 264.745 89.7816C262.421 87.2639 261.3 87.9785 262.317 83.8555C263.796 82.2868 263.106 82.5885 265.003 82.1868C265.361 82.4246 265.719 82.663 266.078 82.9008C268.204 89.9183 274.112 101.83 279.693 106.604C280.919 108.564 280.991 108.03 280.97 109.987L280.107 110.588C278 109.784 277.968 109.307 277.109 107.208Z" fill="#333330"/>
<path d="M322.326 107.112C327.962 103.546 331.808 85.4075 335.981 83.3298C338.144 83.9683 337.86 83.5293 339.079 84.9763C339.019 88.0574 325.981 98.7251 325.726 107.756L324.57 109.703C322.944 110.664 323.76 110.556 322.085 110.288C321.525 108.613 321.694 109.151 322.326 107.112Z" fill="#434242"/>
<path d="M281.404 242.68C283.48 248.883 282.718 253.66 284.618 260.449C284.229 262.321 283.935 262.433 282.516 263.861C280.829 261.694 279.42 260.271 277.492 258.31L277.064 257.759C277.227 255.42 280.675 248.862 281.404 242.68Z" fill="#434242"/>
<path d="M346.005 205.522C349.149 205.677 352.168 205.846 355.325 205.804C358.7 216.188 362.825 219.175 372.758 223.447L372.896 223.821L372.763 224.747C372.115 227.516 372.895 229.548 371.785 232.638L369.937 232.665L369.495 231.944L371.199 231.777C371.839 230.865 372.004 226.512 371.032 225.596C367.74 222.496 363.96 220.035 360.594 216.976C357.014 213.722 353.557 210.293 349.854 207.196C349.235 206.678 345.58 206.529 344.623 206.479L346.005 205.522Z" fill="#2E2E2D"/>
<path d="M304.255 291.349C305.008 288.393 303.477 287.66 301.463 285.487C304.696 285.865 305.696 288.677 306.028 291.394C310.519 292.705 310.175 294.417 311.444 294.555C318.681 295.333 320.862 293.905 327.396 297.834L327.88 298.812C318.73 295.528 316.226 293.872 306.218 297.589L305.175 296.767C304.841 294.967 304.534 293.161 304.255 291.349Z" fill="#717170"/>
</svg>
