<svg width="454" height="342" viewBox="0 0 454 342" fill="none" xmlns="http://www.w3.org/2000/svg">
<path d="M323.248 48.1145C324.212 47.81 323.666 48.0473 324.426 47.5883C348.541 33.0038 367.516 35.3176 392.937 39.0861C392.295 41.2076 391.671 42.3145 392.47 44.3127L393.533 45.035C395.448 44.2466 395.71 43.6803 396.63 41.5166C399.325 42.3478 404.788 44.1582 406.961 45.9047C420.298 52.2242 432.451 63.4286 440.381 75.8205C463.421 112.18 455.469 163.119 417.669 186.307C408.467 191.947 401.381 194.309 390.794 196.553C391.257 215.007 389.512 227.004 376.01 241.246L375.61 241.662L375.655 241.946C374.375 242.457 362.183 250.642 358.674 252.531C347.475 255.532 340.603 256.743 328.807 255.026L328.469 254.626C327.71 251.014 327.256 243.013 324.972 240.29C318.072 232.06 313.419 222.881 307.754 214.029C297.782 198.754 287.704 183.551 277.519 168.42C270.733 158.218 263.545 146.542 255.313 137.539C252.04 133.961 246.495 132.038 241.955 130.702L241.85 130.393C246.035 101.747 265.157 87.0455 293.366 85.8175C299.416 68.7791 305.96 61.1648 319.718 49.9288L320.611 50.705C321.63 48.7291 321.001 49.3842 323.083 48.3029L323.248 48.1145Z" fill="#A3C12B"/>
<path d="M293.366 85.8174C292.745 87.9634 291.944 91.0484 291.18 93.056C290.71 96.794 290.249 100.476 290.093 104.248C289.511 106.602 289.427 110.626 289.289 113.183C290.306 167.831 337.559 204.744 390.794 196.553C391.257 215.007 389.512 227.004 376.01 241.246L375.61 241.662L375.655 241.946C374.375 242.457 362.183 250.642 358.674 252.531C347.475 255.532 340.603 256.743 328.807 255.026L328.469 254.626C327.71 251.014 327.256 243.013 324.972 240.29C318.072 232.06 313.419 222.881 307.754 214.029C297.782 198.754 287.704 183.551 277.519 168.42C270.733 158.218 263.545 146.541 255.313 137.539C252.04 133.961 246.495 132.038 241.955 130.702L241.85 130.393C246.035 101.747 265.157 87.0454 293.366 85.8174Z" fill="#1E8369"/>
<path d="M289.289 113.183C285.177 109.549 286.468 94.9888 291.18 93.0562C290.71 96.7941 290.249 100.477 290.093 104.248C289.511 106.602 289.427 110.626 289.289 113.183Z" fill="#357A3A"/>
<path d="M406.96 45.9048C420.298 52.2244 432.451 63.4287 440.381 75.8206C438.386 75.3083 435.541 73.8458 434.552 72.1766C431.757 67.459 408.277 48.7676 406.96 45.9048Z" fill="#98BA2E"/>
<path d="M320.611 50.7051C321.631 48.7292 321.001 49.3843 323.083 48.303C324.838 49.5738 325.547 49.93 326.496 51.9465C326.579 54.0291 326.847 53.3973 325.853 54.9226C323.494 55.3271 322.967 54.5303 321.519 52.7622L320.611 50.7051Z" fill="black"/>
<path d="M379.3 102.273C379.852 102.565 380.359 103.003 380.863 103.39C381.35 105.29 380.385 107.297 379.734 109.279C374.373 114.854 368.981 116.628 362.779 110.914C361.178 108.684 361.215 108.733 361.156 106.384L362.014 105.786C365.184 106.6 364.091 106.996 366.445 108.825C373.633 114.408 376.32 106.723 379.3 102.273Z" fill="#3D3B23"/>
<path d="M397.549 83.188C400.336 82.0406 403.526 83.3742 404.671 86.1642C405.81 88.9547 404.471 92.1415 401.676 93.2772C398.893 94.4102 395.717 93.075 394.578 90.2928C393.44 87.5106 394.769 84.3316 397.549 83.188Z" fill="#23211D"/>
<path d="M334.967 93.3873C337.656 92.4127 340.642 93.6846 341.802 96.2996C342.963 98.914 341.903 101.981 339.376 103.321C337.576 104.277 335.393 104.147 333.718 102.986C332.044 101.826 331.157 99.8274 331.419 97.807C331.682 95.7867 333.051 94.0813 334.967 93.3873Z" fill="#23211D"/>
<path d="M201.257 151.411C212.027 136.369 223.064 129.377 241.85 130.393L241.954 130.702C246.495 132.038 252.04 133.961 255.312 137.539C263.545 146.541 270.733 158.218 277.519 168.42C287.703 183.551 297.781 198.754 307.753 214.029C313.419 222.881 318.072 232.06 324.972 240.29C327.255 243.013 327.71 251.014 328.469 254.626L328.807 255.026C327.238 257.382 327.004 264.606 325.848 267.845C319.378 285.988 305.893 293.984 289.093 300.946C285.87 301.179 276.338 302.63 274.314 302.43C273.625 302.224 267.875 301.746 266.276 301.463C254.562 299.368 247.899 295.334 239.884 286.838L239.577 287.616C234.206 300.513 230.031 308.103 217.236 315.393C210.533 318.583 206.686 319.794 199.494 321.761C175.05 324.112 157.904 314.527 145.797 293.284L145.851 292.906C154.571 278.358 154.532 266.078 156.828 249.581C159.007 232.972 161.577 216.413 164.536 199.921C167.288 184.379 170.32 170.448 160.718 156.724L160.616 156.496C174.403 148.161 185.323 146.791 200.909 151.417L201.257 151.411Z" fill="#98BA2E"/>
<path d="M160.616 156.496C174.403 148.161 185.323 146.791 200.909 151.417L201.257 151.411C218.714 157.657 219.855 177.489 223.264 193.164L232.493 234.95C235.782 249.775 243.646 272.563 239.884 286.838L239.577 287.616C234.206 300.513 230.031 308.103 217.236 315.393C210.533 318.583 206.686 319.794 199.494 321.761C175.05 324.112 157.904 314.526 145.797 293.283L145.851 292.906C154.571 278.358 154.532 266.078 156.828 249.58C159.007 232.972 161.577 216.413 164.536 199.921C167.288 184.379 170.32 170.448 160.718 156.723L160.616 156.496Z" fill="#1E8369"/>
<path d="M200.91 151.417L201.258 151.411C218.714 157.657 219.855 177.489 223.264 193.164L232.493 234.95C235.782 249.775 243.646 272.563 239.884 286.838L239.577 287.616C237.229 286.221 234.149 279.892 233.074 277.191C221.116 247.13 208.686 217.23 197.321 186.941C192.386 173.794 196.48 163.653 200.91 151.417Z" fill="#357A3A"/>
<path d="M241.955 130.702C246.495 132.037 252.04 133.961 255.313 137.539C263.545 146.541 270.733 158.218 277.519 168.42C287.704 183.551 297.782 198.754 307.754 214.029C313.419 222.881 318.072 232.06 324.972 240.29C327.256 243.012 327.71 251.014 328.469 254.626C310.062 251.781 306.703 243.335 297.16 229.382L273.738 194.431C266.621 184.19 259.556 173.91 252.543 163.591C243.172 149.85 239.98 148.255 241.955 130.702Z" fill="#357A3A"/>
<path d="M51.5711 267.934C50.9076 267.99 50.2424 268.018 49.5767 268.012C36.1183 267.901 23.887 262.322 14.5332 252.581C-15.5455 221.247 5.77066 167.42 35.8249 144.118C46.1179 136.136 56.3581 132.557 69.3718 132.92C83.387 133.238 96.6853 139.18 106.272 149.406C125.817 138.251 144.478 140.946 160.617 156.496L160.718 156.724C170.32 170.449 167.288 184.379 164.537 199.921C161.577 216.413 159.007 232.972 156.828 249.581C154.532 266.078 154.572 278.358 145.851 292.906L145.797 293.284C141.781 297.529 138.847 300.68 133.978 304.058C115.874 316.61 91.4004 314.799 74.7523 300.641C73.5669 299.635 72.3555 297.59 70.855 297.351L70.4233 299.035C69.9765 294.062 64.5154 289.205 61.3078 284.132C61.0111 283.087 59.519 280.359 59.0183 278.959C57.784 275.502 56.8999 272.168 56.0035 268.623C54.7971 267.768 53.1188 267.962 51.5711 267.934Z" fill="#98BA2E"/>
<path d="M51.5711 267.934C50.9076 267.99 50.2424 268.018 49.5767 268.012C36.1183 267.901 23.887 262.322 14.5332 252.581C-15.5455 221.247 5.77066 167.42 35.8249 144.118C46.1179 136.136 56.3581 132.557 69.3718 132.92C83.387 133.238 96.6853 139.18 106.272 149.406L107.808 151.367C107.414 154.573 96.1173 176.444 93.735 181.729C83.926 203.483 73.6403 225.62 63.3412 247.175C60.5904 252.931 57.5579 263.189 55.5401 267.14C53.8412 267.74 53.3778 267.768 51.5711 267.934Z" fill="#357A3A"/>
<path d="M145.851 292.906C145.102 291.578 144.381 290.233 143.687 288.877C137.953 277.753 140.559 263.067 141.465 250.792C142.497 236.317 143.678 221.853 145.006 207.406C145.922 196.676 146.377 185.696 147.806 175.022C148.703 168.326 154.695 159.824 160.718 156.724C170.32 170.449 167.288 184.379 164.536 199.921C161.577 216.413 159.007 232.972 156.828 249.581C154.532 266.078 154.571 278.358 145.851 292.906Z" fill="#357A3A"/>
<path d="M133.169 307.875C140.462 306.264 147.692 310.826 149.388 318.094C151.083 325.368 146.613 332.652 139.36 334.436C134.59 335.609 129.558 334.125 126.185 330.552C122.814 326.985 121.623 321.873 123.068 317.177C124.513 312.487 128.372 308.931 133.169 307.875Z" fill="#357A3A"/>
<path d="M70.423 299.035C69.2415 306.997 63.0358 312.198 54.9202 311.065C51.5458 310.592 48.4989 308.792 46.4533 306.069C38.5699 295.767 46.4655 281.676 61.3075 284.132C64.5151 289.205 69.9762 294.061 70.423 299.035Z" fill="#357A3A"/>
<path d="M274.314 302.43C276.338 302.63 285.87 301.179 289.094 300.946C308.062 314.426 287.808 334.969 274.07 323.45C271.451 321.267 269.862 318.088 269.687 314.682C269.429 309.787 271.602 306.264 274.314 302.43Z" fill="#357A3A"/>
<path d="M375.655 241.946C383.147 244.969 388.695 252.32 384.811 260.494C383.077 264.078 380.005 266.84 376.255 268.184C365.051 272.118 358.011 263.461 358.674 252.531C362.183 250.642 374.375 242.457 375.655 241.946Z" fill="#357A3A"/>
<path d="M217.237 315.393C220.935 318.049 223.801 320.117 224.653 324.962C226.031 332.797 221.79 339.954 213.66 341.115C209.817 341.687 205.906 340.671 202.83 338.292C197.424 334.075 197.101 327.662 199.494 321.761C206.686 319.794 210.534 318.583 217.237 315.393Z" fill="#357A3A"/>
<path d="M392.936 39.0861C395.534 33.4217 406.288 11.359 404.899 6.58199C404.41 4.90444 404.071 3.84257 404.726 2.18558C410.267 -3.95284 417.986 4.29543 410.456 9.07525C409.867 9.44477 409.272 9.80373 408.672 10.1516C404.76 18.7799 399.664 32.4415 396.63 41.5166C395.709 43.6803 395.448 44.2466 393.533 45.0351L392.469 44.3127C391.67 42.3145 392.295 41.2076 392.936 39.0861Z" fill="#23211D"/>
<path d="M319.718 49.9288C313.044 41.7499 305.521 31.5219 298.162 23.8737C295.734 21.351 293.009 23.4725 291.298 18.4354C291.851 12.5715 301.631 9.25862 300.591 20.0452C302.885 25.1801 318.615 42.7957 323.248 48.1145L323.083 48.3029C321.001 49.3842 321.631 48.7291 320.611 50.705L319.718 49.9288Z" fill="#23211D"/>
</svg>
