<svg width="511" height="379" viewBox="0 0 511 379" fill="none" xmlns="http://www.w3.org/2000/svg">
<path d="M356.03 51.6955C360.9 50.1695 364.924 46.894 369.659 45.3642C390.253 38.7113 407.223 39.3153 427.822 45.0987C426.703 47.6378 426.355 47.3843 426.679 49.7816L427.584 50.8211C429.302 50.8711 428.622 51.04 430.139 49.9448C430.465 49.2404 431.262 47.6313 431.499 46.9787C476.25 65.8319 498.435 112.262 480.805 158.539C472.079 181.455 450.979 197.206 427.661 203.683C425.146 204.379 421.155 204.588 418.902 205.466C420.193 223.458 417.736 235.169 405.604 249.268C395.015 261.576 374.261 269.673 358.373 265.654C352.472 297.744 325.89 315.64 293.791 311.216C283.89 309.849 278.292 305.865 270.298 300.622L270.177 300.334C273.29 285.19 262.303 255.044 259.209 238.879C255.769 222.873 251.564 207.129 247.667 191.248C244.609 178.789 242.77 156.422 230.567 148.931L228.379 147.525C241.257 131.193 251.479 124.009 273.147 123.911C277.073 109.731 283.706 99.0496 296.741 91.6309C306.214 86.2387 315.792 85.9247 326.307 85.7333C330.817 78.1274 331.15 73.5694 338.528 66.3777C339.552 64.4058 349.294 56.4944 351.881 53.9988L351.482 52.5476L351.974 52.0024C352.594 52.8453 352.608 52.8392 353.432 53.4915C353.715 52.2187 353.517 52.404 352.975 50.9339L354.151 49.9798L356.03 51.6955Z" fill="#A3C12B"/>
<path d="M228.379 147.525C241.257 131.193 251.48 124.009 273.147 123.911L273.256 124.646C271.075 132.492 270.393 139.173 274.883 146.593C287.234 167.002 299.085 187.761 311.02 208.42L327.27 236.201C337.092 253.034 338.239 259.754 358.373 265.654C352.473 297.744 325.891 315.64 293.792 311.216C283.891 309.849 278.292 305.865 270.298 300.622L270.177 300.334C273.29 285.19 262.304 255.044 259.21 238.879C255.769 222.873 251.564 207.129 247.667 191.248C244.609 178.789 242.77 156.422 230.567 148.931L228.379 147.525Z" fill="#A3C12B"/>
<path d="M273.147 123.911C277.073 109.731 283.706 99.0496 296.741 91.631C306.214 86.2387 315.792 85.9247 326.307 85.7333C324.655 90.5131 321.688 98.336 321.336 103.064C313.817 136.757 332.147 177.774 362.776 193.727C365.129 194.952 374.155 199.05 375.64 200.197C388.839 204.485 392.551 204.958 406.516 205.716C410.505 205.804 414.996 206.057 418.902 205.466C420.193 223.458 417.737 235.169 405.604 249.268C395.016 261.576 374.262 269.673 358.373 265.654C338.238 259.754 337.092 253.034 327.27 236.201L311.02 208.42C299.085 187.761 287.233 167.002 274.883 146.592C270.393 139.173 271.075 132.492 273.256 124.646L273.147 123.911Z" fill="#208564"/>
<path d="M273.256 124.646C275.247 126.312 279.232 129.175 279.495 131.615L278.521 131.749C277.071 129.798 276.926 128.788 275.022 127.949C268.833 129.755 274.9 145.477 277.135 148.875C293.439 173.668 306.992 200.673 322.25 226.13C328.182 236.027 340.934 261.817 352.956 262.813C357.033 260.988 355.955 256.874 356.026 253.145C356.086 250.033 351.455 246.932 350.9 244.161C354.421 244.482 360.011 252.344 359.32 255.686C358.559 259.356 358.495 261.942 358.373 265.654C338.238 259.754 337.092 253.035 327.27 236.201L311.02 208.421C299.085 187.761 287.233 167.003 274.883 146.593C270.393 139.174 271.074 132.493 273.256 124.646Z" fill="#368B3F"/>
<path d="M375.641 200.197C388.84 204.485 392.552 204.958 406.516 205.716C404.663 212.164 384.499 205.177 379.676 203.698C377.622 203.065 376.582 202.146 375.641 200.197Z" fill="#368B3F"/>
<path d="M351.483 52.5477L351.974 52.0024C352.594 52.8453 352.608 52.8392 353.432 53.4915C353.715 52.2187 353.517 52.404 352.975 50.9339L354.151 49.9798L356.03 51.6955C357.91 53.9245 359.992 55.5338 359.222 58.5417C355.755 59.9401 353.669 56.4244 351.881 53.9988L351.483 52.5477Z" fill="black"/>
<path d="M365.972 97.8514C368.725 96.5923 371.978 97.7962 373.248 100.544C374.518 103.292 373.327 106.549 370.583 107.83C367.825 109.118 364.545 107.918 363.268 105.155C361.991 102.392 363.203 99.1174 365.972 97.8514Z" fill="#2C2B0F"/>
<path d="M430.805 89.2802C433.631 88.3264 436.703 89.8122 437.713 92.6211C438.718 95.4307 437.29 98.5296 434.504 99.5889C432.651 100.293 430.562 99.9419 429.043 98.6703C427.523 97.3994 426.81 95.4061 427.175 93.4585C427.541 91.5115 428.926 89.9136 430.805 89.2802Z" fill="#2C2B0F"/>
<path d="M411.317 108.319C412.41 108.471 412.345 108.559 413.163 109.339C413.599 117.496 402.002 123.454 394.791 116.236C393.296 114.185 392.486 113.147 393.559 110.925C396.388 111.613 400.097 116.485 404.805 115.904C408.244 114.343 409.402 111.564 411.317 108.319Z" fill="#2C2B0F"/>
<path d="M189.742 147.902C201.808 143.205 214.625 142.218 226.777 147.19L228.379 147.525L230.567 148.931C242.77 156.422 244.609 178.789 247.667 191.249C251.564 207.129 255.769 222.873 259.209 238.88C262.303 255.044 273.29 285.191 270.177 300.335L270.298 300.622C260.89 316.115 253.094 325.238 234.108 329.766C221.423 332.825 208.041 330.662 196.966 323.759C194.402 322.168 191.66 320.217 189.171 318.477L187.653 317.401C170.474 336.817 147.093 341.019 123.504 331.365C117.103 327.503 113.078 323.246 107.415 318.486C105.617 316.973 105.521 317.192 103.655 317.398L103.352 317.31C88.6816 322.268 77.9528 323.746 62.5787 318.117C48.3775 313.185 35.1302 299.622 29.7589 285.362C16.0212 248.886 22.8307 189.903 60.6787 169.989C78.0581 160.843 96.7282 162.229 114.443 169.346C120.614 163.128 121.86 159.01 132.132 155.48C149.14 149.635 158.477 152.228 173.719 159.277L174.173 158.784C180.145 155.068 179.349 151.947 189.742 147.902Z" fill="#208564"/>
<path opacity="0.4" d="M103.352 317.31C88.6819 322.268 77.9531 323.745 62.5789 318.117C48.3777 313.185 35.13 299.622 29.7586 285.362C16.0209 248.885 22.8308 189.903 60.679 169.989C78.0586 160.843 96.7284 162.229 114.443 169.346C115.475 171.515 114.34 172.078 114.164 174.616C113.673 181.722 113.687 188.892 113.103 195.982C109.548 236.044 106.904 276.18 105.173 316.359L103.352 317.31Z" fill="#336E36"/>
<path d="M132.133 155.479C149.141 149.634 158.477 152.228 173.718 159.278C165.008 169.679 165.633 178.16 166.943 191.025C170.039 221.432 173.184 251.835 176.138 282.259C177.506 296.348 176.616 307.071 187.654 317.401C170.743 336.514 147.822 340.884 124.609 331.807L123.504 331.365L122.911 331.002C116.85 327.236 112.9 323.097 107.415 318.486C105.617 316.973 105.522 317.191 103.656 317.398L103.353 317.31L105.173 316.359C106.904 276.179 109.548 236.044 113.103 195.981C113.687 188.892 113.673 181.721 114.164 174.615C114.339 172.078 115.475 171.515 114.443 169.346C120.615 163.128 121.86 159.009 132.133 155.479ZM117.948 333.356C118.038 333.447 118.127 333.541 118.215 333.636C118.127 333.541 118.038 333.447 117.948 333.356Z" fill="#A3C12B"/>
<path d="M173.718 159.277L174.173 158.784C187.211 172.932 185.764 181.364 187.136 199.369L190.561 250.751C190.829 255.475 190.526 261.211 190.939 265.756C192.184 279.456 193.577 292.72 193.406 306.519C193.36 310.295 189.372 315.818 189.171 318.477L187.653 317.401C176.616 307.07 177.506 296.348 176.137 282.259C173.183 251.835 170.039 221.433 166.943 191.025C165.633 178.16 165.008 169.679 173.718 159.277Z" fill="#368B3F"/>
<path d="M226.777 147.19L228.379 147.525L230.567 148.931C242.77 156.422 244.609 178.789 247.667 191.248C251.564 207.129 255.769 222.873 259.21 238.879C262.304 255.044 273.29 285.19 270.177 300.334C266.752 298.038 264.892 294.909 263.197 291.174C250.811 263.855 241.9 235.211 230.98 207.34C225.91 194.405 216.055 170.185 224.62 157.28C225.759 154.401 225.882 150.6 226.777 147.19Z" fill="#368B3F"/>
<path d="M226.777 147.19L228.379 147.525L230.567 148.931C231.589 154.992 230.563 155.65 224.62 157.28C225.759 154.401 225.882 150.6 226.777 147.19Z" fill="#368B3F"/>
<path d="M241.065 326.698C248.23 324.362 255.95 328.171 258.459 335.274C260.968 342.377 257.35 350.19 250.307 352.87C245.597 354.662 240.286 353.76 236.43 350.518C232.575 347.27 230.781 342.193 231.744 337.247C232.707 332.301 236.275 328.265 241.065 326.698Z" fill="#336E36"/>
<path d="M311.116 311.299C318.281 308.963 326.001 312.772 328.51 319.875C331.019 326.978 327.401 334.791 320.358 337.47C315.648 339.262 310.337 338.361 306.481 335.119C302.626 331.871 300.832 326.794 301.795 321.848C302.758 316.902 306.326 312.866 311.116 311.299Z" fill="#336E36"/>
<path d="M402.454 248.167C409.619 245.831 417.339 249.639 419.848 256.742C422.357 263.845 418.739 271.658 411.696 274.338C406.986 276.13 401.674 275.228 397.819 271.986C393.964 268.738 392.17 263.661 393.133 258.715C394.095 253.769 397.664 249.733 402.454 248.167Z" fill="#336E36"/>
<path d="M175.766 331.058C182.876 328.208 190.944 331.68 193.767 338.802C196.59 345.918 193.091 353.974 185.962 356.776C178.867 359.563 170.855 356.084 168.046 349C165.236 341.91 168.688 333.887 175.766 331.058Z" fill="#336E36"/>
<path d="M121.355 338.268C125.368 355.567 105.841 362.726 97.5224 351.591C95.1885 348.451 94.2293 344.502 94.8632 340.64C96.3154 331.396 103.892 328.078 112.407 329.523C117.694 332.71 118.323 333.067 121.355 338.268Z" fill="#336E36"/>
<path d="M427.822 45.0988C431.842 35.4881 437.786 23.6264 441.195 13.7256C441.738 12.145 437.573 8.43562 443.429 5.55027C444.434 5.0547 446.097 5.35447 447.019 5.81861C448.338 6.48075 449.307 7.68733 449.665 9.12302C450.594 12.9591 447.77 14.744 444.524 15.4499C440.072 25.9115 435.727 36.4223 431.499 46.9787C431.262 47.6313 430.465 49.2404 430.139 49.9448C428.622 51.04 429.302 50.8711 427.584 50.8211L426.679 49.7816C426.355 47.3843 426.703 47.6378 427.822 45.0988Z" fill="#1D1C1C"/>
<path d="M351.483 52.5478C347.077 49.5736 337.531 33.8074 332.974 29.1317C329.354 25.4179 324.366 26.1744 324.486 20.843C325.456 18.587 327.569 16.2099 330.283 16.872C335.052 17.7193 333.314 23.0735 334.47 24.9174C339.515 32.9692 348.573 42.3461 354.151 49.98L352.975 50.9341C353.518 52.4042 353.715 52.2188 353.432 53.4916C352.608 52.8394 352.594 52.8455 351.974 52.0026L351.483 52.5478Z" fill="#1D1C1C"/>
</svg>
