<svg width="500" height="500" viewBox="0 0 500 500" fill="none" xmlns="http://www.w3.org/2000/svg">
<path d="M235.937 128.72C256.355 129.012 282.574 120.968 303.35 118.965C314.806 117.861 326.762 115.741 338.115 113.874C339.004 113.728 338.972 113.486 340.174 113.488L351.947 115.924C348.798 122.634 348.616 122.687 348.452 129.989L348.444 130.468C351.147 141.029 355.499 145.212 366.276 147.858C363.344 152.779 362.37 154.524 361.186 160.173C361.799 164.615 361.933 167.213 364.246 171.147L368.239 170.484C369.435 168.605 368.399 161.644 371.554 155.888C379.036 142.236 387.142 139.385 400.705 134.657L401.293 136.323L402.283 135.216C414.633 137.151 424.138 138.121 432.467 149.131C434.41 151.7 435.943 155.945 437.699 157.872L437.63 158.307L438.109 160.607L438.513 160.569C444.171 182.511 433.404 198.318 412.504 205.291C412.615 210.031 412.477 213.452 412.168 218.189C411.301 220.58 410.646 221.352 409.065 223.291C409.119 224.332 409.012 224.379 409.64 225.173C411.471 226.283 415.793 230.09 418.252 231.841L418.981 232.074L424.803 233.248C429.923 232.747 431.728 232.404 436.47 230.484L436.039 329.174C435.937 345.199 435.043 373.657 436.502 389.092C429.689 391.838 413.728 394.18 405.856 395.75C384.291 400.258 362.674 404.51 341.009 408.507C340.136 408.736 295.797 400.322 290.435 399.667C273.968 397.661 255.456 394.233 238.741 392.056C226.623 393.232 214.297 395.702 202.315 397.746C190.761 399.72 178.936 401.242 167.327 403.036C157.461 404.558 143.554 408.044 133.635 407.635C123.813 405.319 111.221 403.558 101.08 401.53C88.7492 399.06 77.0647 396.809 64.7693 393.935C54.5288 391.54 50.9049 392.924 40.608 387.868L40.5654 131.764C54.9908 130.68 74.0678 125.049 88.6614 122.214L121.752 115.686C123.051 115.438 133.522 113.635 134.463 113.674C156.641 115.543 180.08 120.092 202.18 123.296C210.885 124.558 227.952 128.384 235.937 128.72Z" fill="#9DC1CD"/>
<path d="M235.937 128.72C256.356 129.012 282.574 120.968 303.35 118.965C314.806 117.861 326.763 115.741 338.116 113.874C339.004 113.728 338.973 113.486 340.174 113.488L351.947 115.924C348.798 122.634 348.616 122.687 348.452 129.989L348.444 130.468C351.148 141.029 355.499 145.212 366.276 147.858C363.344 152.779 362.37 154.524 361.186 160.173C361.8 164.615 361.933 167.213 364.247 171.147L368.24 170.484C369.435 168.605 368.399 161.644 371.554 155.888C379.037 142.236 387.142 139.385 400.705 134.657L401.293 136.323L402.284 135.216C414.633 137.151 424.138 138.121 432.468 149.131C434.41 151.7 435.943 155.945 437.699 157.872L437.63 158.307L438.109 160.607L438.514 160.569C444.171 182.511 433.404 198.318 412.504 205.291C412.616 210.031 412.477 213.452 412.169 218.189C411.301 220.58 410.646 221.352 409.066 223.291C409.119 224.332 409.013 224.379 409.641 225.173C411.471 226.283 415.793 230.09 418.252 231.841L418.981 232.074L424.804 233.248C429.924 232.747 431.728 232.404 436.47 230.484L436.039 329.174C435.938 345.199 435.044 373.657 436.502 389.092C429.689 391.838 413.728 394.18 405.857 395.75C384.291 400.258 362.674 404.51 341.009 408.507C340.136 408.736 295.798 400.322 290.435 399.667C273.968 397.661 255.456 394.233 238.742 392.056C239.181 388.591 238.92 379.709 238.9 375.839C238.647 354.641 238.57 333.602 238.916 312.403C238.987 308.066 238.194 294.159 239.13 290.986C238.484 290.444 236.513 290.305 235.494 290.146C236.637 290.039 237.472 289.863 238.584 289.64C239.247 286.755 238.926 271.8 238.877 267.856L238.241 266.632C237.765 256.738 238.859 246.04 238.483 235.178L239.883 234.921C237.209 233.532 240.16 230.639 235.806 225.151L238.581 224.278C238.345 221.835 238.447 217.524 238.431 214.942C236.315 214.652 234.019 212.368 233.615 210.331L234.074 209.205C235.567 206.903 236.076 206.55 238.477 205.457C239.445 205.533 240.138 205.193 241.122 204.897L240.13 204.446C239.038 202.553 239.259 199.009 239.473 196.874L240.431 196.193C238.251 193.824 238.928 191.16 239.146 188.134C238.438 183.156 238.512 175.906 238.488 170.87C239.25 164.18 238.947 152.477 238.943 145.549C238.965 141.106 239.514 134.496 238.556 130.325C238.307 129.241 237.12 129.139 235.937 128.72Z" fill="#C7E2E5"/>
<path d="M402.284 135.217C414.633 137.151 424.138 138.121 432.468 149.131C434.41 151.7 435.943 155.945 437.699 157.872L437.63 158.307L438.109 160.607L438.514 160.569C444.171 182.511 433.404 198.318 412.504 205.291C412.616 210.031 412.477 213.452 412.169 218.189C411.301 220.58 410.646 221.352 409.066 223.292C409.119 224.332 409.013 224.379 409.641 225.173C411.471 226.283 415.793 230.09 418.252 231.841L418.981 232.074L424.804 233.248C429.924 232.747 431.728 232.404 436.47 230.484L436.039 329.174C435.938 345.199 435.044 373.657 436.502 389.092C429.689 391.838 413.728 394.18 405.857 395.75C384.291 400.258 362.674 404.51 341.009 408.507C340.845 408.476 339.431 408.028 339.418 407.938C338.77 403.494 341.44 395.409 339.574 391.487C338.56 374.147 339.59 352.001 339.576 334.432L339.521 299.603C339.45 292.855 338.457 269.596 340.586 264.519C340.09 262.305 340.51 263.135 338.335 261.368C340.214 256.291 339.372 244.273 339.417 238.296C339.501 227.255 339.916 216.233 340.093 205.212L339.41 205.327C339.288 195.043 339.978 182.553 339.354 172.6C340.076 171.511 340.518 170.769 341.126 169.613L340.887 168.245C346.488 163.37 351.423 162.177 358.355 160.49L360.951 160.129L361.186 160.173C361.8 164.615 361.933 167.213 364.247 171.147L368.24 170.485C369.435 168.605 368.399 161.644 371.554 155.888C379.037 142.236 387.142 139.386 400.705 134.657L401.293 136.323L402.284 135.217Z" fill="#9DC1CD"/>
<path d="M402.284 135.217C414.633 137.151 424.138 138.121 432.468 149.131C434.41 151.7 435.943 155.945 437.699 157.872L437.63 158.307L438.109 160.607L438.514 160.569C444.171 182.511 433.404 198.318 412.504 205.291C412.616 210.031 412.477 213.452 412.169 218.189C405.063 214.391 408.853 211.491 407.293 205.83C404.206 205.952 401.569 205.82 398.503 205.675C397.569 205.053 394.789 204.328 393.579 203.963C392.671 207.107 391.68 210.93 390.634 213.974C383.94 211.542 384.28 213.53 377.894 212.306C376.097 211.962 369.666 207.167 367.51 207.431C365.687 210.075 366.65 211.378 364.82 212.337C360.443 212.138 358.983 210.512 355.395 214.429C350.114 211.43 346.499 209.631 341.905 205.168C341.533 204.807 340.684 205.116 340.093 205.212L339.41 205.327C339.288 195.043 339.978 182.553 339.354 172.6C340.076 171.511 340.517 170.769 341.126 169.613L340.887 168.245C346.487 163.37 351.423 162.177 358.354 160.49L360.951 160.129L361.186 160.173C361.799 164.615 361.933 167.213 364.247 171.147L368.239 170.485C369.435 168.605 368.399 161.644 371.554 155.888C379.037 142.236 387.142 139.386 400.705 134.657L401.293 136.323L402.284 135.217Z" fill="#A2C03E"/>
<g filter="url(#filter0_d_177_304)">
<path d="M360.951 160.129L361.186 160.173C361.799 164.615 361.933 167.213 364.247 171.147C370.125 179.626 376.187 180.478 386.097 180.075C382.79 188.848 384.093 199.844 393.579 203.963C392.671 207.107 391.68 210.93 390.634 213.974C383.94 211.542 384.28 213.53 377.894 212.306C376.097 211.962 369.666 207.167 367.51 207.431C365.687 210.075 366.65 211.378 364.82 212.337C360.443 212.138 358.983 210.512 355.395 214.429C350.114 211.43 346.499 209.631 341.905 205.168C341.533 204.807 340.684 205.116 340.093 205.212L339.41 205.327C339.288 195.043 339.978 182.553 339.354 172.6C340.076 171.511 340.517 170.769 341.126 169.613L340.887 168.245C346.487 163.37 351.423 162.177 358.354 160.49L360.951 160.129Z" fill="#508F44"/>
</g>
<path d="M437.63 158.307L438.109 160.607C436.597 162.721 435.693 164.659 433.271 165.184L433.053 164.266C433.75 161.846 435.82 160.136 437.63 158.307Z" fill="#262623"/>
<path d="M400.705 134.657L401.293 136.323C400.247 138.38 399.007 141.272 397.144 142.48L396.818 141.693C397.316 139.109 399.177 136.845 400.705 134.657Z" fill="#050604"/>
<g filter="url(#filter1_d_177_304)">
<path d="M424.803 233.248C429.923 232.747 431.728 232.404 436.47 230.484L436.039 329.174C435.938 345.199 435.043 373.657 436.502 389.092C429.689 391.838 413.728 394.18 405.856 395.75C384.291 400.258 362.674 404.51 341.009 408.507C340.845 408.475 339.431 408.028 339.418 407.938C338.77 403.494 341.44 395.409 339.574 391.487C341.97 391.556 351.302 389.752 354.449 389.315C376.744 386.228 396.382 379.139 419.156 378.021C419.3 373.045 419.513 368.101 419.337 363.124L419.359 357.174C419.141 351.181 420.727 327.444 417.735 324.346L419.46 320.988C420.679 310.333 417.363 236.713 421.179 233.115C422.792 233.609 423.143 233.561 424.803 233.248Z" fill="#BACCD0"/>
</g>
<g filter="url(#filter2_d_177_304)">
<path d="M393.579 203.963C394.789 204.328 397.569 205.053 398.503 205.675C401.569 205.82 404.206 205.952 407.293 205.83C408.853 211.491 405.063 214.391 412.168 218.189C411.301 220.58 410.646 221.352 409.066 223.291C409.119 224.332 409.012 224.379 409.64 225.173C407.937 230.215 406.043 227.23 405.872 234.983L402.905 234.6L402.826 240.148C402.237 238.589 401.993 238.041 401.722 236.413L400.743 235.331C399.317 235.747 399.118 236.402 398.265 237.966C397.94 238.562 397.621 239.164 397.31 239.77C401.189 248.488 401.335 255.194 394.546 262.438C392.467 262.991 390.006 263.784 387.902 263.891C387.112 264.003 386.05 264.104 385.314 264.333C382.961 265.227 383.008 265.668 382.017 268.127C379.287 265.716 376.587 263.273 373.917 260.804C373.218 257.291 372.412 253.8 371.5 250.335L365.188 254.401C358.049 252.129 356.126 251.969 351.148 246.583C351.691 235.105 348.535 241.793 344.843 232.55L349.299 228.898C350.654 224.452 353.415 218.786 355.395 214.429C358.983 210.512 360.443 212.138 364.82 212.337C366.65 211.378 365.687 210.075 367.51 207.431C369.666 207.167 376.097 211.962 377.894 212.306C384.28 213.53 383.94 211.542 390.634 213.974C391.679 210.93 392.671 207.107 393.579 203.963Z" fill="#7EAB34"/>
</g>
<path d="M398.502 205.675C401.569 205.82 404.206 205.952 407.293 205.83C406.33 209.277 406.176 212.972 405.915 216.539C402.8 213.623 399.645 209.849 398.502 205.675Z" fill="#508F44"/>
<path d="M397.31 239.77C396.246 237.551 397.967 238.717 397.307 236.095C396.082 235.637 395.204 235.405 393.936 235.072C393.037 233.727 393.301 234.224 393.596 232.147C396.207 228.851 400.225 232.712 402.905 234.6L402.826 240.148C402.237 238.589 401.993 238.041 401.722 236.413L400.743 235.332C399.317 235.747 399.119 236.402 398.265 237.966C397.94 238.562 397.621 239.164 397.31 239.77Z" fill="#92B992"/>
<path d="M340.093 205.212C340.684 205.116 341.533 204.807 341.905 205.168C346.499 209.631 350.114 211.43 355.395 214.429C353.415 218.786 350.654 224.452 349.299 228.898L344.843 232.55C348.536 241.793 351.692 235.105 351.148 246.583C356.126 251.969 358.05 252.128 365.188 254.401L371.5 250.335C372.412 253.8 373.218 257.291 373.917 260.804C376.587 263.273 379.287 265.716 382.017 268.127C382.619 268.942 385.019 272.31 385.564 272.891C387.033 276.233 387.948 282.641 384.237 284.616C381.444 284.392 379.974 280.56 377.468 278.271L374.017 278.128C373.578 275.823 373.555 274.626 371.814 273.402L370.551 274.115C370.02 273.492 366.758 265.674 365.024 263.135C360.035 267.563 358.773 271.097 354.632 275.621C354.046 282.268 354.005 282.955 350.635 288.66C348.82 284.807 343.677 265.642 343.274 265.12L341.492 265.349L340.586 264.519C340.09 262.305 340.51 263.135 338.335 261.368C340.214 256.29 339.372 244.273 339.417 238.296C339.501 227.254 339.916 216.233 340.093 205.212Z" fill="#278966"/>
<path d="M413.973 319.94C416.192 319.53 418.364 318.572 419.46 320.988L417.736 324.346C420.727 327.444 419.141 351.181 419.359 357.174C417.549 355.716 413.818 355.088 411.599 355.801C407.017 351.889 402.199 357.818 398.116 359.548C395.401 360.974 394.667 361.336 391.752 360.607C390.345 359.452 390.538 359.963 390.23 358.499L391.134 358.138C391.403 350.937 389.615 344.853 390.3 337.982C393.548 335.034 396.025 334.294 399.155 331.931C400.66 330.797 404.057 324.639 406.064 323.33C407.895 322.138 406.846 324.213 409.571 323.037C411.2 320.616 411.163 319.998 413.973 319.94Z" fill="#2C7848"/>
<path d="M391.153 358.138C391.508 356.812 391.788 355.785 392.251 354.497C392.81 354.8 393.159 355.093 393.451 355.652C394.817 358.244 395.815 358.185 398.135 359.548C395.421 360.974 394.687 361.336 391.772 360.607C390.364 359.452 390.558 359.963 390.25 358.499L391.153 358.138Z" fill="#2C7848"/>
<path d="M413.993 319.94C416.212 319.53 418.384 318.572 419.48 320.988L417.755 324.346C416.196 324.341 415.35 323.862 414.381 322.75C414.355 321.584 414.222 321.057 413.993 319.94Z" fill="#2C7848"/>
<path d="M386.549 297.751C390.31 295.292 396.194 288.618 397.371 288.331C399.471 290.976 396.796 293.796 397.93 297.405C397.178 299.587 395.862 302.85 395.901 305.042L395.131 306.618C393.68 307.086 392.899 306.671 391.345 306.245C389.778 305.979 389.825 306.011 388.445 305.245C387.026 303.377 386.878 300.178 386.549 297.751Z" fill="#24735C"/>
<path d="M369.64 289.022C372.432 290.859 374.11 292.115 376.687 294.244C377.173 296.011 379.612 299.034 380.807 300.678C384.021 304.361 384.587 305.495 382.558 310.083C381.455 310.136 381.776 309.907 381.124 310.429C376.978 305.351 373.426 295.729 369.64 289.022Z" fill="#267161"/>
<path d="M374.017 278.128L377.468 278.272C376.415 280.704 376.273 282.785 375.919 285.398C378.958 289.31 383.676 295.558 380.807 300.678C379.612 299.034 377.173 296.011 376.687 294.244C376.811 293.797 376.935 293.35 377.059 292.903C375.367 286.888 374.081 284.408 374.017 278.128Z" fill="#3F786D"/>
<path d="M395.901 305.042L396.16 308.012C397.263 308.837 396.678 308.667 397.889 308.752L399.023 309.545C398.332 311.301 399.336 312.659 399.468 314.819C397.428 314.261 393.857 313.659 391.676 313.217L390.932 310.796C390.897 308.938 391.048 308.092 391.345 306.245C392.899 306.671 393.68 307.086 395.131 306.618L395.901 305.042Z" fill="#9AC4C4"/>
<path d="M418.252 231.841L418.981 232.074C419.556 235.276 419.774 239.749 417.4 242.266C415.016 241.26 415.239 240.819 414.334 238.541C416.144 235.487 415.798 233.604 418.252 231.841Z" fill="#3F786D"/>
<path d="M417.4 242.266C412.275 241.346 413.26 244.315 409.587 245.603C406.979 242.229 409.507 238.301 414.335 238.541C415.24 240.819 415.016 241.26 417.4 242.266Z" fill="#489C8A"/>
<path d="M411.619 355.801C413.839 355.088 417.569 355.716 419.379 357.174L419.358 363.124C418.144 362.188 417.857 361.113 417.229 359.686L416.526 359.532L415.568 361.528L414.802 361.129C413.679 358.696 413.179 357.983 411.619 355.801Z" fill="#2C7848"/>
<path d="M395.901 305.043C395.862 302.85 397.179 299.587 397.93 297.405L399.295 297.975C399.369 299.119 399.348 300.295 399.756 301.349C399.746 303.398 398.883 306.943 397.889 308.752C396.678 308.667 397.263 308.837 396.16 308.012L395.901 305.043Z" fill="#8FBBC0"/>
<path d="M402.904 234.6L405.872 234.983C407.618 238.083 407.378 240.606 404.467 243.129L403.557 243.134C402.847 241.793 402.881 241.697 402.826 240.148L402.904 234.6Z" fill="#318D54"/>
<path d="M391.676 313.217C393.857 313.659 397.428 314.261 399.468 314.819C403.504 315.618 405.611 314.367 409.475 313.068C400.551 320.041 401.636 316.608 391.773 314.67L391.676 313.217Z" fill="#3F786D"/>
<path d="M381.125 310.429C381.776 309.907 381.455 310.136 382.558 310.083C385.396 312.047 387.314 311.307 390.932 310.796L391.676 313.218L391.773 314.671C386.521 314.527 384.868 314.138 381.125 310.429Z" fill="#3F786D"/>
<path d="M385.314 264.333C387.963 266.738 385.503 268.537 387.106 271.321C386.296 272.044 386.22 272.039 385.564 272.891C385.019 272.311 382.619 268.942 382.017 268.127C383.009 265.668 382.961 265.227 385.314 264.333Z" fill="#92B992"/>
<path d="M399.756 301.349C400.533 301.375 401.262 301.36 402.023 301.503C402.188 302.222 402.327 303.025 402.604 303.696C401.995 304.361 401.801 304.516 401.358 305.293C401.762 307.395 402.162 307.4 401.225 308.816L399.023 309.545L397.889 308.752C398.883 306.943 399.746 303.398 399.756 301.349Z" fill="#8FBBC0"/>
<path d="M385.314 264.332C386.049 264.104 387.112 264.002 387.902 263.891C388.77 267.366 388.922 268.047 387.106 271.321C385.503 268.537 387.962 266.738 385.314 264.332Z" fill="#6AA74E"/>
<path d="M357.42 304.191C365.618 304.59 365.359 313.947 360.306 319.131C351.498 321.073 352.159 309.242 357.42 304.191Z" fill="#318D54"/>
<path d="M403.173 275.025L403.179 276.169C407.49 278.24 406.745 279.751 406.751 284.227C407.969 284.829 408.294 285.749 408.566 286.936C407.506 289.257 405.718 290.076 403.287 289.241L402.937 288.171C404.26 284.483 402.546 283.131 400.876 278.884C402.853 277.415 402.493 277.377 403.173 275.025Z" fill="#69956C"/>
<path d="M403.179 276.169C407.49 278.24 406.745 279.751 406.75 284.227C405.792 283.807 404.973 283.195 404.1 282.614C402.948 280.528 403.839 279.767 403.274 276.664L403.179 276.169Z" fill="#92B992"/>
<path d="M400.876 278.884C399.628 275.962 399.012 272.513 400.316 269.532L401.197 269.421C402.675 270.895 402.798 272.949 403.173 275.025C402.493 277.377 402.852 277.415 400.876 278.884Z" fill="#69956C"/>
<path d="M399.997 256.69L401.401 258.031C402.107 260.128 401.537 261.48 401.015 263.667L399.881 263.007C399.226 260.964 399.708 258.835 399.997 256.69Z" fill="#6AA74E"/>
<path d="M235.937 128.72C256.355 129.012 282.574 120.968 303.35 118.965C314.806 117.861 326.763 115.741 338.115 113.874C339.004 113.728 338.972 113.486 340.174 113.488L351.947 115.924C348.798 122.634 348.616 122.687 348.452 129.989L348.444 130.468C351.147 141.029 355.499 145.212 366.276 147.858C363.344 152.779 362.37 154.524 361.186 160.173L360.951 160.129L358.354 160.49C351.423 162.177 346.487 163.37 340.887 168.245L341.126 169.613C340.517 170.769 340.076 171.511 339.353 172.6C339.978 182.553 339.288 195.043 339.41 205.327C330.245 202.33 328.499 203.35 318.984 205.169L317.181 209.498C309.496 208.979 305.077 206.072 300.013 213.076C301.064 215.806 302.317 218.832 303.083 221.625C303.645 224.17 304.083 224.837 305.299 227.117C302.206 226.31 298.971 225.93 295.793 226.328C291.802 230.926 286.338 227.348 281.62 225.904C280.002 227.017 278.275 228.252 276.643 229.318C272.985 229.076 263.018 224.462 259.668 226.16C255.548 224.677 254.417 221.315 250.831 220.329L251.18 219.342C249.394 214.293 250.982 205.786 249.043 203.037L246.823 202.324C246.913 200.312 246.816 197.653 246.802 195.586L240.431 196.193C238.251 193.824 238.928 191.16 239.146 188.134C238.438 183.156 238.511 175.906 238.487 170.87C239.25 164.18 238.946 152.477 238.943 145.549C238.965 141.106 239.514 134.496 238.556 130.325C238.307 129.241 237.12 129.139 235.937 128.72Z" fill="#C7E2E5"/>
<path d="M324.812 175.945C323.887 174.596 323.68 174.2 323.053 172.689C323.272 170.604 323.46 170.274 324.371 168.37C325.805 167.403 325.072 167.521 326.596 167.78C328.628 168.968 328.927 171.55 330.683 174.236L330.965 174.661L331.159 174.341C330.865 172.891 330.192 169.755 331.194 168.632C333.205 169.965 332.382 169.792 334.436 169.738C336.382 169.576 339.102 169.627 341.126 169.613C340.517 170.769 340.076 171.511 339.353 172.6C339.978 182.553 339.288 195.043 339.41 205.327C330.245 202.33 328.499 203.35 318.984 205.169L317.181 209.498C309.496 208.979 305.077 206.072 300.013 213.076C301.064 215.806 302.317 218.832 303.083 221.625C303.645 224.17 304.083 224.837 305.299 227.117C302.206 226.31 298.971 225.93 295.793 226.328C291.802 230.926 286.338 227.348 281.62 225.904C280.002 227.017 278.275 228.252 276.643 229.318C272.985 229.076 263.018 224.463 259.668 226.16C255.548 224.677 254.417 221.315 250.831 220.329L251.18 219.342C249.394 214.293 250.982 205.786 249.042 203.037C250.535 199.434 254.094 201.48 255.578 197.824C256.86 200.903 257.201 200.405 260.636 202.346C262.231 198.737 262.329 199.333 265.941 197.793L266.213 196.972L264.869 195.154C267.248 194.15 270.437 193.875 273.053 193.522L272.679 192.036C273.866 190.344 273.44 185.331 273.393 183.013C273.235 179.897 273.17 176.71 272.559 173.657C276.234 174.071 286.61 176.96 289.101 179.506C290.016 180.569 289.426 180.166 291.137 180.391C293.318 178.587 291.047 178.293 293.558 176.735C295.961 177.333 293.511 177.855 295.615 180.243L296.9 180.194C302.262 173.213 309.987 178.519 313.73 175.666L311.958 173.979C313.609 173.785 322.157 175.533 324.812 175.945Z" fill="#6AA74E"/>
<path d="M264.869 195.154C267.248 194.149 270.437 193.875 273.053 193.522C276.761 204.34 289.923 211.049 290.421 215.416C289.803 216.204 289.621 216.51 288.863 217.189C287.675 219.388 287.404 218.975 287.955 220.928C289.598 223.061 293.326 225.141 295.793 226.328C291.802 230.926 286.338 227.348 281.62 225.904C280.002 227.017 278.275 228.252 276.643 229.318C272.985 229.076 263.018 224.462 259.668 226.16C255.548 224.677 254.417 221.315 250.831 220.329L251.18 219.342C249.394 214.293 250.982 205.786 249.042 203.037C250.535 199.434 254.094 201.48 255.578 197.824C256.86 200.903 257.201 200.405 260.636 202.346C262.231 198.737 262.329 199.333 265.941 197.793L266.213 196.972L264.869 195.154Z" fill="#2E9881"/>
<path d="M288.864 217.189C287.675 219.388 287.404 218.975 287.955 220.928C289.598 223.061 293.326 225.141 295.793 226.328C291.802 230.926 286.338 227.348 281.621 225.904C280.002 227.017 278.275 228.252 276.643 229.318C273.947 226.113 273.384 221.841 277.103 219.202C280.359 218.989 281.62 222.473 285.03 221.21C286.247 218.077 285.783 218.374 288.864 217.189Z" fill="#C7E2E5"/>
<path d="M255.578 197.824C256.86 200.903 257.201 200.405 260.636 202.346C259.221 202.976 251.448 202.857 249.042 203.036C250.535 199.434 254.094 201.48 255.578 197.824Z" fill="#CCE3E6"/>
<path d="M289.102 179.506C290.016 180.569 289.426 180.166 291.138 180.391C287.355 182.918 282.718 185.347 278.792 182.162L278.708 181.29C281.889 179.65 285.047 181.176 289.102 179.506Z" fill="#B5D2BD"/>
<path d="M235.937 128.72C256.355 129.012 282.574 120.968 303.35 118.965C314.806 117.861 326.763 115.741 338.115 113.874C339.004 113.728 338.972 113.486 340.174 113.488L351.947 115.924C348.798 122.634 348.616 122.687 348.452 129.989L348.444 130.468C346.151 129.304 342.129 129.884 339.577 130.172L339.398 129.892C332.467 131.1 324.345 131.361 317.038 132.537L238.943 145.549C238.965 141.106 239.514 134.496 238.556 130.325C238.307 129.241 237.12 129.139 235.937 128.72Z" fill="#BFD4D7"/>
<g filter="url(#filter3_d_177_304)">
<path d="M340.174 113.488L351.947 115.924C348.799 122.634 348.616 122.687 348.453 129.989L348.444 130.468C346.152 129.304 342.13 129.884 339.578 130.171L339.398 129.892C339.435 126.387 339.39 116.493 340.174 113.488Z" fill="#BACCD0"/>
</g>
<path d="M250.99 177.252C256.256 174.379 263.972 170.747 269.98 171.486C270.903 172.551 271.357 172.924 272.559 173.657C273.17 176.71 273.236 179.897 273.393 183.013C273.44 185.33 273.866 190.344 272.679 192.036L273.053 193.522C270.438 193.875 267.248 194.149 264.87 195.154L266.213 196.972L265.941 197.793C262.33 199.333 262.231 198.737 260.637 202.346C257.202 200.405 256.86 200.903 255.579 197.824C254.094 201.48 250.535 199.434 249.043 203.036L246.823 202.324C246.913 200.312 246.817 197.652 246.802 195.586L240.431 196.193C238.251 193.824 238.928 191.16 239.146 188.134C245.03 184.64 247.958 183.462 250.99 177.252Z" fill="#2F9B84"/>
<path d="M265.583 182.389C267.798 184.009 270.265 183.272 273.393 183.013C273.44 185.33 273.866 190.344 272.679 192.036L273.053 193.522C270.438 193.875 267.248 194.149 264.87 195.154C264.789 194.113 264.889 194.485 264.37 193.576C258.672 189.25 262.719 186.593 265.583 182.389Z" fill="#3BA895"/>
<path d="M264.37 193.576C265.947 192.967 271.044 191.651 272.679 192.036L273.053 193.522C270.438 193.875 267.248 194.149 264.869 195.154C264.789 194.113 264.889 194.485 264.37 193.576Z" fill="#CCE3E6"/>
<path d="M255.189 189.735C258.477 186.805 261.166 181.27 265.583 182.389C262.719 186.593 258.672 189.25 264.37 193.576C264.889 194.485 264.789 194.113 264.87 195.154L266.213 196.972L265.941 197.793C262.33 199.333 262.231 198.737 260.637 202.346C257.202 200.405 256.86 200.903 255.579 197.824C255.541 196.531 256.487 195.486 257.251 194.365C257.37 192.241 256.572 191.865 255.189 189.735Z" fill="#CCE3E6"/>
<g filter="url(#filter4_d_177_304)">
<path d="M339.578 130.171C342.13 129.884 346.152 129.304 348.444 130.468C351.148 141.029 355.499 145.212 366.276 147.858C363.344 152.779 362.37 154.524 361.186 160.173L360.951 160.129L358.355 160.49C351.423 162.177 346.488 163.37 340.888 168.245L341.127 169.613C339.103 169.626 336.382 169.576 334.437 169.738C335.188 169.427 339.593 167.813 339.568 166.967C339.219 154.748 339.162 142.388 339.578 130.171Z" fill="#9DC1CD"/>
</g>
<path d="M358.354 160.49C356.5 157.927 350.825 156.139 348.417 153.51L349.351 152.776C352.731 152.467 360.07 156.563 360.951 160.129L358.354 160.49Z" fill="#69956C"/>
<path d="M252.45 162.332C250.293 160.917 245.326 157.888 243.964 156.041L244.219 155.291C246.206 154.521 248.424 154.815 249.506 154.19C252.086 154.392 252.989 154.331 255.301 155.518L255.05 158.398L252.45 162.332Z" fill="#267161"/>
<path d="M300.648 169.45C303.829 164.851 319.409 156.906 320.828 161.951C317.539 164.456 314.328 160.661 304.862 168.899C303.073 169.707 302.633 169.596 300.648 169.45Z" fill="#318D54"/>
<path d="M311.178 151.127C312.368 151.119 312.697 151.261 313.808 151.572L314.173 152.386C312.164 154.553 304.544 154.16 301.732 153.453C300.616 153.742 301.186 153.759 299.995 153.16L300.273 152.509C305.199 152.856 306.396 152.716 311.178 151.127Z" fill="#69956C"/>
<path d="M249.506 154.19C252.855 153.722 262.643 153.358 265.478 154.809C262.807 157.637 258.104 154.464 255.301 155.518C252.989 154.332 252.086 154.392 249.506 154.19Z" fill="#3F786D"/>
<path d="M300.649 169.45C302.633 169.596 303.073 169.707 304.862 168.899C305.965 170.817 306.3 170.684 306.182 172.67C303.989 174.156 301.483 173.273 299.932 171.275C300.109 170.343 300.025 170.117 300.649 169.45Z" fill="#69956C"/>
<path d="M255.301 155.518L258.754 157.011C260.372 157.696 260.622 158.016 261.779 159.384L261.913 160.205L260.93 160.384L261.522 159.431L260.302 160.323C257.863 159.745 257.274 159.456 255.05 158.398L255.301 155.518Z" fill="#3F786D"/>
<path d="M240.431 196.193L246.802 195.586C246.817 197.653 246.913 200.312 246.823 202.324L249.043 203.037C250.983 205.786 249.395 214.293 251.18 219.342L250.832 220.329C254.418 221.315 255.549 224.677 259.668 226.16C260.348 229.292 261.211 229.854 263.016 232.415C264.412 231.759 265.958 230.827 267.323 230.057C269.09 229.659 270.024 229.217 271.606 229.985C274.207 233.437 271.785 239.153 280.229 237.413C281.49 237.785 281.823 238.355 282.709 239.329L283.244 239.158L283.875 237.54C284.286 236.492 284.016 236.818 284.827 236.155C286.031 236.655 285.633 236.442 286.351 237.998C286.353 240.984 285.377 243.719 284.118 246.402C279.655 245.289 276.195 246.428 271.953 244.582C269.558 251.591 271.931 261.182 270.513 264.657C269.725 270.379 268.568 277.287 268.667 282.95C264.04 287.357 253.932 295.968 247.802 297.288L247.732 295.611C245.851 293.067 242.75 294.952 239.13 290.986C238.484 290.444 236.513 290.305 235.494 290.146C236.637 290.039 237.472 289.863 238.584 289.64C239.247 286.755 238.926 271.8 238.877 267.856L238.241 266.632C237.765 256.738 238.859 246.04 238.483 235.178L239.883 234.921C237.209 233.532 240.16 230.639 235.806 225.151L238.581 224.278C238.345 221.835 238.447 217.524 238.431 214.942C236.315 214.652 234.019 212.368 233.615 210.331L234.074 209.205C235.567 206.903 236.076 206.55 238.477 205.457C239.445 205.533 240.138 205.193 241.122 204.897L240.13 204.446C239.038 202.553 239.259 199.009 239.473 196.874L240.431 196.193Z" fill="#CCE3E6"/>
<path d="M255.141 258.004C260.183 260.958 264.825 263.188 270.513 264.657C269.725 270.379 268.568 277.287 268.667 282.95C264.04 287.357 253.932 295.968 247.802 297.288L247.732 295.611C245.851 293.067 242.75 294.952 239.13 290.986C238.484 290.444 236.513 290.305 235.494 290.146C236.637 290.039 237.472 289.863 238.584 289.64C239.247 286.755 238.926 271.8 238.877 267.856C244.69 263.747 248.866 261.251 255.141 258.004Z" fill="#2F9B84"/>
<path d="M239.882 234.921C242.156 234.551 245.662 233.757 247.763 234.312C250.148 236.334 249.053 239.201 248.503 242.096C254.73 243.187 256.133 243.863 260.869 248.206C263.006 245.891 263.501 245.289 265.093 242.586C266.92 243.145 270.207 244.257 271.953 244.582C269.558 251.591 271.931 261.182 270.512 264.657C264.825 263.188 260.183 260.958 255.141 258.004C248.865 261.251 244.69 263.747 238.877 267.856L238.241 266.632C237.765 256.738 238.858 246.04 238.483 235.178L239.882 234.921Z" fill="#43904A"/>
<path d="M240.431 196.193L246.802 195.586C246.817 197.653 246.913 200.312 246.823 202.324L249.043 203.037C250.983 205.786 249.395 214.293 251.18 219.342L250.832 220.329C251.319 223.013 257.355 227.901 259.708 230.336C257.303 232.993 254.97 236.179 250.973 234.086L250.781 233.208C253.22 231.31 253.89 233.134 255.455 231.357C252.777 228.982 249.801 228.869 248.155 225.475C246.119 221.278 242.143 223.1 238.581 224.278C238.345 221.835 238.447 217.524 238.431 214.942C236.315 214.652 234.019 212.368 233.615 210.331L234.074 209.205C235.567 206.903 236.076 206.55 238.477 205.457C239.445 205.533 240.138 205.193 241.122 204.897L240.13 204.446C239.038 202.553 239.259 199.009 239.473 196.874L240.431 196.193Z" fill="#43904A"/>
<path d="M240.431 196.193L246.802 195.586C246.816 197.653 246.913 200.312 246.823 202.324L246.089 202.656C245.819 201.339 245.557 199.251 244.897 198.225L244.021 198.293C242.494 200.186 242.947 200.85 243.412 203.281L242.836 204.483L241.122 204.897L240.13 204.446C239.037 202.553 239.259 199.009 239.473 196.874L240.431 196.193Z" fill="#CCE3E6"/>
<path d="M234.074 209.205C235.567 206.903 236.076 206.55 238.477 205.457C239.838 207.726 238.322 211.704 238.431 214.942C236.315 214.652 234.019 212.368 233.615 210.331L234.074 209.205Z" fill="#2E693E"/>
<path d="M263.016 232.415C264.412 231.759 265.958 230.827 267.322 230.057C268.775 232.509 268.871 231.841 268.685 234.289C267.477 235.909 268.14 235.486 266.219 235.909C264.262 235.096 263.865 234.482 263.016 232.415Z" fill="#2E9881"/>
<path d="M268.667 282.95C271.722 288.001 275.786 291.577 281.139 294.116C285.936 296.484 296.137 300.236 298.846 303.648C296.22 306.506 295.145 307.938 293.413 311.44C294.115 315.054 294.785 318.758 295.646 322.329C290.408 324.932 288.208 325.304 282.86 327.109C281.575 327.545 277.182 331.595 274.96 332.218C268.874 333.921 256.183 331.643 251.019 334.421C247.637 325.863 259.428 324.554 246.548 303.914L247.802 297.288C253.932 295.968 264.04 287.357 268.667 282.95Z" fill="#28675D"/>
<path d="M318.984 205.169C328.499 203.35 330.245 202.33 339.41 205.327L340.093 205.212C339.916 216.233 339.5 227.254 339.417 238.296C339.372 244.273 340.214 256.29 338.335 261.368C335.084 257.578 330.628 258.19 325.969 257.967C327.184 257.86 327.128 257.86 328.248 257.366C328.834 254.257 326.778 245.726 327.298 243.772C329.358 236.06 318.665 231.503 314.095 235.668L313.443 236.427C307.246 238.535 307.696 231.629 305.608 227.691L305.299 227.117C304.083 224.837 303.646 224.17 303.083 221.624C302.317 218.832 301.064 215.806 300.013 213.076C305.077 206.072 309.496 208.979 317.181 209.498L318.984 205.169Z" fill="#2E9881"/>
<path d="M303.083 221.625C305.452 219.553 308.378 217.421 311.513 219.504C311.001 223.027 306.737 223.074 310.611 227.063C312.499 229.007 314.155 232.903 314.095 235.668L313.443 236.427C307.246 238.536 307.696 231.629 305.608 227.692L305.299 227.117C304.083 224.837 303.646 224.17 303.083 221.625Z" fill="#C7E2E5"/>
<path d="M259.668 226.16C263.018 224.462 272.985 229.076 276.643 229.318C278.275 228.252 280.002 227.016 281.621 225.903C286.338 227.348 291.802 230.926 295.793 226.328C298.972 225.93 302.206 226.31 305.299 227.117L305.608 227.691C307.696 231.629 307.246 238.535 313.443 236.427L314.095 235.668C318.665 231.503 329.358 236.06 327.298 243.772C326.778 245.726 328.834 254.257 328.248 257.366C327.128 257.86 327.184 257.86 325.969 257.967C325.091 257.791 323.49 257.397 322.912 256.833C319.99 254.012 317.262 256.062 315.855 255.247C312.356 253.219 311.686 250.303 307.381 249.185L305.629 249.664C306.589 252.23 304.54 253.358 303.04 255.471C301.388 257.797 299.968 261.107 297.93 262.954C297.582 263.268 294.313 263.305 293.323 263.949C291.618 260.452 290.086 258.1 288.004 254.859L285.534 250.617L284.597 250.771C283.183 248.578 283.411 248.743 284.118 246.402C285.376 243.719 286.353 240.984 286.35 237.998C285.633 236.442 286.031 236.654 284.827 236.155C284.016 236.818 284.285 236.492 283.875 237.54L283.244 239.158L282.708 239.328C281.823 238.354 281.49 237.785 280.229 237.412C271.785 239.153 274.207 233.437 271.606 229.985C270.023 229.217 269.09 229.658 267.322 230.057C265.958 230.827 264.412 231.759 263.016 232.415C261.211 229.854 260.348 229.292 259.668 226.16Z" fill="#328752"/>
<path d="M285.534 250.617C288.271 241.936 294.056 246.279 299.9 248.339C301.408 248.871 304.023 249.34 305.629 249.664C306.589 252.23 304.54 253.358 303.041 255.471C301.388 257.797 299.969 261.107 297.93 262.954C297.582 263.268 294.313 263.305 293.323 263.949C291.619 260.453 290.086 258.1 288.004 254.859L285.534 250.617Z" fill="#278966"/>
<path d="M251.019 334.422C256.183 331.643 268.874 333.921 274.959 332.218C277.182 331.595 281.574 327.545 282.86 327.109C288.208 325.304 290.408 324.932 295.646 322.329C296.153 331.143 291.651 330.872 286.489 336.593C287.129 338.812 288.188 341.532 287.739 343.677C286.568 344.827 286.135 345.332 284.755 346.178C283.34 349.691 281.248 355.578 278.55 358.063C275.097 361.246 265.932 363.737 261.524 362.411C259.79 360.719 260.082 358.75 259.974 356.168C253.86 348.627 255.819 342.325 251.019 334.422Z" fill="#318D54"/>
<path d="M271.953 244.582C276.195 246.428 279.655 245.289 284.118 246.402C283.411 248.744 283.183 248.579 284.598 250.771L285.534 250.617L288.004 254.859C290.086 258.1 291.619 260.453 293.323 263.949C295.351 268.101 300.396 274.897 299.769 279.277C297.803 277.564 295.891 275.786 294.035 273.95C289.961 275.85 288.163 279.166 284.484 281.715C282.64 286.404 282.848 287.612 283.121 292.626C282.26 294.111 282.875 293.6 281.139 294.116C275.786 291.577 271.722 288.001 268.667 282.95C268.568 277.287 269.725 270.379 270.513 264.657C271.931 261.182 269.558 251.591 271.953 244.582Z" fill="#62A451"/>
<path d="M288.003 254.859C290.085 258.1 291.618 260.453 293.322 263.949C295.35 268.101 300.395 274.897 299.769 279.277C297.802 277.564 295.89 275.786 294.035 273.95C292.818 269.58 288.349 260.447 286.324 256.035L288.003 254.859Z" fill="#CCE3E6"/>
<path d="M285.534 250.617L288.004 254.859L286.325 256.035C285.294 253.816 284.447 252.948 284.597 250.771L285.534 250.617Z" fill="#C7E2E5"/>
<path d="M284.484 281.715C288.163 279.166 289.961 275.85 294.035 273.95C295.89 275.786 297.802 277.564 299.769 279.277L299.732 279.964C300.841 281.257 301.297 282.343 303.071 282.29C307.127 282.173 309.517 280.815 313.746 280.544C310.197 293.77 309.194 294.792 298.846 303.648C296.136 300.236 285.935 296.484 281.138 294.116C282.874 293.6 282.259 294.11 283.12 292.626C282.848 287.612 282.639 286.404 284.484 281.715Z" fill="#318D54"/>
<path d="M305.629 249.664L307.381 249.185C308.842 254.843 311.591 260 318.215 257.871C318.551 257.759 318.886 257.648 319.219 257.525C321.74 259.271 323.871 261.065 326.338 262.81C323.506 270.746 321.032 271.635 313.368 275.717C310.535 277.223 302.615 279.921 299.732 279.964L299.769 279.277C300.395 274.897 295.351 268.101 293.323 263.949C294.313 263.305 297.582 263.268 297.93 262.954C299.969 261.107 301.388 257.797 303.041 255.471C304.54 253.358 306.589 252.23 305.629 249.664Z" fill="#278966"/>
<path d="M308.84 322.531C314.737 324.911 308.691 338.088 307.013 342.399C305.799 345.524 305.468 345.683 302.486 346.833C301.074 346.077 301.132 346.13 300.106 344.901C299.118 342.016 301.068 333.32 302.68 330.643C304.856 327.029 307.263 328.205 308.677 323.133L308.84 322.531Z" fill="#267161"/>
<path d="M40.5654 131.764C54.9908 130.68 74.0678 125.049 88.6614 122.214L121.752 115.686C123.051 115.438 133.522 113.635 134.463 113.674C132.656 116.158 132.839 138.269 133.519 142.571C133.563 143.992 133.537 146.166 133.896 147.47L134.599 147.758C135.036 150.405 135.341 150.139 138.194 150.422L139.089 151.271C139.002 153.776 137.623 151.708 138.467 153.446C136.874 154.174 134.569 155.141 133.123 156.016L133.896 157.009C133.708 158.348 133.356 160.317 133.423 161.608C133.636 164.439 134.296 168.646 133.338 171.161C131.87 172.241 132.468 171.929 130.412 172.024L130.92 172.872L131.537 172.805C133.967 172.556 135.044 172.377 136.52 174.578C136.489 175.035 136.356 176.114 136.477 176.475C134.94 177.945 134.012 180.278 135.929 181.864L136.774 182.002C138.255 182.959 140.097 184.531 141.167 185.179L140.201 185.569L139.846 186.786C139.562 189.166 139.997 188.8 138.637 190.032C136.02 190.716 133.654 191.216 131.02 190.385C133.057 192.194 132.928 191.938 136.229 191.747L136.736 191.716L137.151 192.157C136.544 193.735 136.461 193.954 135.269 195.14L134.222 195.209C133.045 194.066 132.179 192.787 130.779 192.367C131.754 194.027 132.558 195.656 133.159 197.487C133.498 200.801 132.967 211.374 135.836 212.435C133.599 212.618 132.959 212.672 131.368 214.573L131.956 215.207C132.776 215.703 133.256 216.059 134.194 216.316L134.504 217.479L134.132 217.871C133.654 218.38 133.249 218.848 132.796 219.378C132.928 220.129 133.014 221.202 133.381 221.786L133.633 225.116C132.939 238.679 133.77 252.751 133.636 266.328C133.609 269.091 133.791 278.692 133.428 281.076C135.849 283.312 139.574 285.808 139.827 288.916C135.344 291.513 138.321 295.728 133.275 297.064L133.041 297.33C133.517 307.304 133.493 316.613 133.51 326.587L133.925 326.826C140.522 329.86 139.794 332.367 140.014 339.089C141.977 340.632 145.136 342.831 146.36 344.837C146.322 345.162 146.226 346.199 146.137 346.439C145.556 349.43 145.085 349.563 146.392 351.649L146.925 351.873C148.56 352.56 150.924 353.757 151.522 355.535C150.111 357.509 148.307 360.479 146.275 361.565C144.266 361.666 145.021 361.762 143.083 360.57L144.205 365.871C141.206 366.823 136.313 367.984 134.632 370.549L133.599 370.533C134.196 372.795 133.513 387.724 133.48 391.481L133.638 392.423C133.634 397.384 133.526 402.711 133.635 407.634C123.813 405.319 111.221 403.557 101.08 401.53C88.7492 399.06 77.0647 396.809 64.7693 393.935C54.5288 391.54 50.9049 392.924 40.608 387.867L40.5654 131.764Z" fill="#C7E2E5"/>
<path d="M133.123 156.016L133.896 157.009C133.708 158.348 133.356 160.317 133.424 161.609C133.637 164.439 134.296 168.646 133.338 171.161C131.87 172.241 132.468 171.929 130.412 172.024L130.921 172.873L131.537 172.806C133.968 172.556 135.044 172.378 136.521 174.578C136.489 175.035 136.356 176.114 136.478 176.475C134.94 177.945 134.012 180.278 135.929 181.864L136.774 182.002C138.255 182.959 140.097 184.531 141.168 185.179L140.202 185.569L139.846 186.786C139.562 189.166 139.997 188.8 138.637 190.032C136.02 190.717 133.655 191.216 131.021 190.385C133.057 192.194 132.928 191.938 136.23 191.747L136.736 191.716L137.151 192.157C136.545 193.735 136.461 193.954 135.269 195.14L134.222 195.21C133.045 194.066 132.179 192.787 130.779 192.367C131.755 194.027 132.558 195.656 133.159 197.487C133.499 200.801 132.967 211.374 135.836 212.435C133.599 212.618 132.959 212.672 131.368 214.574C129.191 218.052 117.188 222.311 113.092 223.245C112.69 223.337 112.288 223.425 111.885 223.51C108.068 220.248 103.157 215.987 98.0947 215.285C84.7178 213.432 70.013 215.941 56.4482 215.706L56.4583 174.227L57.659 173.806C57.1391 172.73 57.3333 173.292 57.5249 171.855C62.1286 171.994 63.7072 170.947 67.8697 169.019C68.8277 167.328 68.7953 167.917 68.7554 166.184C70.1455 166.581 74.7604 167.414 75.2959 167.763L75.91 169.529C77.9261 170.235 80.0039 169.662 81.8944 168.712L82.3856 169.136C90.5382 168.581 87.2581 173.832 90.7309 177.407C91.8959 177.013 92.3759 175.961 93.1131 174.888L94.2808 174.978C98.1096 173.027 97.9079 171.749 99.3715 167.414C101.746 166.164 102.769 165.695 104.808 163.927C110.855 164.064 110.865 162.391 118.099 164.371L118.379 165.489L119.536 165.738C121.648 164.66 126.353 159.812 128.298 157.936C129.984 156.292 130.864 156.328 133.123 156.016Z" fill="#28675D"/>
<path d="M109.504 182.357C112.033 180.671 113.798 180.94 116.411 179.795C117.481 179.326 116.712 177.902 117.1 175.823C118.831 174.65 122.354 174.077 123.48 176.37C123.037 178.119 122.958 178.516 122.97 180.329L122.976 180.74L123.977 182.28L123.67 183.198L121.171 184.339L120.12 185.513L120.373 186.486C125.651 187.959 127.56 185.113 131.021 190.385C133.057 192.194 132.928 191.938 136.23 191.747L136.736 191.716L137.151 192.157C136.545 193.735 136.461 193.954 135.269 195.14L134.222 195.21C133.045 194.066 132.179 192.787 130.779 192.367C126.169 190.78 124.427 190.36 119.634 189.679C118.31 195.305 117.497 195.385 120.928 200.053C114.135 204.315 117.132 201.966 116.195 208.021L114.993 208.725C111.762 208.203 114.268 205.009 111.72 203.543C107.858 201.322 98.4592 199.068 95.7912 195.557C95.3415 193.552 95.2159 194.317 96.0605 192.629C97.4118 190.812 99.1203 189.09 100.674 187.424C102.782 186.865 103.911 186.236 105.828 185.282L107.515 185.732C108.356 185.059 109.559 183.707 110.335 182.889L109.504 182.357Z" fill="#BFD4D7"/>
<path d="M110.335 182.889C112.94 183.593 113.858 183.729 116.124 185.222L116.602 186.117C114.801 187.919 111.504 187.524 108.863 187.537C107.527 186.563 107.909 187.182 107.515 185.732C108.356 185.059 109.559 183.707 110.335 182.889Z" fill="#1A7E6F"/>
<path d="M133.123 156.016L133.896 157.009C133.708 158.348 133.356 160.317 133.423 161.609C133.636 164.439 134.296 168.646 133.338 171.161C131.87 172.241 132.468 171.929 130.412 172.024C127.943 169.814 123.255 167.315 119.824 167.021L119.536 165.738C121.647 164.66 126.352 159.812 128.298 157.936C129.984 156.292 130.864 156.328 133.123 156.016Z" fill="#9DC1CD"/>
<path d="M118.379 165.49L119.536 165.738L119.824 167.021C118.627 167.134 115.035 167.461 113.879 167.84C113.322 168.023 113.549 169.562 111.72 169.947C110.643 168.686 110.487 168.396 109.105 167.544L107.865 168.047C106.723 169.456 106.304 169.707 106.201 171.409C106.944 172.913 108.695 173.426 110.335 174.2L110.64 175.571C110.2 177.278 110.223 177.405 109.061 178.656L108.119 178.622C106.527 177.222 102.08 174.591 101.473 173.672C99.2735 170.345 106.626 166.483 108.253 165.768C112.087 166.61 114.546 166.107 118.379 165.49Z" fill="#CCE3E6"/>
<path d="M67.8699 169.019L67.7092 169.604C66.8954 172.625 67.5005 174.539 66.5537 176.052C65.0326 176.548 58.5773 174.644 56.4585 174.227L57.6592 173.806C57.1392 172.73 57.3335 173.292 57.5251 171.856C62.1288 171.994 63.7074 170.948 67.8699 169.019Z" fill="#CCE3E6"/>
<path d="M82.3857 169.136C90.5383 168.581 87.2583 173.832 90.731 177.407C91.896 177.013 92.3761 175.961 93.1132 174.888L94.2809 174.978C93.3448 176.487 93.3565 176.766 92.1457 178.291C90.0184 178.962 86.6595 178.225 84.3002 177.891C86.7968 176.931 87.2359 177.128 88.526 175.246C88.4829 172.274 85.057 169.794 82.3857 169.136Z" fill="#9AC4C4"/>
<path d="M122.976 180.74L125.038 179.8C125.414 178.727 125.57 178.268 126.088 177.229C127.742 178.049 128.29 178.654 129.629 179.855C126.262 182.842 125.557 184.124 121.171 184.339L123.67 183.198L123.977 182.28L122.976 180.74Z" fill="#9AC4C4"/>
<path d="M136.774 182.002C138.255 182.959 140.097 184.532 141.168 185.179L140.202 185.569L139.846 186.786C138.188 185.477 137.595 185.11 136.442 183.257L136.774 182.002Z" fill="#9AC4C4"/>
<path d="M109.505 182.357L110.335 182.889C109.56 183.707 108.356 185.059 107.515 185.732L105.828 185.282C107.008 184.1 108.161 183.334 109.505 182.357Z" fill="#9AC4C4"/>
<path d="M80.8517 175.674L81.4494 176.391L81.1088 177.333C77.2624 179.218 74.2154 180.026 69.955 179.534C68.924 178.508 69.1609 179.093 68.9805 177.851C72.2132 176.136 75.5135 178.628 80.8517 175.674Z" fill="#CCE3E6"/>
<path d="M117.706 281.034C120.749 279.815 121.435 279.474 124.422 280.645C126.775 281.311 131.087 283.253 132.887 282.987L133.429 281.076C135.849 283.312 139.574 285.808 139.828 288.916C135.345 291.513 138.321 295.729 133.276 297.065L133.041 297.331C133.517 307.305 133.493 316.613 133.51 326.587L133.925 326.827C140.523 329.86 139.794 332.367 140.015 339.089C141.977 340.633 145.136 342.831 146.36 344.837C146.322 345.162 146.226 346.2 146.137 346.439C145.556 349.43 145.085 349.563 146.392 351.65L146.925 351.873C148.56 352.56 150.924 353.757 151.522 355.535C150.111 357.509 148.307 360.479 146.275 361.565C144.266 361.666 145.021 361.762 143.083 360.57L144.206 365.871C141.206 366.823 136.313 367.984 134.632 370.549L133.599 370.533C134.196 372.795 133.513 387.724 133.48 391.481C130.485 391.54 128.021 391.764 125.163 390.806C113.669 386.942 118.145 390.018 116.728 379.581C116.575 378.66 118.822 364.311 119.371 362.922C121.076 356.866 123.068 337.104 122.851 330.531C120.289 328.769 117.077 326.869 114.401 325.193C110.483 316.72 100.919 306.139 109.244 297.107C113.479 292.514 111.483 289.704 109.361 284.664L109.906 284.163C113.78 285.43 114.182 283.36 117.706 281.034Z" fill="#2F9B84"/>
<path d="M133.925 326.827C140.522 329.86 139.794 332.367 140.015 339.089C141.977 340.633 145.136 342.831 146.36 344.837C146.322 345.162 146.226 346.2 146.137 346.439C145.556 349.43 145.085 349.563 146.392 351.65L146.925 351.873C148.56 352.56 150.924 353.757 151.522 355.535C150.111 357.51 148.307 360.479 146.275 361.565C144.266 361.666 145.021 361.762 143.083 360.57L144.205 365.871C141.206 366.823 136.313 367.984 134.632 370.549L133.599 370.533L133.535 369.708C133.842 358.116 133.272 346.519 133.487 334.927C133.537 332.223 133.462 329.498 133.925 326.827Z" fill="#1A7E6F"/>
<path d="M146.137 346.439C145.556 349.43 145.085 349.563 146.392 351.649L146.925 351.873C148.56 352.56 150.924 353.757 151.522 355.535C150.111 357.509 148.307 360.479 146.275 361.565C144.266 361.666 145.021 361.762 143.083 360.57C141.661 354.704 142.832 351.25 146.137 346.439Z" fill="#6AA74E"/>
<path d="M120.084 316.219C119.905 315.032 119.789 313.835 119.736 312.637C119.411 304.1 126.488 300.274 133.041 297.331C133.517 307.304 133.493 316.613 133.51 326.587C127.438 323.101 125.629 319.796 120.084 316.219Z" fill="#A2C03E"/>
<path d="M125.163 390.805C127.903 386.09 132.177 371.225 133.536 369.708L133.599 370.533C134.196 372.795 133.513 387.724 133.48 391.481C130.485 391.54 128.021 391.763 125.163 390.805Z" fill="#CCE3E6"/>
<path d="M133.428 281.076C135.849 283.312 139.574 285.808 139.827 288.916C135.344 291.513 138.321 295.729 133.276 297.065C133.009 292.243 132.922 287.825 132.887 282.987L133.428 281.076Z" fill="#24743D"/>
<path d="M117.706 281.034C120.749 279.815 121.435 279.474 124.422 280.645L121.118 285.712C120.006 283.998 119.145 282.492 117.706 281.034Z" fill="#69956C"/>
<path d="M131.368 214.574L131.956 215.207C132.776 215.703 133.256 216.06 134.194 216.316L134.505 217.479L134.132 217.871C133.655 218.381 133.249 218.849 132.797 219.378C132.929 220.13 133.014 221.202 133.382 221.786C128.307 223.036 121.42 230.654 117.838 234.686C116.919 235.721 117.042 237.445 117.052 238.828C115.429 241.282 110.543 243.762 107.74 246.865C108.483 250.378 110.049 255.311 108.088 258.531C105.581 258.185 103.993 252.475 103.341 250.308C89.1112 248.451 79.5003 250.255 81.9949 267.137L81.1167 267.079C79.1054 261.256 82.8523 257.435 77.6493 253.129C70.9917 247.615 66.0266 246.583 57.7462 246.381L57.5355 244.811L56.4487 244.662C55.9702 237.034 56.4306 223.694 56.4482 215.706C70.0129 215.941 84.7177 213.432 98.0946 215.285C103.157 215.987 108.068 220.248 111.885 223.51C112.288 223.425 112.69 223.337 113.092 223.245C117.188 222.311 129.191 218.052 131.368 214.574Z" fill="#43904A"/>
<path d="M56.4489 244.661L57.5357 244.81L57.7465 246.38C66.0268 246.583 70.9919 247.615 77.6495 253.129C82.8525 257.435 79.1056 261.256 81.1169 267.079L81.9951 267.137C91.094 273.721 90.5495 262.592 97.6568 264.423L98.3913 265.195C98.015 268.223 96.5205 270.815 96.9553 273.167C99.1066 274.833 99.7224 274.445 102.441 273.939C104.53 275.924 103.384 281.22 103.079 283.988L102.065 285.653C89.4627 271.752 82.2399 277.862 69.5049 268.516C67.1711 266.807 67.4004 263.657 66.1689 261.389C65.6266 260.389 63.8819 258.446 63.0458 257.504L61.0244 258.063C59.7758 255.689 58.1227 252.198 56.4186 250.26L57.7901 249.382C57.2781 247.631 56.1727 247.567 56.4489 244.661Z" fill="#317C4D"/>
<path d="M57.79 249.382C59.4463 251.958 61.3069 255.029 63.0457 257.504L61.0243 258.063C59.7757 255.689 58.1226 252.198 56.4185 250.26L57.79 249.382Z" fill="#B5D2BD"/>
<path d="M106.428 159.58C105.595 156.847 103.314 157.903 102.265 155.128C103.624 153.891 104.934 153.901 106.798 153.585C109.699 154.5 115.396 157.424 117.932 155.981C119.777 154.93 119.966 153.874 122.29 153.765C125.18 154.615 126.159 155.871 128.298 157.936C126.353 159.812 121.648 164.66 119.536 165.738L118.379 165.49L118.099 164.371C110.865 162.391 110.855 164.064 104.808 163.927L104.835 163.472C105.194 161.433 105.113 161.045 106.428 159.58Z" fill="#377B60"/>
<path d="M106.428 159.58L107.291 160.335C110.713 159.8 111.212 158.605 114.023 159.137L114.427 159.518C111.298 160.893 107.955 163.246 104.835 163.472C105.194 161.433 105.113 161.045 106.428 159.58Z" fill="#9AC4C4"/>
<path d="M133.896 147.47L134.599 147.758C135.036 150.405 135.341 150.139 138.194 150.422L139.089 151.272C139.002 153.776 137.623 151.708 138.467 153.446C136.874 154.174 134.569 155.141 133.123 156.016C130.864 156.328 129.984 156.292 128.298 157.936C126.159 155.871 125.179 154.615 122.29 153.765C119.966 153.874 119.777 154.93 117.932 155.981C115.396 157.424 109.699 154.5 106.797 153.585C107.095 153.092 107.553 152.526 107.905 152.054C111.551 150.686 116.513 150.627 120.462 149.906C124.969 149.083 129.364 148.081 133.896 147.47Z" fill="#488C6B"/>
<path d="M70.3076 159.673C70.7403 159.517 74.2711 159.242 74.873 159.193C76.7848 160.402 79.6726 160.338 81.9671 160.38L82.3188 160.786L85.4755 164.345L86.3691 164.925L85.9497 165.676C82.1017 166.549 79.8408 166.344 76.9503 166.887L77.0498 168.761C78.4586 168.604 79.5396 168.061 80.8526 167.526C81.4322 168.076 81.5211 168.043 81.8941 168.712C80.0037 169.662 77.9259 170.235 75.9098 169.529L75.2956 167.763C74.7602 167.414 70.1453 166.581 68.7551 166.184L68.1804 165.538L66.4868 163.603C68.2027 162.98 71.4418 162.153 71.9448 160.372L70.3076 159.673Z" fill="#CCE3E6"/>
<path d="M68.4912 164.868C76.2877 158.701 75.7449 165.694 82.3189 160.786L85.4755 164.345C81.8883 166.365 72.5659 165.377 68.4912 164.868Z" fill="#267161"/>
<path d="M57.5249 171.855C57.6106 165.255 63.4023 165.202 68.1806 165.538L68.7553 166.184C68.7953 167.917 68.8277 167.328 67.8697 169.019C63.7072 170.947 62.1286 171.994 57.5249 171.855Z" fill="#25574E"/>
<path d="M56.4182 250.26C58.1224 252.198 59.7755 255.689 61.0241 258.063C61.4334 258.978 61.7138 259.846 62.0465 260.793L61.6015 261.57C57.5386 260 56.1936 254.242 56.4182 250.26Z" fill="#2E693E"/>
<path d="M103.078 283.988C105.174 284.318 106.067 284.259 107.665 285.632L108.121 286.814C106.289 288.714 103.91 286.973 102.065 285.653L103.078 283.988Z" fill="#508F44"/>
<path d="M74.873 159.193C76.7651 158.365 78.9446 157.109 80.8728 157.301C82.1842 158.592 81.7829 158.057 81.9671 160.38C79.6726 160.337 76.7848 160.401 74.873 159.193Z" fill="#267161"/>
<path d="M95.7797 158.515C96.693 157.644 96.9405 157.236 98.1875 157.037C101.058 158.191 103.375 159.731 103.393 163.08C101.04 166.669 99.8166 162.942 96.933 165.038C95.2305 166.248 91.6891 166.071 89.7262 165.424C85.8399 164.142 88.5425 160.018 87.9427 157.233C90.4836 156.573 93.72 156.711 95.7797 158.515Z" fill="#CCE3E6"/>
<path d="M87.9424 157.233C90.4832 156.573 93.7197 156.711 95.7794 158.515C95.5904 159.608 95.8544 159.182 94.9762 159.84C92.635 159.814 89.6934 158.83 87.9424 157.233Z" fill="#3F786D"/>
<path d="M105.705 260.905C108.027 260.431 116.041 263.417 116.901 266.227C115.652 267.494 116.013 267.1 113.933 267.52C112.445 266.791 110.846 265.562 109.277 264.971C106.62 263.97 104.609 264.024 102.074 262.64C102.766 261.485 104.088 261.426 105.705 260.905Z" fill="#2E693E"/>
<path d="M93.9886 167.148C94.2005 167.063 95.358 166.967 95.5422 166.948L96.5848 167.795C97.0808 169.955 97.108 169.055 96.4438 171.206C94.8482 172.574 95.6193 172.183 93.31 172.502C91.9624 171.603 90.8757 170.809 89.5903 169.822L89.7457 169.185C91.6255 168.618 91.964 168.486 93.6134 167.401L93.9886 167.148Z" fill="#3F786D"/>
<path d="M121.822 266.525C123.361 266.52 124.669 266.403 125.382 267.904C124.086 269.618 123.616 269.41 121.441 270.304C119.826 270.24 118.354 270.294 117.376 268.984C118.292 267.542 120.098 267.169 121.822 266.525Z" fill="#69956C"/>
<path d="M149.746 151.036C153.751 150.269 157.718 150.477 161.76 149.956C172.485 148.575 183.17 146.385 194.038 146.793C197.812 146.935 199.61 148.036 202.369 150.494C206.669 151.302 209.588 150.759 213.772 151.118C210.564 153.172 207.309 155.152 204.01 157.056C204.059 160.178 204.024 161.71 204.771 164.797C202.418 168.006 199.495 165.5 200.456 172.265C195.213 179.32 191.726 176.576 185.227 179.198C181.255 180.8 177.334 183.882 172.659 185.722C170.853 188.84 169.547 191.39 167.983 194.598C165.128 193.897 162.462 193.218 159.553 192.736C154.789 186.578 151.881 182.585 157.489 175.858C155.787 174.731 153.579 177.209 152.259 170.732C152.029 169.595 151.815 168.456 151.615 167.313C144.16 160.831 138.733 166.121 134.152 162.241L133.424 161.609C133.356 160.317 133.708 158.348 133.896 157.009L133.124 156.016C134.569 155.141 136.874 154.174 138.468 153.446C141.214 152.749 147.461 151.413 149.609 150.099L149.746 151.036Z" fill="#7EAB34"/>
<path d="M149.609 150.099L149.746 151.036C145.801 153.05 136.117 157.898 134.366 161.772L134.152 162.241L133.424 161.609C133.356 160.317 133.708 158.348 133.896 157.009L133.124 156.016C134.569 155.141 136.874 154.174 138.468 153.446C141.214 152.749 147.461 151.413 149.609 150.099Z" fill="#B5D2BD"/>
<path d="M133.276 297.064C138.321 295.729 135.344 291.513 139.827 288.916C142.045 289.895 146.042 290.012 148.575 290.177C153.228 293.403 154.553 296.117 157.309 301.104C162.354 302.392 174.417 304.686 177.135 309.29C180.376 314.782 172.513 322.292 172.231 327.582C171.596 339.488 164.071 338.397 157.275 343.07C156.105 348.642 155.733 351.32 151.522 355.535C150.924 353.757 148.56 352.56 146.925 351.873L146.392 351.65C145.085 349.563 145.556 349.43 146.137 346.439C146.226 346.2 146.322 345.162 146.36 344.837C145.136 342.831 141.977 340.632 140.015 339.089C139.794 332.367 140.522 329.86 133.925 326.827L133.51 326.587C133.493 316.613 133.517 307.304 133.041 297.331L133.276 297.064Z" fill="#7FAC37"/>
<path d="M133.639 392.423C139.753 392.727 145.656 389.054 151.494 388.565C173.335 386.75 194.396 381.375 216.163 378.83C223.834 377.931 231.092 376.26 238.9 375.839C238.92 379.709 239.181 388.591 238.742 392.056C226.623 393.233 214.298 395.702 202.316 397.746C190.761 399.72 178.937 401.243 167.327 403.036C157.461 404.558 143.555 408.044 133.635 407.635C133.526 402.711 133.634 397.384 133.639 392.423Z" fill="#BACCD0"/>
<path d="M204.407 262.789C208.051 257.706 207.592 255.093 212.887 250.223C218.054 252.65 235.264 262.752 238.241 266.632L238.877 267.856C238.926 271.8 239.247 286.755 238.584 289.64C237.472 289.863 236.637 290.039 235.494 290.145C228.059 294.313 227.202 293.786 218.425 294.036C212.722 289.182 204.938 282.46 205.211 274.578C205.405 268.958 205.414 268.282 204.407 262.789Z" fill="#1A7E6F"/>
<path d="M223.662 236.523L224.285 237.53C226.62 238.179 232.468 235.177 238.483 235.178C238.859 246.04 237.765 256.738 238.241 266.632C235.265 262.752 218.054 252.65 212.887 250.223C214.425 248.765 221.834 237.945 223.428 235.663L223.662 236.523Z" fill="#2C7848"/>
<path d="M233.615 210.331C234.019 212.367 236.315 214.652 238.431 214.942C238.447 217.524 238.344 221.835 238.581 224.278L235.806 225.151C240.16 230.639 237.209 233.532 239.883 234.921L238.483 235.178C232.468 235.177 226.62 238.179 224.285 237.529L223.662 236.523L223.428 235.662C221.996 235.283 218.534 235.595 218.038 234.426C217.282 232.644 217.548 226.105 218.048 224.482C219.52 219.696 222.807 225.489 228.739 221.935C230.545 219.113 227.995 217.358 225.731 215.739L225.263 215.409C225.54 214.494 231.38 212.049 233.193 210.358L233.615 210.331Z" fill="#2B7541"/>
<path d="M223.662 236.523C225.748 236.1 227.37 235.828 228.844 234.31C230.167 230.321 230.895 228.509 235.08 227.087L235.806 225.151C240.16 230.639 237.209 233.532 239.883 234.921L238.483 235.178C232.468 235.177 226.62 238.179 224.285 237.53L223.662 236.523Z" fill="#C7E2E5"/>
<path d="M133.159 197.487C136.199 195.935 136.488 195.463 138.708 192.918C142.807 196.96 141.495 197.438 144.306 201.911C145.309 203.507 149.535 205.262 150.838 207.739C150.807 209.286 149.295 212.954 150.045 213.475C153.189 215.659 153.361 216.359 155.056 219.567C150.607 218.212 146.474 218.389 144.222 215.648C142.179 214.529 141.085 214.216 138.844 214.976C138.2 213.962 138.24 214.032 137.231 213.368C135.102 213.363 133.874 214.226 131.956 215.207L131.368 214.574C132.959 212.673 133.599 212.618 135.836 212.435C132.967 211.375 133.499 200.801 133.159 197.487Z" fill="#25574E"/>
<path d="M135.836 212.435C141.411 213.726 144.845 211.835 149.918 209.679C148.364 211.147 145.122 213.956 144.222 215.648C142.179 214.529 141.085 214.216 138.844 214.976C138.2 213.962 138.24 214.032 137.231 213.368C135.102 213.363 133.874 214.225 131.956 215.207L131.368 214.574C132.959 212.672 133.599 212.618 135.836 212.435Z" fill="#9AC4C4"/>
<path d="M222.863 200.663C222.463 199.353 222.215 198.591 221.673 197.337C222.723 195.498 224.832 194.781 226.892 193.5C228.893 203.255 233.259 205.179 234.074 209.205L233.615 210.331L233.193 210.358C231.534 210.768 226.486 211.311 224.851 210.785C223.608 208.579 226.119 206.247 226.037 203.952C226.018 203.412 224.303 202.491 223.682 202.083L222.863 200.663Z" fill="#2C7848"/>
<path d="M131.956 215.207C133.874 214.226 135.102 213.363 137.23 213.368C138.24 214.032 138.2 213.962 138.844 214.976C141.085 214.216 142.178 214.529 144.222 215.648L144.237 218.453C143.352 220.741 142.501 221.301 140.196 222.077C138.249 223.238 135.787 224.979 133.633 225.117L133.381 221.786C133.014 221.202 132.928 220.13 132.796 219.378C133.249 218.849 133.654 218.381 134.132 217.871L134.504 217.479L134.194 216.316C133.256 216.06 132.776 215.703 131.956 215.207Z" fill="#267161"/>
<path d="M138.844 214.976C141.085 214.216 142.179 214.529 144.223 215.648L144.237 218.453C143.352 220.741 142.501 221.301 140.197 222.077L138.098 220.076C137.16 219.046 137.081 218.81 136.44 217.551C137.041 215.796 136.967 216.291 138.844 214.976Z" fill="#CCE3E6"/>
<path d="M144.237 218.452C143.352 220.741 142.501 221.301 140.197 222.077L138.098 220.076C140.12 219.423 142.173 218.958 144.237 218.452Z" fill="#3F786D"/>
<path d="M134.599 147.758C139.871 148.035 144.602 148.229 149.609 150.099C147.461 151.413 141.214 152.749 138.467 153.446C137.623 151.708 139.002 153.776 139.09 151.272L138.194 150.422C135.341 150.139 135.036 150.405 134.599 147.758Z" fill="#25574E"/>
<path d="M136.477 176.475C138.564 177.603 142.2 179.274 143.445 181.078C143.749 183.275 142.877 183.775 141.167 185.179C140.097 184.531 138.255 182.959 136.774 182.002L135.929 181.864C134.012 180.278 134.94 177.945 136.477 176.475Z" fill="#25574E"/>
<path d="M223.682 202.083C222.877 202.35 222.077 202.632 221.283 202.929C220.991 204.356 220.917 203.676 221.572 205.03L223.134 205.381L223.485 206.035L222.881 207.657C220.636 209.746 218.377 209.38 216.386 207.301C216.051 203.124 219.634 202.015 222.863 200.663L223.682 202.083Z" fill="#318D54"/>
<path d="M186.438 235.156C195.783 234.463 199.809 243.203 192.621 248.041C190.071 248.286 188.076 248.6 185.849 246.982C184.459 245.987 183.579 244.422 183.445 242.713C183.182 239.669 184.685 237.396 186.438 235.156Z" fill="#2E693E"/>
<path d="M199.395 180.623C203.088 184.096 207.459 179.148 211.565 182.146C211.992 183.972 212.018 183.216 211.062 185.153C207.188 186.344 200.775 188.01 198.069 183.933C198.244 181.603 197.904 182.484 199.395 180.623Z" fill="#25574E"/>
<path d="M437.699 157.872C440.227 154.826 445.666 146.439 448.083 145.833C452.021 149.725 441.169 155.57 438.513 160.569L438.109 160.607L437.63 158.307L437.699 157.872Z" fill="#424341"/>
<path d="M400.705 134.657C400.993 133.411 406.559 120.953 407.602 120.075C409.193 119.73 408.427 119.65 409.955 120.454C410.641 123.712 404.148 130.687 402.284 135.216L401.293 136.323L400.705 134.657Z" fill="#262623"/>
<path d="M415.65 170.824C416.87 170.283 418.296 170.803 418.879 172C419.462 173.198 418.99 174.641 417.81 175.264C417.012 175.686 416.05 175.638 415.295 175.141C414.546 174.644 414.123 173.776 414.195 172.876C414.272 171.977 414.831 171.19 415.65 170.824Z" fill="#202811"/>
<path d="M397.543 156.46C398.762 155.919 400.188 156.439 400.771 157.636C401.355 158.834 400.882 160.278 399.703 160.9C398.905 161.322 397.943 161.274 397.188 160.778C396.438 160.28 396.016 159.412 396.087 158.513C396.165 157.614 396.723 156.826 397.543 156.46Z" fill="#202811"/>
<path d="M405.95 175.436L405.237 174.505C403.075 171.899 399.019 170.295 397.261 169.819C396.988 175.022 401.274 177.535 405.95 175.436Z" fill="#202811"/>
<defs>
<filter id="filter0_d_177_304" x="331.854" y="151.629" width="69.2256" height="69.2998" filterUnits="userSpaceOnUse" color-interpolation-filters="sRGB">
<feFlood flood-opacity="0" result="BackgroundImageFix"/>
<feColorMatrix in="SourceAlpha" type="matrix" values="0 0 0 0 0 0 0 0 0 0 0 0 0 0 0 0 0 0 127 0" result="hardAlpha"/>
<feOffset dy="-1"/>
<feGaussianBlur stdDeviation="3.75"/>
<feComposite in2="hardAlpha" operator="out"/>
<feColorMatrix type="matrix" values="0 0 0 0 0 0 0 0 0 0 0 0 0 0 0 0 0 0 0.1 0"/>
<feBlend mode="normal" in2="BackgroundImageFix" result="effect1_dropShadow_177_304"/>
<feBlend mode="normal" in="SourceGraphic" in2="effect1_dropShadow_177_304" result="shape"/>
</filter>
<filter id="filter1_d_177_304" x="331.814" y="221.984" width="112.188" height="193.023" filterUnits="userSpaceOnUse" color-interpolation-filters="sRGB">
<feFlood flood-opacity="0" result="BackgroundImageFix"/>
<feColorMatrix in="SourceAlpha" type="matrix" values="0 0 0 0 0 0 0 0 0 0 0 0 0 0 0 0 0 0 127 0" result="hardAlpha"/>
<feOffset dy="-1"/>
<feGaussianBlur stdDeviation="3.75"/>
<feComposite in2="hardAlpha" operator="out"/>
<feColorMatrix type="matrix" values="0 0 0 0 0 0 0 0 0 0 0 0 0 0 0 0 0 0 0.1 0"/>
<feBlend mode="normal" in2="BackgroundImageFix" result="effect1_dropShadow_177_304"/>
<feBlend mode="normal" in="SourceGraphic" in2="effect1_dropShadow_177_304" result="shape"/>
</filter>
<filter id="filter2_d_177_304" x="337.343" y="195.463" width="82.3257" height="79.1643" filterUnits="userSpaceOnUse" color-interpolation-filters="sRGB">
<feFlood flood-opacity="0" result="BackgroundImageFix"/>
<feColorMatrix in="SourceAlpha" type="matrix" values="0 0 0 0 0 0 0 0 0 0 0 0 0 0 0 0 0 0 127 0" result="hardAlpha"/>
<feOffset dy="-1"/>
<feGaussianBlur stdDeviation="3.75"/>
<feComposite in2="hardAlpha" operator="out"/>
<feColorMatrix type="matrix" values="0 0 0 0 0 0 0 0 0 0 0 0 0 0 0 0 0 0 0.1 0"/>
<feBlend mode="normal" in2="BackgroundImageFix" result="effect1_dropShadow_177_304"/>
<feBlend mode="normal" in="SourceGraphic" in2="effect1_dropShadow_177_304" result="shape"/>
</filter>
<filter id="filter3_d_177_304" x="331.898" y="104.988" width="27.5488" height="31.9802" filterUnits="userSpaceOnUse" color-interpolation-filters="sRGB">
<feFlood flood-opacity="0" result="BackgroundImageFix"/>
<feColorMatrix in="SourceAlpha" type="matrix" values="0 0 0 0 0 0 0 0 0 0 0 0 0 0 0 0 0 0 127 0" result="hardAlpha"/>
<feOffset dy="-1"/>
<feGaussianBlur stdDeviation="3.75"/>
<feComposite in2="hardAlpha" operator="out"/>
<feColorMatrix type="matrix" values="0 0 0 0 0 0 0 0 0 0 0 0 0 0 0 0 0 0 0.1 0"/>
<feBlend mode="normal" in2="BackgroundImageFix" result="effect1_dropShadow_177_304"/>
<feBlend mode="normal" in="SourceGraphic" in2="effect1_dropShadow_177_304" result="shape"/>
</filter>
<filter id="filter4_d_177_304" x="326.937" y="121.27" width="46.8398" height="54.9675" filterUnits="userSpaceOnUse" color-interpolation-filters="sRGB">
<feFlood flood-opacity="0" result="BackgroundImageFix"/>
<feColorMatrix in="SourceAlpha" type="matrix" values="0 0 0 0 0 0 0 0 0 0 0 0 0 0 0 0 0 0 127 0" result="hardAlpha"/>
<feOffset dy="-1"/>
<feGaussianBlur stdDeviation="3.75"/>
<feComposite in2="hardAlpha" operator="out"/>
<feColorMatrix type="matrix" values="0 0 0 0 0 0 0 0 0 0 0 0 0 0 0 0 0 0 0.1 0"/>
<feBlend mode="normal" in2="BackgroundImageFix" result="effect1_dropShadow_177_304"/>
<feBlend mode="normal" in="SourceGraphic" in2="effect1_dropShadow_177_304" result="shape"/>
</filter>
</defs>
</svg>
