<svg width="418" height="317" viewBox="0 0 418 317" fill="none" xmlns="http://www.w3.org/2000/svg">
<path d="M367.053 16.4172C372.54 9.09589 371.407 7.62428 375.175 0.745781C376.718 -0.22979 376.042 0.0150205 378.006 0.0602597L378.618 0.9262C378.357 3.42181 372.003 12.1722 369.874 15.9653C386.884 17.0607 398.619 22.2169 405.719 38.7356C407.816 35.8701 413.01 28.1975 415.342 26.3177L416.316 26.1724C417.396 27.8462 417.289 27.1878 417.289 28.9751C413.037 34.0025 411.478 34.0174 406.709 40.5335C410.259 58.3098 405.57 74.2441 387.943 82.0695C388.054 83.7103 394.356 90.4366 395.889 92.0343C396.884 95.9909 395.969 129.003 395.979 135.169L396.022 234.479C395.99 255.193 395.41 276.69 396.437 297.308C377.767 302.093 356.49 305.409 337.478 309.395C329.51 311.066 306.456 316.287 299.092 316.426C298.306 316.389 292.966 315.143 291.53 314.925C282.24 313.52 273.014 311.465 263.829 309.757C252.117 307.575 239.754 306.26 227.932 304.493C218.195 303.04 207.954 300.789 198.267 299.89C189.854 300.752 180.262 302.865 171.739 304.238L124.763 311.604C116.678 312.94 100.61 316.112 93.13 315.989C89.7626 314.696 75.9046 312.674 71.5994 311.822C55.2815 308.586 39.2275 305.435 23.0032 301.704C13.8112 299.586 9.66412 300.209 0.106987 296.324L0 39.7974C7.36011 39.5935 21.9452 36.2133 29.0455 34.2558C38.7001 31.5947 50.5207 30.4499 59.5637 28.3338C83.6671 22.6938 93.997 19.2039 118.802 24.6598L177 33.7619C180.64 34.3335 192.581 36.942 194.943 36.8818C204.966 37.0644 216.885 34.3027 227.074 32.7204L284.391 23.9152C287.694 23.4213 299.588 21.2115 302.22 21.7033C315.55 23.7172 325.965 25.7487 339.073 28.7781L341.88 31.7656C342.073 31.6985 342.646 31.5415 342.748 31.4217C342.89 31.2174 343.035 31.0151 343.184 30.8155C349.011 22.9822 357.343 17.7919 367.053 16.4172Z" fill="#9DC1CD"/>
<path d="M0 39.7974C7.36011 39.5935 21.9452 36.2134 29.0455 34.2558C38.7001 31.5947 50.5207 30.4499 59.5637 28.3338C83.6671 22.6938 93.997 19.2039 118.802 24.6598L177 33.7619C180.64 34.3335 192.581 36.942 194.943 36.8818C196.244 37.2858 197.618 37.3651 197.914 38.4955C198.973 42.5357 198.403 49.3264 198.401 53.6869C198.388 65.5119 197.681 85.0829 198.568 96.4486C198.724 98.9889 198.893 101.369 198.861 103.918C198.513 106.427 198.207 109.904 198.831 112.347L199.98 113.147L200.109 113.533L200.377 114.043C197.46 117.232 198.611 127.281 198.041 131.602C198.024 131.729 197.082 132.084 196.894 132.124L197.563 132.448L198.547 143.374C198.223 152.543 197.923 165.508 197.91 174.689L198.495 175.402C198.477 179.729 199.092 194.961 197.762 197.904L195.823 198.335L198.431 198.798C197.826 205.425 198.424 219.039 198.417 226.426L198.391 284.035C198.395 288.574 198.605 295.552 198.267 299.89C189.854 300.752 180.262 302.865 171.739 304.238L124.763 311.604C116.678 312.94 100.61 316.112 93.13 315.989C89.7626 314.696 75.9046 312.674 71.5994 311.822C55.2815 308.586 39.2275 305.435 23.0032 301.704C13.8112 299.586 9.66412 300.209 0.106987 296.324L0 39.7974Z" fill="#9DC1CD"/>
<path d="M0 39.7974C7.36011 39.5935 21.9452 36.2134 29.0455 34.2558C38.7001 31.5947 50.5207 30.4499 59.5637 28.3338C83.6671 22.6938 93.997 19.2039 118.802 24.6598C113.723 26.3581 95.7719 20.46 93.9374 23.5863C91.8287 27.1799 94.1008 53.8365 91.9745 56.0473C89.943 56.2629 87.7359 56.4566 85.7305 56.7387C87.5496 57.0325 90.8111 58.0543 92.1246 59.3242C93.0842 61.1295 92.9246 61.8443 92.8229 63.8652L89.5561 64.8062L88.6205 65.2564C86.8907 66.8313 85.1599 68.4626 83.3435 69.9305C83.6729 71.3036 83.6378 71.2424 83.278 72.5229C83.7379 74.3522 84.12 75.0207 84.9375 76.6972L86.1733 77.7361C91.561 81.9742 94.1769 79.7836 96.6565 82.9083L96.3835 84.9169C95.5745 83.6246 95.4563 83.3367 94.3403 82.3367C92.1369 82.9072 93.171 87.0437 93.4344 88.907C94.8714 90.2988 94.3786 90.2711 95.889 90.3131L96.0625 90.6617C97.3271 93.1552 98.5257 93.6922 99.1319 96.5689C98.3628 98.981 94.3121 98.8479 91.9075 98.9299L92.5174 99.7942C94.3003 99.9714 94.5372 99.7995 96.2983 99.2439L97.1222 99.6617C96.7268 101.518 94.9736 103.387 93.3056 104.242C92.3237 102.434 91.7462 100.845 90.0277 99.8544C90.6562 101.342 91.9543 104.686 92.8389 105.849C93.0693 108.499 93.0693 117.421 93.8261 118.583C97.0088 120.242 98.5629 119.534 102.025 120.918C100.692 121.051 99.5188 121.229 98.1808 121.09C97.1313 123.424 95.7735 125.396 96.7448 127.92C93.8527 128.86 95.3323 130.25 93.1497 131.985L93.0044 132.845C92.849 150.653 92.3875 172.07 92.8133 189.793C95.4111 190.091 98.9296 194.583 99.5928 196.957C96.3207 198.83 97.1371 202.529 93.7101 205.228L91.991 205.717C93.4243 211.002 92.6542 227.954 92.4993 234.208L92.8399 234.463C92.3088 237.22 92.9182 241.898 92.9661 244.953L99.5252 246.38C101.212 249.647 106.497 250.797 105.515 253.692C103.694 259.052 99.9387 263.139 102.51 269.169L102.873 269.473C103.55 272.012 103.828 271.533 103.102 273.693C100.864 275.391 98.6428 274.705 96.5559 276.04C94.5122 277.35 96.6155 277.669 93.5962 278.494L91.7835 278.632L91.3683 279.255C91.5323 279.575 91.9314 280.421 92.1321 280.66L92.9948 281.251C93.4866 287.02 92.652 293.865 93.015 299.842C93.0464 305.084 92.9618 310.79 93.13 315.989C89.7626 314.696 75.9046 312.674 71.5994 311.822C55.2815 308.586 39.2275 305.435 23.0032 301.704C13.8112 299.586 9.66412 300.209 0.106987 296.324L0 39.7974Z" fill="#C2E1E3"/>
<path d="M56.8961 81.1603C58.1766 76.5767 57.6002 75.2616 62.4057 74.1067L63.2668 75.3367L63.294 75.8018L65.9875 75.9604L66.508 76.5815C69.3629 75.9045 69.5811 75.4351 71.8862 77.7482C73.3881 76.1281 73.6196 75.9599 75.6032 74.9854C78.7811 75.3718 82.4939 74.8247 84.9373 76.697L86.1732 77.7359C91.5609 81.974 94.1767 79.7834 96.6564 82.9081L96.3833 84.9167C95.5743 83.6245 95.4562 83.3366 94.3401 82.3365C92.1367 82.9071 93.1708 87.0435 93.4343 88.9068C94.8713 90.2986 94.3784 90.2709 95.8889 90.313L96.0624 90.6616C97.327 93.1551 98.5255 93.6921 99.1317 96.5688C98.3627 98.9808 94.3119 98.8478 91.9073 98.9297L92.5173 99.7941C94.3002 99.9713 94.537 99.7994 96.2982 99.2437L97.122 99.6616C96.7266 101.517 94.9735 103.387 93.3055 104.241C92.3235 102.434 91.7461 100.845 90.0275 99.8542C90.6561 101.342 91.9542 104.686 92.8387 105.849C93.0692 108.499 93.0692 117.421 93.826 118.583C97.0087 120.242 98.5628 119.534 102.024 120.918C100.692 121.051 99.5187 121.228 98.1806 121.09C97.1311 123.424 95.7734 125.396 96.7447 127.92C93.8526 128.86 95.3322 130.25 93.1495 131.985C92.3379 130.125 91.5938 130.591 89.9088 130.698C90.4102 128.939 91.5231 126.389 90.9892 124.918C88.9875 124.658 88.6821 125.216 86.5883 126.161C81.3124 128.672 77.4388 130.324 71.7457 131.582C67.3788 128.911 66.1014 126.35 60.4333 123.693C52.8155 120.12 19.442 125.388 15.9596 123.174C15.8707 111.069 15.9442 98.9324 15.9506 86.8274C15.9516 84.6943 15.693 83.4143 16.9634 82.1646C20.0455 83.2424 23.8089 83.5489 27.0911 83.9582L28.1108 86.2968C29.6787 85.6171 34.3133 85.672 36.3417 85.1781C37.8883 84.8018 39.0794 84.3233 40.5813 83.9641L41.6399 84.8199L41.9933 84.7347C45.8535 83.2126 46.0483 85.6257 48.8569 83.7038C48.9218 86.1297 48.9154 86.3042 51.4334 87.1356C53.542 83.8651 53.8262 83.4584 56.8961 81.1603Z" fill="#28675D"/>
<path d="M90.0278 99.8542C85.9233 98.8558 83.2872 97.9605 79.1561 98.6604C75.9218 100.916 79.9411 103.523 79.6409 107.619C79.4807 109.807 75.4044 110.385 75.3757 111.652C75.3432 113.103 75.9441 113.909 75.1633 116.081L73.9983 116.593C72.3277 115.293 72.1377 111.439 71.1775 111.16C66.9187 109.924 56.6399 106.96 55.1528 102.292C55.9011 95.2909 74.5513 89.3534 76.2491 86.7359L75.5439 84.4223L75.975 83.781C82.0934 81.3237 84.7024 84.0577 89.1076 88.2421C86.3145 90.347 80.6804 92.7362 79.9156 94.2946C82.0929 95.6874 84.5837 95.0466 87.2991 94.7874C88.7856 96.2484 90.3344 97.5651 91.9076 98.9297L92.5175 99.7941C94.3005 99.9713 94.5373 99.7994 96.2985 99.2437L97.1223 99.6616C96.7269 101.517 94.9738 103.387 93.3058 104.241C92.3238 102.434 91.7464 100.845 90.0278 99.8542Z" fill="#BFD4D7"/>
<path d="M70.278 90.4783C72.3532 91.5156 75.6082 92.9435 77.1378 94.5221L76.8882 95.1688L74.9462 95.2853C72.0658 95.8388 69.9145 96.6015 67.3737 95.1267L67.1294 94.008C67.9283 92.1095 68.683 91.7024 70.278 90.4783Z" fill="#1A7E6F"/>
<path d="M63.2941 75.802L65.9877 75.9606L66.5082 76.5817C69.3631 75.9047 69.5813 75.4353 71.8863 77.7483C72.4281 79.2961 72.7805 79.7942 72.4148 81.3058C71.9694 81.6224 71.6516 81.9418 71.1833 82.0535C70.1263 83.1866 69.519 85.2597 68.5552 86.983L67.7387 86.967C64.7535 85.0989 63.8104 83.8732 62.1025 80.7746C61.8513 78.7122 62.4868 77.7366 63.2941 75.802Z" fill="#C2E1E3"/>
<path d="M66.5081 76.5818C69.363 75.9048 69.5812 75.4354 71.8862 77.7485C72.428 79.2962 72.7804 79.7944 72.4147 81.3059C71.9693 81.6226 71.6515 81.9419 71.1832 82.0536C68.6077 82.0946 67.7014 82.266 65.9796 80.5996C65.5863 78.7533 65.846 78.4515 66.5081 76.5818Z" fill="#28675D"/>
<path d="M86.5884 126.161C90.8355 121.834 91.7919 119.63 98.1807 121.09C97.1312 123.424 95.7735 125.396 96.7448 127.92C93.8527 128.86 95.3323 130.25 93.1496 131.985C92.338 130.125 91.5939 130.592 89.9089 130.699C90.4103 128.939 91.5231 126.389 90.9893 124.918C88.9876 124.658 88.6821 125.217 86.5884 126.161Z" fill="#2C7848"/>
<path d="M75.6035 74.9856C78.7814 75.372 82.4942 74.8249 84.9376 76.6972L86.1735 77.7361C78.3556 79.5744 81.2206 78.9267 75.9032 75.1921L75.6035 74.9856Z" fill="#1A7E6F"/>
<path d="M28.1108 86.2969C29.6788 85.6172 34.3134 85.672 36.3417 85.1781C37.8883 84.8018 39.0794 84.3234 40.5814 83.9641L41.64 84.8199C38.635 87.0808 31.4521 88.8984 28.1108 86.2969Z" fill="#B0D4CF"/>
<path d="M48.8567 83.7039C48.9216 86.1297 48.9153 86.3043 51.4332 87.1357C47.7316 86.9036 44.4244 87.2166 41.9932 84.7348C45.8534 83.2126 46.0482 85.6257 48.8567 83.7039Z" fill="#8FBBC0"/>
<path d="M15.9595 123.175C19.4418 125.388 52.8154 120.121 60.4331 123.693C66.1013 126.35 67.3786 128.911 71.7455 131.582C77.4387 130.324 81.3122 128.672 86.5882 126.161C88.6819 125.217 88.9874 124.658 90.9891 124.918C91.5229 126.389 90.41 128.939 89.9087 130.699C86.5791 133.397 78.2727 141.425 76.1103 144.645C76.3136 145.56 76.4147 145.512 77.1343 146.156C76.5744 147.561 69.8098 152.325 66.9922 155.651C68.2249 159.286 69.6204 161.782 68.0418 165.295L67.1934 165.811C64.3625 164.859 63.4828 160.824 62.8281 158.152C56.616 157.397 52.5557 158.791 46.3489 158.695L42.2614 162.378L41.0224 168.052C40.2166 160.452 33.1317 157.7 26.6247 155.47C22.7954 154.161 19.9522 154.741 15.9755 154.917C15.9052 144.336 15.8999 133.755 15.9595 123.175Z" fill="#43904A"/>
<path d="M73.3369 230.125C80.5033 220.71 82.2554 230.375 86.6824 230.269C88.2445 231.371 90.9056 233.361 92.4991 234.208L92.8397 234.463C92.3085 237.22 92.9179 241.898 92.9658 244.953L99.5249 246.38C101.212 249.647 106.497 250.797 105.515 253.692C103.694 259.052 99.9385 263.139 102.51 269.169L102.873 269.473C103.55 272.012 103.827 271.533 103.101 273.693C100.863 275.391 98.6425 274.705 96.5557 276.041C94.5119 277.35 96.6153 277.669 93.596 278.494L91.7832 278.632L91.3681 279.255C91.532 279.575 91.9312 280.421 92.1318 280.66L92.9946 281.251C93.4863 287.02 92.6518 293.865 93.0148 299.842C91.515 298.793 86.222 298.74 84.099 298.559C80.672 297.755 75.3508 297.516 75.7266 293.173C77.1955 276.206 82.2032 259.653 82.3304 242.51C82.3544 239.226 81.5326 238.311 79.2893 236.235L79.8327 236.134L79.9535 235.756C77.1423 233.681 75.8277 232.574 73.3369 230.125Z" fill="#2F9B84"/>
<path d="M92.9662 244.953L99.5253 246.38C101.212 249.647 106.497 250.797 105.515 253.692C103.694 259.052 99.9388 263.139 102.511 269.169L102.874 269.473C103.551 272.012 103.828 271.533 103.102 273.693C100.864 275.391 98.6429 274.705 96.556 276.04C94.5123 277.35 96.6156 277.669 93.5963 278.494C92.7751 275.098 92.9758 250.121 92.9662 244.953Z" fill="#1A7E6F"/>
<path d="M92.132 280.66L92.9947 281.251C93.4865 287.021 92.6519 293.865 93.0149 299.842C91.5151 298.793 86.2222 298.74 84.0991 298.559C89.317 294.876 87.9226 287.409 92.132 280.66Z" fill="#BFD4D7"/>
<path d="M70.9282 203.04C71.8899 192.598 69.7296 197.665 68.637 192.593C70.1857 191.299 69.5742 192.609 72.6574 192.71C78.6241 186.174 83.8287 188.063 91.2995 191.214L92.8132 189.793C95.411 190.091 98.9295 194.583 99.5926 196.957C96.3205 198.83 97.137 202.529 93.71 205.228L91.9909 205.717C93.4242 211.002 92.654 227.954 92.4992 234.208C90.9057 233.361 88.2446 231.371 86.6825 230.269C82.2555 230.376 80.5034 220.71 73.337 230.125C75.8278 232.574 77.1424 233.681 79.9536 235.756L79.8328 236.134L79.2894 236.235C78.292 235.842 74.9784 233.819 74.4946 232.967C68.6561 222.68 62.6824 218.933 66.8976 206.564L70.9282 203.04Z" fill="#43904A"/>
<path d="M91.9909 205.718C93.4242 211.003 92.6541 227.954 92.4992 234.208C90.9057 233.361 88.2446 231.371 86.6825 230.269C83.4871 224.218 75.9678 227.821 80.7499 215.239C83.6867 207.516 84.7367 209.017 91.9909 205.718Z" fill="#ABC13B"/>
<path d="M92.8134 189.793C95.4112 190.091 98.9298 194.583 99.5929 196.957C96.3208 198.83 97.1372 202.529 93.7102 205.228C92.0311 201.47 93.9418 195.19 91.2998 191.214L92.8134 189.793Z" fill="#2C7848"/>
<path d="M15.9756 154.916C19.9524 154.741 22.7955 154.161 26.6248 155.47C33.1318 157.7 40.2167 160.451 41.0225 168.052C40.7575 170.782 40.2205 173.613 42.2722 175.785C47.0899 180.878 51.3567 172.224 56.5576 172.368C58.4518 174.965 57.0025 178.648 56.2691 181.639C58.5891 181.549 60.4801 181.176 62.3929 182.315C64.3211 184.854 62.8384 188.228 62.6979 191.746L61.4147 193.364C60.5429 192.47 57.5491 189.303 56.7008 188.819C51.6399 185.935 49.9799 186.249 45.2037 182.262C28.444 182.385 29.5217 173.816 21.1978 163.677L20.1035 164.608C18.6474 162.697 17.7064 160.393 15.9878 158.19C16.3316 157.492 16.5078 157.476 17.1268 156.902L15.9756 154.916Z" fill="#2C7848"/>
<path d="M17.1267 156.902C18.4605 159.169 19.8177 161.431 21.1977 163.677L20.1035 164.608C18.6473 162.698 17.7063 160.393 15.9878 158.19C16.3316 157.492 16.5078 157.476 17.1267 156.902Z" fill="#A3C3AD"/>
<path d="M85.7306 56.7388C87.5498 57.0326 90.8112 58.0544 92.1248 59.3243C93.0843 61.1296 92.9247 61.8444 92.823 63.8653L89.5562 64.8062L88.6206 65.2565C86.8909 66.8314 85.1601 68.4627 83.3436 69.9305C83.6731 71.3037 83.6379 71.2425 83.2782 72.523C83.738 74.3523 84.1201 75.0208 84.9376 76.6973C82.4942 74.8249 78.7814 75.372 75.6035 74.9856C73.6199 75.9601 73.3884 76.1283 71.8864 77.7484C69.5814 75.4353 69.3632 75.9048 66.5083 76.5818L65.9878 75.9606L63.2942 75.8021L63.2671 75.3369L62.406 74.1069C66.3822 70.0966 69.9353 70.7549 73.2686 67.2428C69.4563 67.6537 68.7069 68.6633 66.2688 66.9974C64.3629 65.9995 62.5656 65.4295 62.0547 63.2293C63.6333 61.8567 63.8999 62.1456 66.0969 61.6789C69.1913 58.5318 80.1593 58.072 85.7306 56.7388Z" fill="#2C7848"/>
<path d="M85.7304 56.7388C87.5495 57.0326 90.811 58.0544 92.1245 59.3243C93.0841 61.1296 92.9244 61.8444 92.8228 63.8653L89.556 64.8062L88.6204 65.2565C88.1249 64.8046 87.7693 64.4715 87.1062 64.3491C84.9023 63.943 82.5418 61.8945 81.0814 60.8689C78.8163 60.7683 76.9817 60.6863 75.5777 60.624L75.8672 61.68L75.4851 62.0573L71.9804 61.3244L71.5456 61.6858C73.7554 61.9674 75.3132 62.1345 77.4708 62.7284L77.5086 63.2458L76.0684 64.0244C73.3674 64.1931 68.5912 62.7481 66.0967 61.6789C69.191 58.5318 80.1591 58.072 85.7304 56.7388Z" fill="#488C6B"/>
<path d="M83.3436 69.9304C83.673 71.3036 83.6379 71.2423 83.2781 72.5229C83.738 74.3521 84.1201 75.0206 84.9376 76.6971C82.4942 74.8248 78.7814 75.3719 75.6035 74.9855C73.6199 75.96 73.3884 76.1282 71.8864 77.7483C69.5814 75.4352 69.3632 75.9046 66.5083 76.5816L65.9878 75.9605L63.2942 75.8019L63.2671 75.3368L64.8632 75.2766C70.6932 71.0923 77.6238 77.6285 83.3436 69.9304Z" fill="#B0D4CF"/>
<path d="M55.5258 66.1251L56.7052 64.6843C61.1913 65.083 60.3562 69.2567 66.2687 66.9974C68.7068 68.6633 69.4562 67.6536 73.2685 67.2427C69.9352 70.7549 66.382 70.0966 62.4058 74.1069C57.6004 75.2618 58.1768 76.5769 56.8962 81.1605C53.8264 83.4586 53.5422 83.8653 51.4335 87.1358C48.9155 86.3044 48.9219 86.1299 48.857 83.704C45.9771 79.1061 46.223 78.3008 41.5938 77.1911C45.496 77.2007 45.1618 75.4726 47.7441 75.3746C48.2449 76.1511 48.3541 76.3428 49.0183 76.9506L49.4967 77.3811C50.7517 76.6573 52.0168 75.8483 53.2532 75.0846C51.9859 73.1089 50.1232 72.4096 48.0741 71.566C47.7164 71.2552 46.775 70.0705 46.4152 69.6415C46.008 67.5876 46.6217 67.1688 47.6441 65.0239C48.0241 65.3352 48.9108 66.1198 49.2961 66.2874C51.7566 66.5626 52.9839 67.6095 55.1729 67.363L55.5258 66.1251Z" fill="#B0D4CF"/>
<path d="M53.2534 75.0845C54.9953 74.8184 54.2811 74.7184 55.9092 75.6093C57.1838 77.9697 56.2663 79.5898 53.9415 80.4616C51.9042 80.3483 50.3905 79.7325 49.3271 77.9176L49.4969 77.3811C50.7519 76.6573 52.017 75.8483 53.2534 75.0845Z" fill="#1A7E6F"/>
<path d="M48.0742 71.5661C47.7165 71.2553 46.775 70.0705 46.4152 69.6415C46.0081 67.5877 46.6217 67.1688 47.6441 65.0239C48.0241 65.3353 48.9108 66.1198 49.2962 66.2874C50.7491 71.4085 52.1883 69.0678 52.3681 71.3824L51.9738 71.441L52.0483 71.4101C50.9902 71.1073 49.9518 70.8199 48.9044 70.4809L48.0742 71.5661Z" fill="#BFD4D7"/>
<path d="M30.1892 74.333C31.6757 74.8328 33.596 75.4113 34.9761 76.0713L35.1203 77.5136L35.8792 77.9947C37.7617 77.6003 39.6814 77.4173 41.5937 77.1911C46.223 78.3008 45.9771 79.106 48.857 83.7039C46.0484 85.6258 45.8536 83.2127 41.9934 84.7348L41.64 84.82L40.5814 83.9642C39.0795 84.3234 37.8884 84.8019 36.3417 85.1782C34.3134 85.6721 29.6788 85.6173 28.1109 86.2969L27.0912 83.9583L27.7266 83.0301L25.5967 81.1737L25.6052 80.3567L26.7234 79.9991C27.6803 78.808 27.6644 78.6781 28.0641 77.1645C28.9295 76.6173 29.5878 75.2894 30.1892 74.333Z" fill="#307164"/>
<path d="M30.1895 74.333C31.676 74.8328 33.5962 75.4113 34.9763 76.0713C33.9097 78.6696 29.3768 80.9603 26.7236 79.9991C27.6806 78.808 27.6646 78.6781 28.0643 77.1645C28.9297 76.6173 29.5881 75.2894 30.1895 74.333Z" fill="#28675D"/>
<path d="M20.0688 73.5295C22.3712 69.3493 26.9739 67.1358 31.7038 67.915L32.4537 69.4537C31.047 70.7321 30.2146 71.0014 29.9836 72.5512C31.5271 73.7237 35.482 73.5428 37.7568 73.6939C36.3485 75.4913 36.1159 75.7446 35.8791 77.9948L35.1201 77.5137L34.9759 76.0714C33.5958 75.4114 31.6756 74.8329 30.1891 74.3331C27.2054 73.3746 23.2659 73.5534 20.0688 73.5295Z" fill="#BFD4D7"/>
<path d="M20.0691 73.5295C23.2661 73.5535 27.2056 73.3747 30.1893 74.3332C29.5879 75.2896 28.9295 76.6175 28.0641 77.1647C23.3215 78.6959 21.7919 80.4368 16.9614 79.574C16.8975 77.8331 18.9663 75.4376 20.0691 73.5295Z" fill="#235951"/>
<path d="M32.4539 69.4536L33.0596 69.6915C37.4957 71.4064 41.9344 68.9571 44.7808 71.6054L44.7568 72.589C42.4901 73.9786 40.4261 72.5129 37.757 73.6939C35.4823 73.5427 31.5273 73.7237 29.9839 72.5512C30.2149 71.0013 31.0473 70.732 32.4539 69.4536Z" fill="#28675D"/>
<path d="M15.988 158.19C17.7066 160.393 18.6476 162.698 20.1037 164.608C21.1655 166.753 22.1389 170 22.9218 172.347C17.9775 168.073 15.6309 164.715 15.988 158.19Z" fill="#2C7848"/>
<path d="M62.6977 191.746C65.5989 193.359 66.2503 191.374 67.8449 194.397L67.5447 195.339C64.9661 195.962 63.3816 195.169 61.4146 193.364L62.6977 191.746Z" fill="#43904A"/>
<path d="M47.644 65.024C49.9087 64.6573 53.3292 65.4535 55.5257 66.1252L55.1729 67.3631C52.9838 67.6095 51.7565 66.5627 49.2961 66.2875C48.9107 66.1198 48.0241 65.3353 47.644 65.024Z" fill="#28675D"/>
<path d="M74.9598 175.546C69.4704 174.258 67.9994 172.012 61.3535 171.282L61.3956 170.447C61.9182 170.122 64.2009 168.712 64.5559 168.68C68.0095 168.35 73.9725 171.522 76.7348 173.246L74.9598 175.546Z" fill="#2C7848"/>
<path d="M76.7349 173.246L77.9851 171.99L78.8351 172.075C79.4343 173.379 79.5003 173.491 79.8032 174.875C82.269 174.38 81.7921 174.109 83.8928 174.875L84.3138 175.844C82.2775 179.058 78.6898 178.489 75.5513 177.185L74.96 175.546L76.7349 173.246Z" fill="#278966"/>
<path d="M76.7349 173.246L77.9851 171.99L78.8351 172.075C79.4343 173.379 79.5003 173.491 79.8032 174.875L75.5513 177.185L74.96 175.546L76.7349 173.246Z" fill="#B0D4CF"/>
<path d="M37.6661 65.6178C39.4421 65.5326 40.207 65.3464 41.3683 66.5939C41.224 67.9787 40.6333 68.3401 39.6444 69.3487C37.9721 68.8505 36.6709 68.6557 35.4175 67.4875L35.6671 66.637L37.6661 65.6178Z" fill="#28675D"/>
<path d="M111.237 58.4536C114.951 58.3083 117.647 58.2471 122.504 57.7899C134.383 56.6717 149.786 52.0514 161.17 56.841C161.831 57.1188 161.8 58.4414 162.04 58.4999C165.146 59.2583 170.978 58.65 174.514 59.12C166.418 63.6317 164.94 61.0621 163.305 70.656L163.662 71.1659C164.129 71.845 164.151 71.9376 164.366 72.7615C162.015 74.3454 160.883 75.3667 159.049 77.4908C159.08 79.764 161.484 79.136 159.728 80.8135C157.697 82.7535 154.623 84.8414 152.331 86.4434C139.843 86.3514 143.192 90.3776 132.783 93.2C130.511 96.6659 129.215 99.2642 127.368 102.941C124.179 101.844 121 100.719 117.832 99.5649C115.37 95.6025 114.438 93.6279 113.296 89.0859C114.345 87.2646 115.214 85.7297 116.143 83.8344C112.268 82.374 112.1 80.5719 112.167 76.816C106.802 68.0071 97.8546 74.8451 93.2333 69.3728L92.6175 69.0865C92.0997 65.966 92.3498 65.8707 89.5562 64.8063L92.8229 63.8653C95.5112 62.77 98.2165 61.7162 100.938 60.7039C104.475 59.9173 106.132 59.6346 109.389 58.0656L111.237 58.4536Z" fill="#7FAC37"/>
<path d="M109.389 58.0657L111.237 58.4537L110.862 58.6628C106.257 61.1749 97.9344 64.1533 93.6553 67.2817C93.3509 68.3414 93.2977 68.2791 93.2333 69.3728L92.6175 69.0865C92.0997 65.9661 92.3498 65.8708 89.5562 64.8063L92.8229 63.8653C95.5112 62.77 98.2165 61.7162 100.938 60.7039C104.475 59.9173 106.132 59.6347 109.389 58.0657Z" fill="#A3C3AD"/>
<path d="M99.5929 196.957C100.971 197.681 107.412 198.447 110.836 199.655C112.834 202.146 115.145 205.92 116.486 208.847C121.369 210.321 135.685 213.988 138.126 218.4C136.587 225.639 130.877 235.826 129.224 243.676C128.59 246.688 120.362 248.881 116.94 250.813C115.205 258.695 112.996 263.89 105.682 269.462C105.055 269.941 103.695 269.638 102.874 269.473L102.511 269.169C99.9389 263.139 103.694 259.052 105.515 253.692C106.497 250.797 101.212 249.647 99.5253 246.38L92.9662 244.953C92.9183 241.898 92.3089 237.22 92.8401 234.463L92.4995 234.208C92.6544 227.954 93.4245 211.002 91.9912 205.717L93.7103 205.228C97.1373 202.529 96.3208 198.83 99.5929 196.957Z" fill="#7FAC37"/>
<path d="M92.9662 244.953C92.9183 241.898 92.3089 237.22 92.8401 234.463C99.4588 237.619 99.2571 239.429 99.5253 246.379L92.9662 244.953Z" fill="#278966"/>
<path d="M198.392 284.035C198.395 288.575 198.605 295.552 198.268 299.89C189.854 300.752 180.262 302.865 171.739 304.238L124.763 311.604C116.678 312.94 100.61 316.112 93.1301 315.99C92.9619 310.79 93.0465 305.084 93.0151 299.842C95.2728 300.305 104.921 297.931 108.002 297.457L168.77 288.106C177.924 286.712 189.381 283.955 198.392 284.035Z" fill="#BFD4D7"/>
<path d="M163.913 171.352C166.626 165.763 167.579 162.921 172.028 158.546L172.437 158.786C175.088 160.276 177 160.585 179.522 161.942C185.782 165.3 192.433 170.175 197.91 174.689L198.495 175.402C198.477 179.729 199.092 194.961 197.762 197.904L195.824 198.335C188.593 201.369 187.333 201.358 179.605 202.183C178.644 201.688 177.7 201.162 176.773 200.608C173.353 198.548 172.017 196.717 169.567 193.939C161.52 184.801 166.601 182.518 163.913 171.352Z" fill="#1A7E6F"/>
<path d="M183.029 144.804C186.541 147.684 191.35 142.957 198.547 143.374C198.223 152.543 197.923 165.508 197.91 174.689C192.433 170.175 185.782 165.3 179.522 161.942C177 160.585 175.088 160.276 172.437 158.786L172.028 158.546C175.721 155.71 177.965 148.003 183.029 144.804Z" fill="#2C7848"/>
<path d="M193.826 116.758C196.051 114.153 196.467 113.479 200.109 113.533L200.377 114.043C197.46 117.231 198.61 127.281 198.041 131.602C198.024 131.729 197.081 132.084 196.894 132.124L197.563 132.448L198.547 143.374C191.35 142.957 186.541 147.683 183.029 144.804L183.148 144.591C181.678 143.715 180.249 143.516 178.574 143.125C176.728 140.771 177.322 132.762 179.531 130.574C181.247 130.024 183.742 131.263 185.845 131.59C190.636 130.511 189.01 126.778 186.536 124.113C185.627 123.795 185.054 123.705 184.434 122.972C186.963 121.096 188.873 122.393 192.145 119.018L192.547 118.597C193.839 117.582 193.48 118.21 193.826 116.758Z" fill="#2B7541"/>
<path d="M196.894 132.124L197.563 132.448L198.547 143.374C191.35 142.957 186.541 147.683 183.029 144.804L183.148 144.591C188.303 144.937 188.47 142.689 189.923 138.714C190.757 136.432 192.611 136.15 194.698 135.367C195.352 133.793 195.649 133.289 196.894 132.124Z" fill="#BFD4D7"/>
<path d="M92.8389 105.849C95.8582 104.137 96.715 103.645 98.3921 100.399C103.133 108.342 102.992 110.834 111.112 115.299C110.348 117.895 110.029 119.264 108.689 121.628L107.672 119.371C105.528 119.027 104.335 119.981 102.025 120.918C98.5629 119.534 97.0088 120.242 93.8261 118.583C93.0693 117.421 93.0693 108.499 92.8389 105.849Z" fill="#235951"/>
<path d="M182.422 109.212C181.769 106.419 181.431 103.581 184.796 102.672C187.239 103.884 190.959 112.742 193.827 116.759C193.481 118.21 193.84 117.582 192.548 118.597C189.976 118.816 185.671 119.948 183.727 118.677C183.476 116.679 184.048 116.35 185 114.264C185.644 112.732 185.659 113.44 185.354 112.097C183.955 111.094 183.411 110.619 182.422 109.212Z" fill="#2C7848"/>
<path d="M95.8888 90.3131C94.3783 90.2711 94.8712 90.2988 93.4342 88.907C93.1707 87.0437 92.1366 82.9072 94.34 82.3367C95.4561 83.3367 95.5743 83.6246 96.3832 84.9169C99.1183 86.4896 101.869 88.0357 104.634 89.5553C103.215 90.7906 101.981 92.2488 100.24 92.3569C98.4227 91.6756 96.8771 90.3089 95.8888 90.3131Z" fill="#235951"/>
<path d="M91.9745 56.0474C93.8985 55.7126 98.0253 55.8159 99.8099 56.2981L98.5267 57.0229C98.7992 58.6037 99.4996 59.8289 100.938 60.7038C98.2164 61.7161 95.5111 62.7699 92.8229 63.8652C92.9245 61.8444 93.0842 61.1296 92.1246 59.3243C90.8111 58.0544 87.5496 57.0325 85.7305 56.7387C87.7359 56.4567 89.943 56.2629 91.9745 56.0474Z" fill="#2C7848"/>
<path d="M102.025 120.918C104.336 119.981 105.528 119.027 107.673 119.372C105.47 121.467 104.947 121.746 103.812 124.575L103.056 127.154C100.71 127.626 99.1144 128.146 96.745 127.92C95.7737 125.396 97.1314 123.424 98.1809 121.09C99.5189 121.229 100.692 121.051 102.025 120.918Z" fill="#BFD4D7"/>
<path d="M182.421 109.211C183.411 110.619 183.955 111.094 185.353 112.097C185.659 113.44 185.644 112.732 185 114.263C182.132 114.869 180.369 117.818 176.331 117.012C174.08 111.969 178.843 110.463 182.421 109.211Z" fill="#43904A"/>
<path d="M107.672 119.372L108.689 121.628C110.963 122.055 113.072 122.791 114.005 125.169C112.602 127.755 105.933 125.636 103.812 124.575C104.947 121.746 105.469 121.467 107.672 119.372Z" fill="#28675D"/>
<path d="M99.81 56.2981C103.677 56.71 105.627 56.8575 109.389 58.0656C106.132 59.6346 104.476 59.9172 100.938 60.7039C99.4998 59.8289 98.7994 58.6037 98.5269 57.023L99.81 56.2981Z" fill="#235951"/>
<path d="M103.056 127.155L103.16 127.932C101.276 129.398 95.294 133.366 93.0044 132.845L93.1497 131.986C95.3323 130.25 93.8527 128.86 96.7448 127.92C99.1143 128.147 100.709 127.626 103.056 127.155Z" fill="#28675D"/>
<path d="M148.479 143.39C152.07 142.934 155.358 145.459 155.844 149.046C156.33 152.633 153.833 155.938 150.25 156.454C146.625 156.976 143.27 154.443 142.778 150.818C142.286 147.188 144.847 143.852 148.479 143.39Z" fill="#2C7848"/>
<path d="M157.914 88.7068C162.941 90.8809 168.963 87.5737 171.682 90.8969C171.074 92.707 171.211 92.1689 169.382 93.5511C166.49 94.7353 160.949 96.1957 158.647 93.5048L159.269 92.0891L159.004 91.5558L157.16 91.4105C157.071 89.8367 157.111 90.3051 157.914 88.7068Z" fill="#28675D"/>
<path d="M194.942 36.8818C204.966 37.0643 216.884 34.3026 227.074 32.7203L284.391 23.9152C287.694 23.4213 299.588 21.2115 302.22 21.7032L299.873 22.0853C298.152 24.6294 298.826 33.9694 298.849 37.5668L299.054 37.7733C298.684 47.3235 298.481 67.8494 299.089 77.4987L299.481 77.8537C297.874 79.9794 298.935 108.625 298.921 113.258L299.598 113.273C299.776 122.162 299.163 131.18 298.975 140.094C298.763 150.148 299.034 160.1 299.022 170.133C300.39 171.836 299.956 171.171 300.364 173.747C298.887 176.269 299.038 179.463 299.015 182.331C298.712 221.173 299.541 260.223 299.122 299.049C301.345 303.509 298.044 313.562 299.091 316.426C298.306 316.389 292.966 315.143 291.53 314.925C282.24 313.52 273.014 311.465 263.829 309.757C252.116 307.575 239.754 306.26 227.932 304.493C218.195 303.04 207.954 300.789 198.267 299.89C198.605 295.552 198.394 288.574 198.391 284.035L198.417 226.426C198.424 219.039 197.826 205.425 198.431 198.798L195.823 198.335L197.762 197.904C199.092 194.961 198.476 179.729 198.494 175.402L197.91 174.689C197.922 165.508 198.222 152.543 198.547 143.374L197.563 132.448L196.894 132.124C197.081 132.084 198.024 131.729 198.041 131.602C198.61 127.281 197.46 117.232 200.377 114.043L200.109 113.533L199.98 113.147L198.83 112.347C198.207 109.904 198.513 106.427 198.861 103.918C198.893 101.369 198.724 98.9889 198.568 96.4486C197.681 85.0829 198.388 65.5119 198.401 53.6869C198.403 49.3263 198.972 42.5356 197.914 38.4955C197.617 37.365 196.244 37.2858 194.942 36.8818Z" fill="#C2E1E3"/>
<path d="M194.942 36.8818C204.966 37.0643 216.884 34.3026 227.074 32.7203L284.391 23.9152C287.694 23.4213 299.588 21.2115 302.22 21.7032L299.873 22.0853C298.152 24.6294 298.826 33.9694 298.849 37.5668L299.054 37.7733C298.684 47.3235 298.481 67.8494 299.089 77.4987L299.481 77.8537C297.874 79.9794 298.935 108.625 298.921 113.258L299.598 113.273C299.776 122.162 299.163 131.18 298.975 140.094C298.763 150.148 299.034 160.1 299.022 170.133C295.243 165.838 293.617 166.301 288.102 165.896C288.499 162.442 286.427 153.341 286.813 146.289C284.249 144.889 283.743 144.276 281.73 142.166C278.02 142.14 275.037 141.058 273.66 144.756C273.646 144.469 273.633 144.183 273.619 143.897L273.585 143.474C273.399 141.042 272.912 140.329 271.85 138.182C270.421 138.496 267.619 138.971 266.48 139.662C266.513 137.592 265.792 136.758 264.725 135.025C262.206 134.666 258.276 133.882 255.91 134.342L255.408 135.08C250.166 137.828 247.571 136.641 242.823 133.578C241.458 134.312 238.425 135.842 237.383 136.725C236.396 137.563 236.965 137.226 235.459 137.465C231.849 135.329 230.791 134.894 226.639 135.029C224.968 136.566 222.786 137.311 220.679 138.213C218.246 135.075 221.431 136.082 216.192 132.316C213.58 130.958 214.382 129.179 210.128 128.952L210.632 128.237C210.616 126.802 208.946 112.29 208.628 111.099L207.806 110.175C206.478 110.87 206.397 110.966 204.938 111.05C205.017 109.878 205.625 109.337 206.356 108.389C206.926 107.831 206.963 106.628 206.983 105.874C204.634 103.002 202.801 104.776 198.861 103.918C198.893 101.369 198.724 98.9889 198.568 96.4486C197.681 85.0829 198.388 65.5119 198.401 53.6869C198.403 49.3263 198.972 42.5356 197.914 38.4955C197.617 37.365 196.244 37.2858 194.942 36.8818Z" fill="#C2E1E3"/>
<path d="M283.886 83.0402C281.907 80.3706 281.679 78.8809 284.478 76.5859C288.587 76.191 288.917 78.6941 289.726 82.1445L290.304 82.5298C291.714 81.4303 289.285 80.9736 290.6 78.338C292.733 77.3385 296.58 77.537 299.089 77.4987L299.482 77.8537C297.875 79.9794 298.935 108.625 298.922 113.258L299.599 113.273C299.776 122.162 299.163 131.18 298.975 140.094C298.764 150.148 299.034 160.1 299.023 170.133C295.243 165.838 293.617 166.301 288.102 165.896C288.5 162.442 286.427 153.341 286.814 146.289C284.249 144.889 283.744 144.276 281.73 142.166C278.02 142.14 275.037 141.058 273.66 144.756C273.647 144.469 273.633 144.183 273.62 143.897L273.585 143.474C273.399 141.042 272.912 140.329 271.85 138.182C270.422 138.496 267.619 138.971 266.48 139.662C266.513 137.592 265.793 136.758 264.725 135.025C262.207 134.666 258.276 133.882 255.91 134.342L255.409 135.08C250.166 137.828 247.571 136.641 242.824 133.578C241.458 134.312 238.425 135.842 237.383 136.725C236.397 137.563 236.966 137.226 235.459 137.465C231.849 135.329 230.792 134.894 226.639 135.029C224.969 136.566 222.786 137.311 220.679 138.214C218.246 135.075 221.431 136.082 216.193 132.316C213.581 130.958 214.382 129.179 210.129 128.952L210.632 128.237C210.617 126.802 208.946 112.29 208.629 111.099C212.588 110.86 216.548 110.653 220.51 110.48C221.101 108.721 221.151 108.451 222.168 106.937C224.097 106.738 224.361 106.716 225.884 105.535L225.954 104.397C225.257 104.196 225.322 104.179 224.683 103.818C227.415 102.03 229.33 101.977 232.485 100.993L232.723 99.4967C232.984 98.3434 232.772 91.6464 232.747 90.0486C232.619 87.2033 232.603 84.2894 231.905 81.5372C237.747 82.5219 243.72 83.5108 248.431 87.2598L251.327 88.4807C251.696 86.3619 251.766 86.0628 252.817 84.1936C254.036 84.4155 254.154 86.2634 255.56 88.1917C257.474 87.9421 260.651 84.9227 262.695 84.3511C265.768 83.4916 271.29 84.4299 274.081 83.564C272.984 83.0685 272.178 82.8423 271.436 81.9066C274.793 81.2748 280.191 84.416 283.886 83.0402Z" fill="#62A451"/>
<path d="M279.238 113.078C283.384 112.73 287.224 111.834 291.289 110.987C293.629 111.857 296.483 112.578 298.922 113.259L299.599 113.273C299.776 122.162 299.163 131.18 298.975 140.095C298.764 150.148 299.035 160.1 299.023 170.133C295.243 165.838 293.617 166.301 288.102 165.896C288.5 162.442 286.427 153.341 286.814 146.289C284.249 144.889 283.744 144.276 281.73 142.166C278.02 142.14 275.037 141.058 273.66 144.756C273.647 144.469 273.633 144.183 273.62 143.897L273.585 143.474C273.399 141.042 272.912 140.329 271.85 138.182C270.422 138.496 267.619 138.971 266.481 139.662C266.513 137.593 265.793 136.758 264.725 135.025C263.784 133.223 263.46 131.542 262.98 129.585C261.977 125.83 261.496 124.769 259.696 121.306C265.444 114.251 267.447 115.443 275.485 118.287L279.238 113.078Z" fill="#2F9B84"/>
<path d="M262.979 129.585C266.205 127.358 266.655 126.575 270.452 126.956L271.116 127.507C270.679 130.634 267.815 130.507 268.553 132.983C270.228 134.573 272.083 135.601 272.281 137.333L271.85 138.182C270.422 138.496 267.619 138.971 266.48 139.662C266.513 137.592 265.793 136.758 264.725 135.025C263.784 133.223 263.46 131.542 262.979 129.585Z" fill="#BFD4D7"/>
<path d="M232.485 100.993C233.26 103.602 233.862 104.736 234.911 107.055C237.009 111.697 249.846 119.181 249.869 123.433C248.01 125.828 246.086 125.901 245.451 127.885L245.638 128.95C248.667 130.3 253.112 132.696 255.409 135.08C250.166 137.828 247.571 136.641 242.824 133.578C241.458 134.312 238.425 135.842 237.383 136.726C236.397 137.563 236.966 137.226 235.459 137.465C231.849 135.329 230.792 134.894 226.639 135.029C224.969 136.566 222.786 137.312 220.679 138.214C218.246 135.075 221.431 136.082 216.193 132.317C213.581 130.958 214.382 129.18 210.129 128.952L210.632 128.238C210.617 126.802 208.946 112.29 208.629 111.099C212.588 110.86 216.548 110.653 220.51 110.48C221.101 108.721 221.151 108.451 222.168 106.937C224.097 106.738 224.361 106.716 225.884 105.535L225.954 104.398C225.257 104.196 225.322 104.179 224.683 103.818C227.415 102.03 229.33 101.977 232.485 100.993Z" fill="#2F9B84"/>
<path d="M237.383 136.726L235.396 136.343C231.87 133.202 234.872 128.116 238.357 127.288C239.609 128.099 240.843 128.935 242.061 129.796C243.729 129.97 244.136 129.688 245.638 128.95C248.667 130.3 253.112 132.696 255.408 135.08C250.166 137.828 247.571 136.641 242.823 133.578C241.458 134.312 238.425 135.842 237.383 136.726Z" fill="#C2E1E3"/>
<path d="M216.193 132.316C217.933 131.977 224.769 134.238 226.639 135.029C224.969 136.566 222.786 137.311 220.679 138.214C218.246 135.075 221.431 136.082 216.193 132.316Z" fill="#278966"/>
<path d="M248.431 87.2598L251.326 88.4807C248.481 89.5909 244.729 92.1483 241.547 91.6762L241.651 91.872C238.915 91.063 239.189 90.649 236.904 88.3412L242.894 88.8335C245.57 89.0379 246.402 89.0087 248.431 87.2598Z" fill="#B0D4CF"/>
<path d="M194.942 36.8818C204.966 37.0643 216.884 34.3026 227.074 32.7203L284.391 23.9152C287.694 23.4213 299.588 21.2115 302.22 21.7032L299.873 22.0853C298.152 24.6294 298.826 33.9694 298.849 37.5668C292.068 39.4822 281.063 39.7585 273.708 41.0135L224.7 49.1384C217.238 50.4105 205.562 52.9098 198.401 53.6869C198.403 49.3263 198.972 42.5356 197.914 38.4955C197.617 37.365 196.244 37.2858 194.942 36.8818Z" fill="#BFD4D7"/>
<path d="M210.673 85.0303C216.186 82.0775 223.855 78.733 230.13 79.7155C230.702 80.6341 230.874 81.0764 231.905 81.5373C232.603 84.2895 232.619 87.2034 232.747 90.0487C232.772 91.6464 232.984 98.3434 232.723 99.4968L232.485 100.993C229.329 101.977 227.414 102.03 224.683 103.818C225.322 104.179 225.257 104.196 225.954 104.397L225.884 105.535C224.361 106.716 224.097 106.738 222.167 106.937C221.15 108.451 221.1 108.721 220.51 110.48C216.547 110.653 212.587 110.86 208.628 111.099L207.806 110.175C206.478 110.87 206.397 110.966 204.938 111.05C205.017 109.878 205.625 109.337 206.356 108.389C206.926 107.831 206.963 106.629 206.983 105.874C204.634 103.002 202.801 104.776 198.861 103.918C198.893 101.369 198.724 98.989 198.568 96.4487C205.03 92.63 206.977 91.5911 210.673 85.0303Z" fill="#2F9B84"/>
<path d="M208.629 111.099C210.045 108.235 219.31 109.006 215.606 98.718L215.405 98.1687C216.372 95.11 219.808 92.219 222.404 90.3759C223.315 89.7298 224.358 90.2897 225.498 90.609L225.994 91.0417C227.753 91.4403 230.846 90.4909 232.747 90.0486C232.772 91.6463 232.984 98.3433 232.723 99.4967L232.485 100.993C229.33 101.977 227.415 102.03 224.683 103.818C225.322 104.179 225.257 104.196 225.954 104.397L225.884 105.535C224.361 106.716 224.097 106.738 222.168 106.937C221.151 108.451 221.101 108.721 220.51 110.48C216.548 110.653 212.588 110.86 208.629 111.099Z" fill="#C2E1E3"/>
<path d="M232.747 90.0486C232.772 91.6463 232.984 98.3433 232.723 99.4967C228.839 100.375 223.331 102.207 221.146 97.784C221.217 94.4762 223.216 92.9875 225.497 90.609L225.994 91.0417C227.753 91.4403 230.845 90.4909 232.747 90.0486Z" fill="#3BA895"/>
<path d="M215.254 66.0366C213.627 67.8563 214.224 69.7218 210.939 69.7553C208.765 68.1299 204.942 66.0829 203.706 64.2473C204.129 63.1296 204.029 63.4713 205.361 62.7113C207.916 62.8933 210.619 61.5691 212.028 62.4835C212.755 62.7022 214.686 63.3319 215.333 63.4559L215.532 63.9051L215.254 66.0366Z" fill="#28675D"/>
<path d="M261.907 75.3038C266.724 71.1503 273.894 68.6973 280.094 69.0289L280.41 69.9134C277.926 72.6491 269.689 68.7814 264.441 78.1959L263.843 78.1193C263.102 76.8196 262.854 76.463 261.907 75.3038Z" fill="#43904A"/>
<path d="M261.907 75.304C262.854 76.4631 263.102 76.8198 263.843 78.1195L264.441 78.1961C265.566 79.244 266.231 79.6906 266.092 81.1478C263.887 81.679 261.352 80.639 259.489 79.4867C259.447 78.1854 260.968 76.6217 261.907 75.304Z" fill="#62A451"/>
<path d="M212.028 62.4837C214.865 62.0084 223.303 61.2393 225.464 63.0707C218.88 64.7377 218.306 63.0814 215.332 63.4561C214.686 63.3321 212.755 62.7024 212.028 62.4837Z" fill="#1A7E6F"/>
<path d="M215.532 63.905C217.606 64.6741 219.957 65.2505 221.215 67.0015L221.391 68.1245C218.963 69.2156 217.12 67.5487 215.254 66.0366L215.532 63.905Z" fill="#1A7E6F"/>
<path d="M272.843 59.4026C273.374 59.9279 273.228 59.9295 273.488 60.7704C272.101 61.8413 265.351 62.1702 263.144 62.3921L263.104 61.7316C265.463 60.7353 270.206 59.9412 272.843 59.4026Z" fill="#2C7848"/>
<path d="M198.861 103.918C202.801 104.776 204.634 103.002 206.983 105.874C206.963 106.629 206.926 107.831 206.356 108.389C205.625 109.337 205.017 109.878 204.938 111.05C206.397 110.966 206.478 110.87 207.806 110.175L208.629 111.099C208.946 112.29 210.616 126.802 210.632 128.238L210.128 128.952C214.382 129.18 213.58 130.958 216.193 132.317C221.431 136.082 218.246 135.075 220.679 138.214C222.786 137.311 224.968 136.566 226.639 135.029C230.791 134.894 231.849 135.329 235.459 137.465C236.965 137.226 236.396 137.563 237.383 136.725C238.425 135.842 241.458 134.312 242.823 133.578C247.571 136.641 250.166 137.828 255.408 135.08L255.91 134.342C258.276 133.882 262.206 134.666 264.725 135.025C265.792 136.758 266.513 137.592 266.48 139.662C267.619 138.971 270.421 138.496 271.85 138.182C272.912 140.329 273.399 141.042 273.585 143.474L273.619 143.897C273.633 144.183 273.646 144.469 273.66 144.756C275.037 141.058 278.02 142.14 281.73 142.166C283.743 144.276 284.249 144.889 286.813 146.289C286.427 153.341 288.499 162.442 288.102 165.896C286.112 165.747 276.467 163.209 274.303 162.559C272.426 161.99 271.595 158.317 266.995 157.311H266.443C256.194 157.333 251.143 148.546 244.564 158.77C244.219 162.4 252.894 177.616 253.594 181.618C251.864 182.284 250.379 182.837 248.703 183.651C246.177 188.553 245.511 191.645 241.701 195.509C242.137 197.473 242.871 199.671 242.418 201.529L241.561 202.258C234.899 199.208 232.112 196.829 228.27 190.661C224.384 195.43 218.151 198.836 213.508 202.913C211.746 204.461 210.03 204.759 207.717 205.004C206.378 200.789 202.616 202.556 198.431 198.799L195.823 198.335L197.762 197.904C199.092 194.961 198.476 179.729 198.494 175.402L197.91 174.689C197.922 165.508 198.222 152.543 198.547 143.374L197.563 132.449L196.894 132.124C197.081 132.084 198.024 131.729 198.041 131.602C198.61 127.281 197.46 117.232 200.377 114.043L200.109 113.533L199.98 113.147L198.83 112.347C198.207 109.904 198.513 106.427 198.861 103.918Z" fill="#C2E1E3"/>
<path d="M255.408 135.08L255.91 134.342C258.276 133.882 262.206 134.666 264.725 135.025C265.793 136.758 266.513 137.592 266.48 139.662C267.619 138.971 270.421 138.496 271.85 138.182C272.912 140.329 273.399 141.042 273.585 143.474L273.619 143.897C273.633 144.183 273.647 144.469 273.66 144.756C275.037 141.058 278.02 142.14 281.73 142.166C283.743 144.276 284.249 144.889 286.813 146.289C286.427 153.341 288.499 162.442 288.102 165.896C286.112 165.747 276.467 163.209 274.303 162.559C272.426 161.99 271.595 158.317 266.995 157.311H266.443C256.194 157.333 251.143 148.546 244.564 158.77L243.311 157.524C242.916 155.592 242.968 156.295 243.895 154.182C245.122 152.585 246.397 147.119 245.377 145.118C244.094 144.655 244.192 144.66 242.869 144.985C243.169 145.629 243.387 146.14 243.644 146.805C241.603 147.082 239.328 145.368 234.117 145.48C232.594 142.291 232.545 140.292 229.939 137.683L229.256 137.988C227.765 141.38 228.527 142.375 225.825 145.193L225.345 145.688C224.204 143.253 222.602 140.061 220.679 138.214C222.786 137.311 224.968 136.566 226.639 135.029C230.791 134.894 231.849 135.329 235.459 137.465C236.965 137.226 236.396 137.563 237.383 136.725C238.425 135.842 241.458 134.312 242.823 133.578C247.571 136.641 250.166 137.828 255.408 135.08Z" fill="#338B55"/>
<path d="M266.48 139.662C267.619 138.971 270.422 138.496 271.85 138.182C272.912 140.329 273.399 141.042 273.585 143.474L273.62 143.897C273.633 144.183 273.647 144.469 273.66 144.756C271.731 144.985 269.59 144.937 267.947 143.846C266.661 142.338 266.708 141.616 266.48 139.662Z" fill="#BFD4D7"/>
<path d="M198.494 175.402C203.52 173.454 207.855 168.792 215.08 166.141C220.565 169.047 224.206 171.378 230.366 172.507C229.616 178.377 229.209 184.998 228.27 190.661C224.384 195.43 218.151 198.836 213.508 202.913C211.746 204.461 210.03 204.759 207.717 205.004C206.378 200.789 202.616 202.556 198.431 198.799L195.823 198.335L197.762 197.904C199.092 194.961 198.476 179.729 198.494 175.402Z" fill="#2F9B84"/>
<path d="M228.741 151.595C234.904 154.485 237.055 153.975 243.895 154.182C242.968 156.295 242.916 155.592 243.311 157.524L244.565 158.77C244.219 162.4 252.894 177.616 253.595 181.618C251.864 182.284 250.379 182.837 248.703 183.651C246.177 188.553 245.511 191.646 241.701 195.509C242.138 197.473 242.872 199.671 242.419 201.529L241.561 202.258C234.899 199.208 232.112 196.829 228.271 190.661C229.209 184.998 229.616 178.377 230.366 172.507C230.173 166.503 232.285 156.428 228.741 151.595Z" fill="#62A451"/>
<path d="M198.547 143.374C202.735 142.372 204.771 142.09 209.095 141.907C208.707 144.104 207.923 147.013 208.598 149.003C210.164 150.776 212.356 150.845 214.771 151.281C216.34 152.937 217.461 154.485 219.562 155.204C225.279 154.326 221.777 149.589 228.741 151.595C232.285 156.428 230.173 166.503 230.366 172.507C224.206 171.378 220.565 169.047 215.08 166.141C207.855 168.792 203.52 173.454 198.495 175.402L197.91 174.689C197.922 165.508 198.223 152.543 198.547 143.374Z" fill="#43904A"/>
<path d="M198.861 103.918C202.801 104.776 204.634 103.002 206.983 105.874C206.963 106.629 206.926 107.831 206.356 108.389C205.625 109.337 205.017 109.878 204.938 111.05C206.397 110.966 206.478 110.87 207.806 110.175L208.628 111.099C208.946 112.29 210.616 126.802 210.632 128.238L210.128 128.952C211.318 130.988 215.707 133.792 218.626 138.191C217.408 139.903 216.16 141.752 214.817 143.354C213.015 142.7 210.484 142.061 209.318 140.719C210.688 140.003 212.624 140.178 214.256 140.156L214.4 139.684C210.691 135.33 209.185 136.013 205.747 130.771C203.247 131.199 199.889 131.667 197.563 132.449L196.894 132.124C197.081 132.084 198.024 131.729 198.041 131.602C198.61 127.281 197.46 117.232 200.377 114.043L200.109 113.533L199.98 113.147L198.83 112.347C198.207 109.904 198.513 106.427 198.861 103.918Z" fill="#43904A"/>
<path d="M198.861 103.918C202.801 104.776 204.634 103.002 206.983 105.874C206.963 106.629 206.926 107.831 206.356 108.389C204.88 106.851 205.267 106.744 203.596 106.473C201.299 109.292 205.19 112.062 199.98 113.147L198.83 112.347C198.207 109.904 198.513 106.427 198.861 103.918Z" fill="#BFD4D7"/>
<path d="M228.271 190.661C232.112 196.829 234.899 199.208 241.561 202.258L241.912 202.476C245.99 204.925 250.307 206.697 254.62 208.655C256.1 209.326 257.015 211.04 257.872 212.37C255.58 214.973 254.945 215.787 253.231 218.773C253.813 223.031 254.322 226.623 255.551 230.775L249.322 233.164C246.813 233.782 245.874 233.872 243.298 234.064C230.474 245.363 225.302 238.822 210.201 241.547C209.178 237.672 211.419 234.511 213.252 230.732C212.137 221.493 211.006 219.704 205.949 211.859C206.506 209.518 207.018 207.309 207.717 205.004C210.03 204.76 211.746 204.461 213.509 202.913C218.151 198.836 224.384 195.43 228.271 190.661Z" fill="#28675D"/>
<path d="M243.298 234.064C245.874 233.872 246.813 233.782 249.322 233.164C249.987 234.521 252.433 238.417 252.589 238.928C245.605 243.788 246.852 244.213 247.528 252.09L244.032 254.725C238.944 267.775 236.592 269.744 222.273 270.968C217.812 268.839 214.377 246.401 210.201 241.547C225.302 238.822 230.474 245.363 243.298 234.064Z" fill="#278966"/>
<path d="M244.564 158.77C251.143 148.546 256.194 157.333 266.443 157.311H266.995L267.146 157.95C268.052 161.681 271.536 166.913 275.717 166.939C277.216 166.019 277.701 165.635 279.357 165.13C282.191 166.072 285.743 171.373 284.73 174.156C282.083 181.416 271.89 183.353 265.698 186.69C264.223 187.467 260.861 188.01 259.11 188.047L259.143 187.372L253.594 181.618C252.894 177.616 244.219 162.399 244.564 158.77Z" fill="#278966"/>
<path d="M244.564 158.77C247.871 160.659 259.138 182.294 259.143 187.372L253.594 181.618C252.894 177.616 244.219 162.4 244.564 158.77Z" fill="#C2E1E3"/>
<path d="M253.595 181.618L259.143 187.372L259.111 188.048C263.221 192.694 267.705 189.165 273.456 188.505C269.856 203.195 267.607 202.79 257.872 212.37C257.015 211.04 256.1 209.326 254.62 208.655C250.307 206.697 245.99 204.924 241.911 202.476L241.561 202.258L242.418 201.529C242.871 199.671 242.137 197.473 241.701 195.509C245.511 191.645 246.177 188.553 248.703 183.651C250.379 182.837 251.864 182.283 253.595 181.618Z" fill="#278966"/>
<path d="M249.322 233.164L255.551 230.775C255.495 234.468 255.855 236.555 252.589 238.928C252.432 238.417 249.987 234.522 249.322 233.164Z" fill="#43904A"/>
<path d="M268.826 230.301C274.612 234.144 267.325 247.854 265.467 252.915C264.908 254.437 263.424 254.592 262.051 254.996C253.232 248.988 265.796 236.555 268.556 230.865L268.826 230.301Z" fill="#278966"/>
<path d="M367.053 16.4172C372.54 9.09589 371.406 7.62428 375.174 0.745781C376.718 -0.22979 376.042 0.0150205 378.006 0.0602597L378.618 0.9262C378.357 3.42181 372.002 12.1722 369.874 15.9653C386.883 17.0607 398.619 22.2169 405.719 38.7356C407.816 35.8701 413.01 28.1975 415.341 26.3177L416.315 26.1724C417.396 27.8462 417.289 27.1878 417.289 28.9751C413.037 34.0025 411.477 34.0174 406.709 40.5335C410.259 58.3098 405.57 74.2441 387.942 82.0695C388.054 83.7103 394.356 90.4366 395.889 92.0343L395.5 91.9577C389.789 90.9103 385.09 91.3653 379.352 90.9843C369.916 89.3849 359.469 88.949 349.706 87.5583C344.825 83.5043 342.174 81.9795 341.522 75.3842C341.607 74.0174 341.29 71.3233 341.166 69.849C338.299 70.3584 333.408 71.3786 330.62 71.5527L330.528 71.1104C327.595 69.9496 320.45 67.3954 317.433 67.3752C315.152 71.3552 300.72 72.6118 300.368 76.6855L301.318 77.5386L299.481 77.8537L299.089 77.4987C298.481 67.8494 298.684 47.3236 299.054 37.7733L298.849 37.5668C298.826 33.9695 298.152 24.6294 299.873 22.0854L302.22 21.7033C315.55 23.7172 325.965 25.7487 339.073 28.7781L341.88 31.7656C342.073 31.6985 342.645 31.5415 342.748 31.4217C342.89 31.2174 343.035 31.0151 343.184 30.8155C349.011 22.9822 357.342 17.7919 367.053 16.4172Z" fill="#BFD4D7"/>
<path d="M367.053 16.4172C372.54 9.09589 371.407 7.62428 375.175 0.745781C376.718 -0.22979 376.042 0.0150205 378.006 0.0602597L378.618 0.9262C378.357 3.42181 372.003 12.1722 369.874 15.9653C386.884 17.0607 398.619 22.2169 405.719 38.7356C407.816 35.8701 413.011 28.1975 415.342 26.3177L416.316 26.1724C417.396 27.8462 417.29 27.1878 417.29 28.9751C413.037 34.0025 411.478 34.0174 406.709 40.5335C410.259 58.3098 405.57 74.2441 387.943 82.0695C384.313 80.0529 345.416 36.0138 342.748 31.4217C342.89 31.2174 343.035 31.0151 343.184 30.8155C349.011 22.9822 357.343 17.7919 367.053 16.4172Z" fill="#ABC13B"/>
<path d="M367.053 16.4172C372.54 9.09589 371.407 7.62428 375.175 0.745781C376.718 -0.22979 376.042 0.0150205 378.006 0.0602597L378.618 0.9262C378.357 3.42181 372.003 12.1722 369.874 15.9653C368.128 18.5589 367.064 21.1162 365.031 23.2733L364.695 22.8066C365.339 19.9922 365.818 19.0469 367.053 16.4172Z" fill="#1B1B1B"/>
<path d="M405.719 38.7356C407.816 35.8701 413.01 28.1975 415.341 26.3177L416.315 26.1724C417.396 27.8462 417.289 27.1878 417.289 28.9751C413.037 34.0025 411.477 34.0174 406.709 40.5334C405.256 42.4947 404.005 44.6566 401.722 45.3293L401.344 44.5113C401.977 42.2334 404.031 40.4967 405.719 38.7356Z" fill="#1B1B1B"/>
<path d="M386.367 50.5845C387.634 50.1657 389.002 50.8235 389.465 52.0721C389.928 53.3212 389.316 54.7114 388.081 55.2149C387.245 55.5566 386.293 55.415 385.59 54.8466C384.893 54.2777 384.558 53.3723 384.717 52.4846C384.882 51.5973 385.516 50.8688 386.367 50.5845Z" fill="#202811"/>
<path d="M369.756 34.5135C371.023 34.0946 372.391 34.7525 372.854 36.0011C373.317 37.2502 372.705 38.6404 371.47 39.1438C370.635 39.4855 369.682 39.344 368.979 38.7756C368.282 38.2066 367.947 37.3013 368.107 36.4135C368.272 35.5263 368.905 34.7977 369.756 34.5135Z" fill="#202811"/>
<path d="M368.165 47.7808C369.299 48.0219 369.272 47.9394 370.044 48.7845C370.15 50.5047 370.007 51.3797 371.098 52.6118C373.269 53.7055 372.945 53.3404 375.643 53.2265L376.26 54.2223C371.401 55.853 367.383 52.9311 368.165 47.7808Z" fill="#202811"/>
<path d="M299.055 37.7733C306.189 37.4386 316.419 40.5175 323.772 41.7698C328.267 42.5357 335.952 43.367 339.9 44.5624C339.914 44.5997 341.277 69.0214 341.166 69.849C338.3 70.3584 333.408 71.3787 330.621 71.5527L330.528 71.1104C327.596 69.9496 320.451 67.3955 317.433 67.3752C315.153 71.3552 300.72 72.6118 300.368 76.6855L301.318 77.5386L299.481 77.8537L299.089 77.4987C298.481 67.8495 298.685 47.3236 299.055 37.7733Z" fill="#9DC1CD"/>
<path d="M307.988 60.8332C310.662 60.6836 318.16 64.6631 319.532 66.5248C316.674 66.3311 310.676 63.794 308.187 62.3703L307.988 60.8332Z" fill="#43904A"/>
<path d="M379.353 90.9841C385.09 91.3652 389.79 90.9101 395.5 91.9576L395.889 92.0342C396.884 95.9908 395.969 129.003 395.979 135.169L396.022 234.479C395.99 255.193 395.41 276.69 396.437 297.308C377.767 302.093 356.49 305.409 337.478 309.395C329.51 311.066 306.456 316.287 299.092 316.426C298.044 313.562 301.345 303.509 299.122 299.048C303.755 299.315 321.949 296.733 327.069 295.509C344.416 291.363 361.106 287.446 378.975 285.477C379.033 279.574 379.736 271.687 379.299 266.029C378.304 259.009 379.422 250.094 379.353 242.925C379.294 236.986 380.231 237.624 377.596 231.807C378.586 230.072 378.847 229.364 379.268 227.411C378.98 223.259 379.496 220.332 378.975 215.409L378.831 209.124C379.752 189.197 378.969 169.781 379.379 149.892C379.454 146.347 379.981 142.128 378.991 138.747C378.826 137.394 378.996 135.506 379.06 134.092C378.858 133.477 378.192 132.704 377.772 132.138L377.964 131.763C376.548 128.838 376.739 118.735 374.046 116.757C373.328 116.05 373.094 114.836 372.78 113.821C371.694 112.926 370.028 113.737 368.799 114.09C367.457 108.991 369.288 108.267 372.577 104.511L379.315 104.754C379.448 100.312 379.358 95.4618 379.353 90.9841Z" fill="#BFD4D7"/>
<path d="M372.78 113.822C375.047 114.726 375.26 114.472 376.511 116.828C377.969 119.576 380.508 131.598 379.06 134.092C378.858 133.477 378.192 132.704 377.772 132.138L377.964 131.763C376.548 128.838 376.74 118.736 374.046 116.757C373.328 116.051 373.094 114.836 372.78 113.822Z" fill="#278966"/>
<path d="M299.481 77.8537L301.318 77.5386L300.368 76.6855C300.72 72.6118 315.153 71.3552 317.433 67.3752C320.45 67.3955 327.596 69.9496 330.528 71.1104L330.621 71.5527C333.408 71.3787 338.3 70.3584 341.166 69.849C341.291 71.3233 341.607 74.0174 341.523 75.3842C342.175 81.9795 344.826 83.5044 349.706 87.5583C359.469 88.949 369.916 89.3849 379.353 90.9843C379.358 95.4619 379.448 100.313 379.315 104.754L372.577 104.511C369.288 108.267 367.457 108.991 368.799 114.09C371.013 115.495 372.205 113.302 372.492 115.968C372.844 119.277 374.116 125.847 370.544 127.441C369.134 126.913 369.517 127.356 368.82 126.376L369.336 125.142L368.948 124.305C357.969 122.687 360.077 112.044 353.014 113.425C349.948 116.313 352.607 121.061 348.304 121.99C343.271 119.302 335.768 122.502 328.803 115.797C328.216 115.232 328.146 115.403 327.236 115.283C324.911 117.43 326.687 118.542 324.788 120.458C319.575 119.48 319.822 119.149 315.358 121.874C304.986 119.942 306.818 113.855 299.599 113.273L298.922 113.259C298.935 108.625 297.875 79.9794 299.481 77.8537Z" fill="#43904A"/>
<path d="M330.528 71.1103L330.621 71.5525C333.408 71.3785 338.3 70.3582 341.166 69.8489C341.291 71.3231 341.607 74.0173 341.523 75.384C337.822 75.0806 332.165 74.8523 328.81 74.3318L330.528 71.1103Z" fill="#8FBBC0"/>
<path d="M315.358 121.874C319.822 119.149 319.575 119.48 324.788 120.458C326.686 118.542 324.91 117.43 327.236 115.283C328.146 115.403 328.216 115.232 328.803 115.797C335.768 122.502 343.271 119.303 348.304 121.99C352.607 121.061 349.948 116.314 353.014 113.425C360.077 112.045 357.969 122.687 368.948 124.305L369.336 125.142L368.82 126.376C367.324 130.146 364.003 133.968 365.829 137.794L365.52 143.351C364.067 142.822 363.716 142.737 362.184 142.485L361.795 142.035C360.062 142.549 359.691 143.313 358.542 144.73L357.768 144.932C357.098 146.044 356.464 146.438 356.947 147.742C360.428 157.141 360.75 161.745 354.952 169.947C352.279 170.963 350.64 171.575 347.875 172.235C348.148 174.694 348.39 175.668 347.748 178.068L346.959 178.963L346.019 178.888C345.87 176.147 346.86 174.311 345.925 172.523C344.215 172.299 345.03 172.177 343.42 173.039L343.09 173.922C344.387 176.339 344.683 177.361 344.483 180.203C340.116 175.242 341.859 175.301 335.165 171.181L334.469 169.547C332.738 165.582 332.018 162.293 330.935 158.121C328.477 160.351 327.613 160.872 324.711 162.543C317.731 160.675 315.696 160.127 311.183 154.666L311.489 148.2C309.815 147.183 308.15 146.156 306.493 145.118C304.39 139.029 304.533 141.397 308.196 137.471C310.543 134.956 313.824 125.373 315.358 121.874Z" fill="#7FAC37"/>
<path d="M357.768 144.932C356.012 144.22 354.947 143.963 353.64 142.592C353.116 140.834 353.024 141.482 353.766 140.109C356.993 138.709 359.066 140.22 361.794 142.035C360.062 142.549 359.691 143.313 358.542 144.73L357.768 144.932Z" fill="#A3C3AD"/>
<path d="M299.598 113.273C306.818 113.855 304.986 119.942 315.358 121.874C313.824 125.373 310.543 134.956 308.196 137.471C304.533 141.397 304.39 139.029 306.493 145.118C308.15 146.156 309.815 147.183 311.489 148.2L311.183 154.666C315.696 160.127 317.731 160.675 324.711 162.543C327.613 160.872 328.477 160.351 330.935 158.12C332.018 162.293 332.738 165.582 334.469 169.547L335.165 171.181C341.859 175.301 340.116 175.242 344.483 180.203C345.704 181.682 347.394 184.146 346.989 186.126C346.406 188.979 345.726 192.561 342.24 192.47C340.677 190.224 339.865 188.511 337.551 186.946C336.857 186.861 336.661 186.738 336.061 186.909L333.99 188.319C333.614 185.317 333.818 183.747 331.728 181.815L330.347 181.991C327.791 176.695 327.998 176.099 324.326 171.384C320.911 174.742 317.253 179.819 314.073 183.678C313.892 190.836 313.581 191.464 310.262 197.596C307.242 188.841 305.632 182.709 303.576 173.683C302 172.954 302.501 173.182 300.364 173.747C299.956 171.171 300.39 171.836 299.023 170.133C299.034 160.1 298.763 150.148 298.975 140.094C299.163 131.18 299.776 122.162 299.598 113.273Z" fill="#278966"/>
<path d="M349.919 246.241C353.638 242.388 355.822 242.372 358.04 240.285C366.313 232.51 366.877 228.262 379.268 227.411C378.847 229.364 378.586 230.072 377.596 231.807C380.231 237.624 379.294 236.986 379.353 242.925C379.422 250.094 378.304 259.009 379.3 266.029L378.608 270.787L378.182 270.926C377.666 269.627 377.229 268.227 376.362 267.158L374.579 268.994L374.1 268.392L375.005 268.318L373.78 267.7C372.86 265.508 371.322 264.033 369.735 262.261C363.471 263.82 358.6 267.179 352.207 269.659L349.377 266.673C349.755 265.944 350.212 265.619 350.858 265.13C351.418 259.935 349.148 253.378 349.919 246.241Z" fill="#2C7848"/>
<path d="M346.558 205.419C350.393 203.019 353.669 197.622 357.084 197.234C359.353 199.74 356.637 201.789 357.345 205.584C356.894 208.325 355.835 211.588 355.04 214.302L353.851 214.946C352.168 214.18 349.534 213.967 347.626 213.695C347.409 211.082 346.919 208.054 346.558 205.419Z" fill="#237C61"/>
<path d="M330.253 197.936C333.324 199.666 334.208 200.161 336.551 202.785C337.896 204.972 338.49 206.015 340.247 207.91C341.269 209.672 342.042 211.301 343.533 212.663C342.792 214.457 342.132 217.858 341.307 218.816C335.973 212.828 333.787 205.233 330.253 197.936Z" fill="#2C7848"/>
<path d="M357.345 205.584C359.469 205.627 360.446 205.292 361.741 206.558L362.562 209.821C362.627 210.955 362.677 212.908 362.896 213.956C362.486 215.17 362.066 216.383 361.634 217.586L362.486 218.778L361.907 219.055C359.59 217.543 358.379 217.65 357.001 215.191C355.948 215.42 355.391 215.569 354.363 215.899L353.851 214.946L355.04 214.302C355.835 211.588 356.894 208.325 357.345 205.584Z" fill="#8FBBC0"/>
<path d="M368.799 114.09C370.028 113.737 371.694 112.926 372.78 113.821C373.094 114.836 373.328 116.05 374.046 116.757C374.062 124.092 374.132 125.83 371.274 132.884C368.698 134.439 367.101 135.058 365.829 137.794C364.003 133.967 367.324 130.146 368.82 126.376C369.517 127.355 369.134 126.913 370.544 127.441C374.116 125.847 372.844 119.277 372.492 115.968C372.205 113.302 371.013 115.495 368.799 114.09Z" fill="#62A451"/>
<path d="M343.533 212.663C343.731 215.596 342.307 216.107 343.383 218.693C346.666 221.083 348.743 217.991 349.49 218.954C352.438 222.765 357.795 222.493 362.185 223.765L366.787 221.727L366.904 222.413C365.297 224.106 364.69 224.478 362.816 225.729C361.001 225.442 359.965 225.357 358.269 224.58C353.178 222.259 344.764 223.643 341.307 218.816C342.132 217.858 342.792 214.457 343.533 212.663Z" fill="#1A7E6F"/>
<path d="M362.562 209.821C365.786 205.898 367.612 206.207 371.715 209.299L372.279 211.726L373.477 211.907C371.795 212.503 367.846 212.743 365.967 212.78C364.951 213.302 363.998 213.94 362.896 213.956C362.678 212.908 362.627 210.955 362.562 209.821Z" fill="#BFD4D7"/>
<path d="M375.111 145.352C376.415 146.103 377.788 146.864 379.071 147.636C378.022 149.972 376.143 148.844 373.951 149.701C372.998 150.078 370.129 153.155 369.32 153.99L368.682 153.639C368.224 151.654 368.048 151.244 368.623 149.317C369.975 147.3 372.742 146.459 375.111 145.352Z" fill="#278966"/>
<path d="M335.206 194.461C339.166 196.318 341.626 202.327 341.254 206.548L340.247 207.91C338.49 206.015 337.896 204.972 336.551 202.785L336.913 202.13C336.02 199.543 335.286 197.127 334.516 194.503L335.206 194.461Z" fill="#2C7265"/>
<path d="M372.279 211.726C372.301 210.055 372.088 208.905 373.094 207.665C374.19 208.139 375.372 210.699 376.122 211.987C376.537 211.045 376.873 210.417 377.357 209.523L378.831 209.124L378.975 215.409L376.862 214.025C373.52 214.467 370.23 212.908 365.967 212.78C367.846 212.743 371.795 212.503 373.477 211.907L372.279 211.726Z" fill="#2F9B84"/>
<path d="M377.772 132.138C378.192 132.704 378.858 133.477 379.06 134.092C378.996 135.507 378.826 137.394 378.991 138.747C378.985 141.605 378.906 144.809 379.071 147.636C377.788 146.864 376.415 146.103 375.111 145.352C378.416 140.729 375.579 137.385 377.772 132.138Z" fill="#2C7848"/>
<path d="M362.184 142.485C363.716 142.736 364.067 142.822 365.52 143.351C367.074 145.757 367.005 148.508 364.605 150.313L363.572 149.908C362.508 148.067 362.399 144.719 362.184 142.485Z" fill="#278966"/>
<path d="M333.99 188.319L336.061 186.908C335.699 189.277 335.169 192.108 335.206 194.461L334.516 194.503C334.172 193.21 334.074 189.841 333.99 188.319Z" fill="#1A7E6F"/>
<path d="M316.712 212.45C325.17 213.062 325.438 222.147 320.005 226.932L317.632 227.421C310.791 225.649 312.957 216.516 316.712 212.45Z" fill="#43904A"/>
<path d="M359.343 176.999C360.47 177.233 360.413 177.19 361.369 177.824C363.301 183.497 363.285 185.754 363.977 191.459L362.704 190.618C360.386 185.695 358.897 182.544 359.343 176.999Z" fill="#62A451"/>
</svg>
