<svg width="591" height="613" viewBox="0 0 591 613" fill="none" xmlns="http://www.w3.org/2000/svg">
<g clip-path="url(#clip0_592_1229)">
<path d="M105.755 453.759C123.091 434.604 128.519 415.834 127.322 390.208C126.764 378.249 123.135 370.62 117.56 360.294C114.146 353.739 110.484 345.764 107.927 338.856C87.6352 284.428 87.5417 224.528 107.664 170.039C112.132 157.919 117.974 145.798 124.081 134.392C126.684 129.531 125.773 125.682 126.61 120.66C131.298 92.5234 151.88 68.5675 179.893 61.9127C184.619 60.7899 189.817 60.4432 194.268 58.3272C202.9 53.7479 210.421 47.4686 219.087 42.7399C240.463 30.8441 263.56 22.3494 287.549 17.5616C293.27 16.4604 298.996 15.6703 304.795 15.0433C309.649 14.5184 315.036 12.7381 319.889 12.6505C332.231 12.4273 344.861 12.1175 357.186 12.6485C363.414 12.9169 370.126 14.5051 376.302 15.2936C387.839 16.9972 400.543 19.6568 411.753 23.0978C442.503 32.5358 476.088 50.0981 499.97 71.7119C514.951 85.0582 528.482 99.9454 540.346 116.127C559.481 142.719 574.154 178.336 579.244 210.593C580.265 217.048 581.759 223.56 582.076 230.081C582.354 239.291 583.172 248.304 582.93 257.533C582.205 284.817 576.405 314.064 566.291 339.39C564.085 344.903 561.686 350.544 559.002 355.86C556.147 361.516 552.009 368.295 549.448 373.977C548.487 376.105 548.025 385.344 547.786 388.387C546.884 401.792 538.913 416.943 530.325 426.823C523.144 435.082 504.613 447.019 493.798 448.287C477.592 450.188 477.32 450.321 463.446 458.694C457.745 462.167 451.899 465.388 445.921 468.35C420.163 480.972 392.333 488.828 363.779 491.531C327.875 495.273 287.342 489.733 253.256 477.677C236.638 471.801 223.954 462.597 205.858 462.225C180.469 462.316 157.515 469.204 139.188 487.65C120.613 506.346 105.193 527.949 89.0989 548.746C86.8449 551.68 80.5928 558.713 79.1995 560.974C68.0045 574.236 53.7572 594.989 35.3665 595.742C33.7172 595.81 31.2349 595.995 29.6686 596.292C29.4953 596.402 29.1245 596.654 28.9421 596.645C14.0115 595.762 3.91088 587.547 -0.407523 574.123C-4.2964 564.67 -0.488196 548.653 5.97425 541.108C26.9768 516.591 54.592 497.747 79.659 477.622C85.8031 472.661 91.7387 467.448 97.4505 461.995C100.287 459.282 102.877 456.433 105.755 453.759ZM22.9949 560.411C24.2954 563.551 25.2715 567.064 27.8392 569.085C30.2629 570.288 32.8021 571.025 35.3749 571.85C38.8583 570.074 41.6843 568.748 44.5575 566.006C48.9362 561.828 52.2368 556.718 55.3464 551.563C60.235 543.459 64.6081 534.947 68.3673 526.267C68.68 525.533 68.4278 525.252 68.0808 524.718L67.2731 524.353C58.0282 527.506 29.7524 544.484 25.6201 553.319C24.555 555.596 23.9811 558.089 22.9949 560.411Z" fill="#2E2E2E"/>
<path d="M105.756 453.759C123.092 434.604 128.52 415.834 127.323 390.208C126.765 378.249 123.136 370.62 117.561 360.294C114.147 353.739 110.484 345.764 107.928 338.856C87.6359 284.428 87.5424 224.528 107.665 170.039C112.133 157.919 117.974 145.798 124.081 134.392C126.684 129.531 125.774 125.682 126.611 120.66C131.299 92.5234 151.88 68.5675 179.893 61.9127C184.62 60.7899 189.817 60.4432 194.268 58.3272C202.9 53.7479 210.422 47.4686 219.087 42.7399C240.463 30.8441 263.561 22.3494 287.55 17.5616C293.27 16.4604 298.996 15.6703 304.796 15.0433C309.65 14.5184 315.036 12.7381 319.89 12.6505C332.232 12.4273 344.861 12.1175 357.187 12.6485C363.415 12.9169 370.127 14.5051 376.303 15.2936C387.84 16.9972 400.544 19.6568 411.754 23.0978C442.504 32.5358 476.089 50.0981 499.971 71.7119C514.951 85.0582 528.483 99.9454 540.346 116.127C559.482 142.719 574.155 178.336 579.244 210.593C580.266 217.048 581.76 223.56 582.077 230.081C582.355 239.291 583.173 248.304 582.93 257.533C582.206 284.817 576.405 314.064 566.291 339.39C564.086 344.903 561.687 350.544 559.003 355.86C556.148 361.516 552.009 368.295 549.449 373.977C548.488 376.105 548.026 385.344 547.787 388.387C546.884 401.792 538.914 416.943 530.326 426.823C523.145 435.082 504.614 447.019 493.798 448.287C477.593 450.188 477.321 450.321 463.446 458.694C457.746 462.167 451.9 465.388 445.921 468.35C420.164 480.972 392.334 488.828 363.78 491.531C327.876 495.273 287.343 489.733 253.257 477.677C236.639 471.801 223.955 462.597 205.859 462.225C204.049 461.827 201.179 461.924 199.237 461.918C201.158 459.563 203.586 457.507 205.009 454.735C207.468 449.946 207.195 446.557 210.863 442.446C215.856 442.048 228.01 449.606 232.877 452.145C291.402 482.926 360.446 486.609 421.913 462.232C433.004 457.846 444.227 451.589 454.629 445.712C459.389 443.025 466.56 437.757 471.475 435.833C477.654 433.417 484.907 434.235 491.936 431.855C512.365 424.941 527.047 408.312 531.62 387.255C532.903 381.344 532.114 374.556 533.821 369.064C534.442 367.072 538.377 360.769 539.609 358.677C541.776 354.99 543.829 351.239 545.769 347.429C565.299 308.638 572.567 264.825 566.611 221.805C556.413 147.486 509.29 84.054 442.669 50.242C420.073 38.9364 395.774 31.4178 370.745 27.9859C329.053 22.3912 280.914 28.7873 242.732 46.5181C232.073 51.4143 221.82 57.1488 212.068 63.6675C206.659 67.2432 200.475 72.49 194.868 75.1871C190.687 77.1983 183.637 78.1203 178.748 79.6658C161.965 84.9708 147.553 102.952 142.991 119.502C141.996 123.112 141.673 132.346 140.432 135.063C137.517 141.446 133.292 148.149 130.041 154.646C101.131 211.841 98.9641 278.889 124.118 337.834C127.341 345.185 130.947 352.4 135.138 359.249C139.928 366.969 145.668 373.579 148.585 382.35C150.806 389.031 149.017 391.605 147.633 397.756C144.851 410.12 139.89 421.642 134.243 432.919C133.091 435.561 129.379 442.207 126.83 443.63C122.764 448.397 117.943 452.876 113.646 457.604C110.499 456.575 107.537 456.245 105.756 453.759Z" fill="#656563"/>
<path d="M127.086 432.909C130.589 433.934 130.714 433.902 134.242 432.919C133.09 435.561 129.378 442.207 126.829 443.63C125.279 441.883 125.241 441.57 124.66 439.222C123.852 438.565 122.327 437.582 122.341 436.518C124.261 436.858 125.555 438.585 126.818 439.995C126.764 437.569 126.934 435.328 127.086 432.909Z" fill="#424142"/>
<path d="M73.162 557.649C78.5983 550.279 84.5358 543.307 90.0653 535.978C117.444 499.693 144.86 454.082 192.816 444.021C198.825 442.759 204.792 442.607 210.862 442.446C207.194 446.556 207.468 449.945 205.008 454.735C203.585 457.506 201.157 459.563 199.237 461.917C201.178 461.924 204.049 461.827 205.858 462.225C180.469 462.315 157.515 469.204 139.187 487.65C120.613 506.346 105.193 527.948 89.0988 548.746C86.8448 551.679 80.5927 558.713 79.1994 560.974C68.0044 574.236 53.757 594.988 35.3664 595.742C33.717 595.81 31.2348 595.994 29.6685 596.292C29.3326 596.146 29.5175 596.259 29.1689 595.875C31.0252 594.992 42.0848 595.276 46.3532 591.991C46.2914 591.771 46.2294 591.551 46.1676 591.331C45.9914 590.784 45.1303 583.967 45.2341 583.851C46.5666 582.35 50.9514 579.957 52.4556 578.518C58.5635 572.674 68.7461 564.447 73.162 557.649Z" fill="#4F4F4F"/>
<path d="M-0.407523 574.123C-4.2964 564.67 -0.488195 548.652 5.97425 541.107C26.9768 516.59 54.592 497.746 79.659 477.621C85.8031 472.66 91.7387 467.447 97.4505 461.995C100.287 459.281 102.877 456.432 105.755 453.758C107.536 456.245 110.499 456.575 113.645 457.603C108.364 465.225 92.2114 477.172 84.6103 482.999C76.964 488.866 68.0152 496.152 60.2392 501.759C38.6271 517.35 16.8598 534.034 5.09217 558.722C3.91945 561.18 0.816159 573.107 -0.407523 574.123Z" fill="#424142"/>
<path d="M189.353 352.121C164.541 320.454 152.8 272.459 157.999 232.711C171.097 132.585 265.157 63.4097 364.643 77.6938C409.636 84.1536 451.531 107.484 479.339 143.53C511.398 185.085 525.906 236.663 514.124 288.37C509.348 310.164 500.427 330.832 487.846 349.253C485.725 352.399 481.87 358.123 479.416 360.82C474.398 369.086 459.476 382.148 452.058 388.299C448.275 386.356 431.879 377.783 430.88 374.781C429.696 373.821 428.978 373.045 427.514 372.708L426.825 372.893C426.469 374.455 427.685 375.296 428.71 376.405C434.233 376.926 444.825 387.303 448.66 391.11C443.005 395.488 438.763 398.606 432.664 402.406C403.046 420.733 368.763 430.108 333.942 429.403C304.78 429.025 270.182 419.892 245.465 404.136C225.564 391.453 201.839 372.246 189.353 352.121Z" fill="#656563"/>
<path d="M300.009 286.362C311.366 287.691 319.023 292.807 322.687 303.897C331.297 299.469 343.261 298.124 351.056 305.003C361.038 294.935 374.634 289.276 388.81 289.289C414.635 289.114 437.589 306.72 442.82 332.203C445.32 347.154 443.066 364.378 430.879 374.782C429.696 373.821 428.978 373.045 427.513 372.709L426.825 372.893C426.469 374.455 427.685 375.296 428.71 376.405C434.232 376.926 444.825 387.304 448.66 391.11C443.005 395.489 438.762 398.606 432.664 402.406C403.046 420.733 368.763 430.108 333.942 429.403C304.78 429.025 270.182 419.892 245.465 404.136C225.564 391.453 201.839 372.246 189.353 352.121C196.407 353.053 208.805 356.872 213.853 362.263C222.138 362.554 218.308 363.867 223.495 367.806C224.774 367.919 225.38 367.337 226.472 366.383C228.903 364.258 230.671 362.793 233.448 361.05C231.988 355.077 231.533 348.619 232.646 342.546C235.104 342.293 237.496 342.006 239.876 341.32C243.465 340.285 246.934 338.552 250.082 336.56C258.349 331.333 290.013 306.361 295.199 299.304C297.138 296.662 298.086 293.292 298.877 290.155C299.141 289.108 299.227 287.614 299.788 286.702C299.858 286.585 299.935 286.475 300.009 286.362Z" fill="#22886F"/>
<path d="M351.058 305.002C361.039 294.935 374.636 289.276 388.811 289.289C414.636 289.114 437.59 306.72 442.822 332.203C445.321 347.154 443.068 364.378 430.881 374.782C429.697 373.821 428.98 373.045 427.515 372.709L426.826 372.893C426.47 374.455 427.686 375.296 428.711 376.405C426.167 380.409 417.213 385.379 412.903 387.084C408.195 388.943 391.398 394.289 387.252 391.634C387.016 390.628 386.932 390.101 386.8 389.069L386.67 388.464C385.82 387.527 386.325 387.779 385.144 387.591C384.038 388.228 384.472 387.792 383.887 389.027L383.308 390.757C382.551 391.12 374.817 388.532 373.346 388.083C367.665 385.887 361.631 381.463 357.12 377.427C334.894 357.532 330.619 327.692 351.058 305.002Z" fill="#A2C037"/>
<path d="M413.134 343.044C414.356 342.517 415.772 342.707 416.813 343.535C417.855 344.363 418.359 345.699 418.123 347.009C417.887 348.318 416.949 349.395 415.682 349.806C413.845 350.404 411.86 349.45 411.181 347.642C410.499 345.835 411.359 343.807 413.134 343.044Z" fill="#303008"/>
<path d="M375.695 357.729C380.898 359.271 382.052 361.952 378.654 366.279C377.432 365.704 375.168 364.239 373.924 363.479C373.978 360.969 373.435 359.035 375.695 357.729Z" fill="#303008"/>
<path d="M391.208 342.045C393.174 341.993 397.145 341.77 398.157 343.645C397.371 345.615 393.504 342.801 389.828 344.674C388.515 346.553 388.402 348.221 387.341 349.492L386.947 349.454C385.695 346.084 388.104 343.17 391.208 342.045Z" fill="#2E2E2E"/>
<path d="M189.353 352.121C196.407 353.053 208.805 356.872 213.853 362.263C222.138 362.554 218.308 363.867 223.495 367.806C224.774 367.919 225.38 367.337 226.472 366.383C228.903 364.258 230.671 362.793 233.448 361.05C238.607 373.022 243.402 381.563 256.253 386.256C272.059 392.025 290.924 389.195 298.931 373.223C304.081 397.584 322.952 412.904 348.198 407.775C358.406 405.702 369.668 398.111 373.344 388.083C374.815 388.533 382.55 391.12 383.306 390.757L383.885 389.027C384.47 387.792 384.037 388.229 385.143 387.591C386.323 387.779 385.819 387.527 386.669 388.465L386.798 389.069C386.931 390.101 387.015 390.628 387.251 391.634C391.396 394.289 408.194 388.943 412.902 387.084C417.212 385.379 426.165 380.409 428.71 376.405C434.232 376.926 444.825 387.304 448.66 391.11C443.005 395.489 438.762 398.606 432.664 402.406C403.046 420.733 368.763 430.108 333.942 429.403C304.78 429.025 270.182 419.892 245.465 404.136C225.564 391.453 201.839 372.246 189.353 352.121Z" fill="#4F4F4F"/>
<path d="M383.884 389.027C384.47 387.792 384.036 388.229 385.142 387.592C386.322 387.779 385.818 387.527 386.668 388.465L386.798 389.069C386.704 391.618 384.906 398.183 384.563 401.456C384.069 406.158 384.977 413.602 383.286 417.383C382.649 417.836 382.762 417.949 381.967 418.004C378.148 418.282 378.999 415.407 379.959 413.098C382.378 407.286 384.159 401.291 384.117 394.936C384.104 392.931 383.868 391.071 383.884 389.027Z" fill="#424142"/>
<path d="M202.325 278.584C209.753 270.884 217.618 268.634 227.544 265.94C241.945 262.032 256.658 258.865 271.489 257.153C276.619 256.561 283.894 257.31 288.013 260.684L288.502 261.149C296.097 266.719 301.026 276.838 299.851 286.304L300.009 286.362C299.935 286.475 299.858 286.585 299.787 286.702C299.227 287.614 299.141 289.108 298.876 290.155C298.086 293.292 297.138 296.662 295.199 299.304C290.013 306.361 258.349 331.333 250.082 336.56C246.933 338.552 243.464 340.285 239.876 341.32C237.495 342.006 235.104 342.293 232.646 342.546C225.452 342.536 219.484 341.019 213.148 337.617C204.429 332.96 197.954 324.985 195.189 315.494C191.196 301.827 195.019 290.851 201.698 278.649L202.325 278.584Z" fill="#A2C037"/>
<path d="M202.325 278.584C209.754 270.884 217.619 268.634 227.544 265.94C241.945 262.032 256.658 258.865 271.49 257.153C276.62 256.561 283.894 257.31 288.013 260.684L288.503 261.149C285.124 263.592 283.149 267.644 278.92 269.491C274.105 271.593 269.06 272.294 263.998 273.575C250.675 277.077 224.958 283.16 211.956 281.518C208.607 281.075 205.353 280.085 202.325 278.584Z" fill="#489344"/>
<path d="M299.851 286.304L300.01 286.362C299.936 286.475 299.859 286.585 299.788 286.702C299.227 287.614 299.142 289.108 298.877 290.156C298.087 293.293 297.139 296.662 295.2 299.304C290.014 306.361 258.349 331.334 250.083 336.56C246.934 338.552 243.465 340.285 239.877 341.32C237.496 342.006 235.105 342.293 232.646 342.546C233.587 338.193 235.728 333.031 238.519 329.516C243.766 322.903 280.288 291.2 287.332 288.144C290.966 286.566 295.923 286.718 299.851 286.304Z" fill="#489344"/>
<path d="M245.494 147.404C245.541 144.309 245.65 141.403 246.033 138.334C249.215 112.852 279.592 99.3317 301.469 111.47C303.445 112.566 305.355 113.215 306.995 114.902L307.101 114.909C309.096 117.659 314.487 121.862 315.615 124.999C321.713 141.966 325.959 159.892 330.24 177.393C331.782 183.687 332.781 188.615 330.709 194.848C330.366 195.879 329.26 198.158 329.389 198.928L329.16 199.009C324.61 208.007 314.218 210.881 304.912 211.664L304.942 211.893C302.053 210.552 293.602 208.1 292.092 206.572C279.446 193.775 248.171 165.496 245.641 147.51L245.494 147.404Z" fill="#22886F"/>
<path d="M306.995 114.901L307.102 114.908C309.097 117.658 314.487 121.861 315.615 124.999C321.713 141.966 325.959 159.891 330.24 177.392C331.782 183.686 332.781 188.615 330.709 194.848C330.366 195.878 329.26 198.158 329.389 198.927L329.16 199.009C325.024 196.529 321.251 193.679 319.107 189.209C316.304 183.359 303.872 133.729 303.872 126.978C303.872 123.003 305.672 118.627 306.995 114.901Z" fill="#489344"/>
<path d="M245.641 147.51C258.872 147.784 274.652 168.581 283.298 177.362C289.547 183.71 297.768 190.428 301.791 198.31C303.134 201.168 303.799 204.737 304.321 207.817C304.495 208.853 304.625 210.909 304.913 211.664L304.942 211.893C302.053 210.552 293.602 208.1 292.092 206.572C279.446 193.775 248.171 165.495 245.641 147.51Z" fill="#489344"/>
<path d="M390.152 234.544C393.389 231.511 396.053 227.959 399.843 225.533C406.72 221.13 449.265 207.733 457.556 206.683C463.315 205.954 468.579 206.619 474.205 207.886L475.091 207.389C476.617 209.33 480.439 211.692 482.437 213.271C489.725 219.024 494.617 227.562 496.218 236.674C498.151 247.736 495.658 257.308 489.149 266.38C488.516 267.266 487.568 268.453 487.067 269.339C483.611 271.703 480.148 276.505 475.449 277.572C472.206 278.307 468.384 278.714 464.941 278.872C445.508 279.768 417.714 278.539 400.554 269.358C392.936 265.28 389.991 258.142 388.021 250.349C388.293 243.832 388.652 241.349 390.683 235.136L390.152 234.544Z" fill="#3D763C"/>
<path d="M390.15 234.544C393.387 231.511 396.051 227.959 399.841 225.533C406.718 221.13 449.263 207.733 457.554 206.683C463.313 205.954 468.577 206.619 474.203 207.886C466.863 220.638 443.725 225.304 430.739 229.782C418.753 233.916 403.569 242.658 391.017 235.337L390.681 235.136L390.15 234.544Z" fill="#489344"/>
<path d="M377.017 115.03C395.347 101.833 422.23 106.695 433.359 126.851C436.651 132.808 438.895 141.363 438.051 148.173C435.82 161.954 430.876 165.26 421.535 175.04C411.333 185.719 401.869 197.545 390.743 207.326C388.919 208.921 380.102 210.861 377.124 212.017C372.739 212.49 366.725 209.829 362.916 207.824C359.146 205.837 357.245 202.955 355.324 199.31L355.146 199.268C354.49 196.798 353.181 194.771 352.718 191.939C351.535 184.766 354.005 177.679 355.515 170.702C358.761 155.692 363.039 140.68 367.886 126.109C368.969 122.857 372.128 119.992 374.421 117.528C375.355 116.522 376.105 116.359 376.846 114.994L377.017 115.03Z" fill="#22886F"/>
<path d="M377.124 212.017C377.645 206.93 379.504 197.635 383.251 193.936C397.168 180.201 410.35 164.573 425.751 152.499C428.978 149.968 434.165 148.517 438.051 148.173C435.82 161.954 430.876 165.26 421.535 175.04C411.333 185.719 401.869 197.544 390.743 207.325C388.919 208.921 380.102 210.861 377.124 212.017Z" fill="#489344"/>
<path d="M376.846 114.994L377.017 115.029C378.391 119.426 380.112 124.404 380.053 129.045C379.934 138.508 368.423 182.499 363.932 191.151C361.545 195.75 358.871 196.359 355.324 199.31L355.146 199.268C354.49 196.798 353.18 194.77 352.718 191.939C351.535 184.765 354.005 177.679 355.515 170.702C358.761 155.692 363.039 140.68 367.886 126.108C368.969 122.857 372.128 119.992 374.421 117.527C375.355 116.521 376.105 116.359 376.846 114.994Z" fill="#489344"/>
<path d="M201.058 191.859C201.322 189.366 200.911 186.074 201.162 183.379C202.742 166.348 214.352 151.651 231.363 147.985C236.131 146.958 240.567 147.018 245.496 147.404L245.642 147.51C248.173 165.495 279.448 193.775 292.093 206.571C293.603 208.1 302.054 210.552 304.943 211.893C304.028 222.641 298.876 228.822 289.912 234.466L289.936 234.737C289.901 234.753 289.865 234.769 289.83 234.785C286.508 236.302 282.9 237.09 279.248 237.095C274.402 237.068 269.409 235.184 264.675 233.935C248.455 229.655 231.357 224.477 216.655 216.235C212.126 213.697 209.828 210.726 206.467 207.32L206.359 207.034C203.757 201.446 202.162 197.898 201.058 191.859Z" fill="#A2C037"/>
<path d="M206.357 207.034C210.128 206.996 216.399 204.848 219.924 205.588C240.448 209.897 260.937 216.432 280.465 224.072C284.679 225.72 287.453 231.181 289.91 234.466L289.935 234.737C289.899 234.754 289.864 234.769 289.828 234.785C286.506 236.302 282.898 237.09 279.247 237.096C274.4 237.068 269.407 235.184 264.674 233.935C248.453 229.655 231.356 224.477 216.653 216.236C212.125 213.698 209.827 210.726 206.465 207.32L206.357 207.034Z" fill="#489344"/>
<path d="M206.465 207.32C209.826 210.726 212.124 213.698 216.653 216.236C231.355 224.477 248.453 229.655 264.674 233.935C269.407 235.184 274.4 237.068 279.247 237.096C282.898 237.09 286.506 236.302 289.828 234.785C289.864 234.769 289.899 234.753 289.935 234.737C293.961 242.972 293.229 253.14 288.013 260.684C283.894 257.31 276.619 256.561 271.489 257.153C256.658 258.865 241.945 262.032 227.544 265.94C217.618 268.633 209.753 270.884 202.325 278.584L201.698 278.649C187.574 271.13 180.812 257.347 181.726 241.557C182.426 229.466 186.944 223.116 194.211 214.159C199.201 210.526 200.729 209.512 206.465 207.32Z" fill="#22886F"/>
<path d="M307.102 114.909C308.02 111.585 312.126 106.187 314.593 103.804C333.852 85.21 363.065 90.5163 375.967 113.237C376.29 113.808 376.581 114.395 376.846 114.994C376.106 116.359 375.355 116.522 374.421 117.528C372.129 119.992 368.97 122.857 367.886 126.109C363.039 140.68 358.762 155.692 355.515 170.702C354.005 177.679 351.535 184.765 352.718 191.939C353.181 194.771 354.49 196.798 355.147 199.268C346.472 203.849 337.964 204.168 329.389 198.928C329.26 198.158 330.366 195.879 330.709 194.848C332.781 188.616 331.782 183.687 330.24 177.393C325.959 159.892 321.713 141.966 315.615 124.999C314.487 121.862 309.097 117.659 307.102 114.909Z" fill="#A2C037"/>
<path d="M438.052 148.172C450.578 147.852 460.055 151.368 469.552 159.923C477.121 166.742 480.041 177.404 480.212 187.346C480.228 188.15 480.232 188.955 480.219 189.759C479.417 195.067 477.929 202.823 475.091 207.388L474.205 207.885C468.578 206.618 463.314 205.954 457.556 206.683C449.265 207.732 406.72 221.13 399.843 225.532C396.053 227.959 393.389 231.51 390.152 234.544C388.122 233.312 385.855 231.671 384.141 230.029L383.925 229.781C379.615 224.803 376.63 218.76 377.125 212.016C380.103 210.86 388.92 208.92 390.744 207.325C401.87 197.544 411.334 185.718 421.536 175.039C430.877 165.259 435.821 161.954 438.052 148.172Z" fill="#A2C037"/>
<path d="M442.821 332.204C445.737 331.373 453.747 332.142 456.479 333.892C463.689 338.51 469.348 346.744 474.253 353.694C475.805 355.896 477.693 359.023 479.417 360.821C474.398 369.087 459.476 382.149 452.059 388.3C448.276 386.356 431.879 377.783 430.88 374.782C443.067 364.378 445.32 347.154 442.821 332.204Z" fill="#4F4F4F"/>
<path d="M480.218 189.76C480.393 188.845 480.554 188.014 480.774 187.104L480.962 187.124C483.232 195.709 473.434 204.304 483.112 207.221C483.943 205.801 484.787 204.39 485.644 202.988C487.946 207.761 489.757 209.461 493.352 213.383C493.992 216.659 494.122 220.798 494.649 224.328C495.143 227.66 496.695 232.941 496.967 235.916L496.217 236.674C494.616 227.562 489.724 219.023 482.436 213.271C480.438 211.692 476.616 209.33 475.09 207.389C477.929 202.823 479.416 195.067 480.218 189.76Z" fill="#2E2E2E"/>
<path d="M384.141 230.03C385.854 231.671 388.121 233.313 390.151 234.544L390.682 235.136C388.651 241.348 388.292 243.832 388.021 250.349C385.505 244.8 382.643 237.858 382.104 231.726C382.53 230.842 383.171 230.67 384.141 230.03Z" fill="#424142"/>
<path d="M201.055 191.859C202.16 197.898 203.755 201.447 206.357 207.034L206.465 207.32C200.729 209.513 199.201 210.526 194.211 214.159C196.145 210.723 199.021 209.495 202.444 208.045C200.694 203.459 199.249 196.543 201.055 191.859Z" fill="#2E2E2E"/>
<path d="M496.216 236.674L496.966 235.917C498.205 242.542 498.108 248.346 496.003 254.833C494.331 259.997 491.806 266.282 487.065 269.339C487.567 268.452 488.514 267.266 489.148 266.379C495.657 257.308 498.15 247.736 496.216 236.674Z" fill="#2E2E2E"/>
</g>
<defs>
<clipPath id="clip0_592_1229">
<rect width="591" height="613" fill="white"/>
</clipPath>
</defs>
</svg>
